<svg xmlns="http://www.w3.org/2000/svg" viewBox="0 0 120 300" width="120" height="300">
	<style>
		tspan { white-space:pre }
		.shp0 { fill: #ffffff } 
		.shp1 { fill: #000000 } 
		.shp2 { fill: #fd9800 } 
		.shp3 { fill: #fefefe } 
		.shp4 { fill: #cccccc } 
		.shp5 { fill: #cbcccc } 
		.shp6 { fill: #f8fafa } 
		.shp7 { fill: #fb9701 } 
		.shp8 { fill: #f4f4f3 } 
		.shp9 { fill: #f7f8f8 } 
		.shp10 { fill: #f2f3f3 } 
		.shp11 { fill: #f5f6f6 } 
		.shp12 { fill: #eff0f0 } 
		.shp13 { fill: #fbfbfb } 
		.shp14 { fill: #f5f8f8 } 
		.shp15 { fill: #f6f8f8 } 
		.shp16 { fill: #f4f9f9 } 
		.shp17 { fill: #fafbfb } 
		.shp18 { fill: #eaebeb } 
		.shp19 { fill: #dd8500 } 
		.shp20 { fill: #f9fdfd } 
		.shp21 { fill: #eff3f3 } 
		.shp22 { fill: #dfe7e7 } 
		.shp23 { fill: #f2f0eb } 
		.shp24 { fill: #e5e7e7 } 
		.shp25 { fill: #f59000 } 
		.shp26 { fill: #e2e6e6 } 
		.shp27 { fill: #dfe2e2 } 
		.shp28 { fill: #f1f0e5 } 
		.shp29 { fill: #f5f0e4 } 
		.shp30 { fill: #d0d0d0 } 
		.shp31 { fill: #d3d9cb } 
		.shp32 { fill: #b8b7b7 } 
		.shp33 { fill: #090805 } 
		.shp34 { fill: #231400 } 
		.shp35 { fill: #262424 } 
		.shp36 { fill: #0b0909 } 
		.shp37 { fill: #201d1d } 
		.shp38 { fill: #151111 } 
		.shp39 { fill: #869b9b } 
	</style>
	<g id="Layer">
		<g id="Layer">
			<g id="Layer">
				<g id="Layer">
					<path id="Layer" class="shp0" d="M33.43 53.71C30.7 49.82 27.88 46.01 25.24 42.04C22.67 38.15 20.27 34.26 17.95 30.21C15.14 25.32 12.41 20.28 9.68 15.31C8.77 13.66 8.11 12 7.45 10.26C5.87 5.96 8.6 2.48 13.24 3.06C17.46 3.56 21.68 4.14 25.73 5.05C46.42 10.01 65.29 18.95 82.58 31.2C88.04 35.09 93.34 39.31 97.73 44.52C98.39 45.35 99.22 45.51 100.21 45.43C102.53 45.27 104.68 46.01 106.58 47.25C110.8 49.98 113.2 55.86 111.88 60.82C111.05 63.97 109.89 67.11 108.73 70.17C104.92 80.43 100.95 90.7 97.23 100.96C95.66 105.43 92.35 107.74 88.13 108.98C84.32 110.14 80.84 109.07 77.78 106.58C77.29 106.17 76.87 105.76 76.38 105.34C75.55 106.34 75.88 107.33 75.88 108.16C75.88 115.69 75.88 123.22 75.8 130.75C75.71 134.8 75.47 138.94 75.22 142.99C75.13 144.4 75.3 145.56 75.96 146.8C76.87 148.54 77.62 150.36 78.28 152.26C79.6 156.07 79.19 159.79 77.78 163.52C77.29 164.84 77.29 166 77.95 167.24C78.53 168.23 78.69 169.47 79.02 170.63C79.36 171.63 79.6 172.62 79.93 173.61C80.68 175.6 81.67 177.5 81.01 179.73C80.76 180.65 81.18 181.22 81.67 181.89C85.64 187.35 87.88 193.55 89.2 200.01C90.86 208.2 92.02 216.39 92.6 224.75C93.34 234.76 93.67 244.78 93.51 254.87C93.42 259.34 92.93 263.81 92.68 268.28C92.51 270.59 91.44 272.25 89.53 273.49C89.12 273.74 88.62 274.07 88.13 274.24C86.89 274.73 86.39 275.73 86.22 276.97C85.81 279.95 84.98 282.92 84.73 285.99C84.32 291.2 80.84 293.76 76.62 295.17C70.17 297.32 63.38 297.74 56.6 296.83C54.53 296.58 52.46 296 50.39 295.59C45.76 294.51 42.61 291.86 41.12 287.31C40.3 284.83 39.3 282.35 38.56 279.78C38.15 278.29 37.4 277.21 35.91 276.64C35.08 276.3 34.26 275.81 33.43 275.39C31.11 273.99 30.04 271.84 29.62 269.19C27.31 251.81 26.89 234.43 27.39 216.97C27.64 207.29 29.29 197.77 32.19 188.51C33.26 184.95 34.59 181.47 37.15 178.66C37.9 177.83 38.15 176.92 38.23 175.76C38.23 174.03 38.64 172.37 39.72 170.88C40.63 169.56 40.71 167.98 40.96 166.41C39.55 166 38.23 165.75 37.07 165.34C34.42 164.51 32.44 162.77 31.61 160.04C30.95 157.81 30.37 155.49 29.87 153.09C29.54 151.19 28.96 149.7 27.31 148.46C24.33 146.3 23.25 142.99 22.92 139.44C22.67 136.37 23.08 133.39 24.16 130.5C24.99 128.1 26.39 125.95 28.71 124.71C29.87 124.13 30.62 123.38 30.78 122.06C30.95 121.07 31.44 120.07 31.77 119.08C32.85 115.85 35.17 114.2 38.39 113.62C39.3 113.45 40.21 113.37 41.12 113.37C44.1 113.37 44.02 113.04 44.02 110.56C44.02 106.75 44.02 102.86 44.02 99.05C44.02 96.98 43.86 96.9 41.7 96.82C39.97 96.74 38.31 96.65 36.57 96.49C34.5 96.32 33.18 95.25 32.27 93.43C31.19 91.27 30.12 89.21 29.7 86.81C29.21 83.66 28.38 80.6 28.22 77.46C27.72 69.1 29.13 61.15 33.43 53.71Z" />
					<path id="Layer" class="shp1" d="M71.99 118.58C71.74 126.11 71.49 133.64 71.25 141.17C71.16 142.91 70.5 144.65 70.83 146.22C71.08 147.71 72.4 148.95 73.15 150.36C75.38 154.58 75.63 158.96 73.65 163.35C72.74 165.25 72.07 166.91 73.98 168.65C74.39 169.06 74.8 169.8 74.8 170.38C74.72 172.87 75.96 174.85 77.04 177C77.62 178.16 77.37 179.32 76.87 180.48C76.54 181.22 76.46 181.97 77.04 182.71C82.67 189.25 84.82 197.28 86.31 205.55C87.55 212.84 88.21 220.2 88.87 227.56C89.78 237.74 89.7 247.92 89.62 258.1C89.53 261.41 89.04 264.64 88.87 267.95C88.79 269.11 88.21 269.93 87.3 270.51C86.97 270.76 86.64 271.01 86.31 271.09C83.24 271.59 82.91 273.9 82.58 276.3C82.09 279.7 81.42 283.09 80.84 286.48C80.6 287.89 79.93 288.88 78.78 289.71C76.79 291.2 74.72 292.11 72.32 292.52C65.87 293.76 59.49 293.85 53.04 292.36C52.3 292.19 51.55 291.94 50.72 291.7C47.83 290.87 45.92 288.97 45.01 286.15C43.94 283.01 42.78 279.95 41.87 276.8C41.37 275.15 40.55 274.07 38.72 273.66C37.65 273.41 36.57 272.66 35.58 272C34.59 271.34 34.09 270.26 33.93 269.02C31.36 251.31 31.11 233.44 31.69 215.65C31.94 207.21 33.51 198.85 35.99 190.74C37.15 186.77 38.72 182.96 41.87 180.15C42.7 179.4 42.78 178.66 42.61 177.67C42.28 175.93 42.45 174.27 44.1 173.03C44.43 172.78 44.68 172.12 44.68 171.71C44.43 168.56 45.51 166 47.74 163.85C47.99 163.6 48.08 163.1 47.99 162.85C47.91 162.61 47.41 162.27 47.17 162.27C45.34 162.27 43.44 162.27 41.62 162.36C37.48 162.52 35.5 160.54 34.75 156.73C34.26 154 33.68 151.27 33.18 148.54C33.01 147.88 32.77 147.3 32.1 147.05C27.8 145.31 26.97 141.67 27.14 137.62C27.22 136.21 27.39 134.72 27.8 133.31C28.46 130.83 29.7 128.6 32.68 128.18C33.68 128.02 33.93 127.44 34.17 126.61C34.59 124.95 35.17 123.3 35.58 121.64C36.24 119.08 38.15 118 40.55 117.84C42.53 117.67 44.52 117.84 46.5 117.76C48.16 117.76 48.49 117.42 48.49 115.93C48.49 108.9 48.49 101.95 48.49 94.92C48.49 93.51 48.08 93.1 46.5 93.1C44.27 93.1 42.03 93.01 39.8 93.18C37.65 93.34 36.41 92.43 35.5 90.53C33.84 86.97 33.18 83.25 32.77 79.44C32.19 74.39 32.52 69.43 33.84 64.46C34.75 61.24 35.83 58.17 37.9 55.53C38.89 54.2 38.89 54.2 37.9 52.8C35.91 49.98 33.93 47.17 31.86 44.44C26.56 37.4 22.51 29.71 18.2 22.1C16.55 19.2 14.98 16.3 13.49 13.41C12.91 12.25 12.41 11.01 12 9.77C11.33 7.86 11.67 7.2 13.57 7.45C17.62 8.03 21.76 8.36 25.73 9.35C49.15 15.39 70.34 25.74 88.87 41.29C91.6 43.61 93.92 46.34 96.32 48.99C97.23 49.98 97.89 50.64 99.3 50.15C102.19 49.24 104.59 50.23 106.41 52.38C108.48 54.78 109.48 57.68 108.4 60.91C107.49 63.55 106.58 66.12 105.59 68.77C101.86 78.78 98.06 88.79 94.42 98.89C93.42 101.62 91.68 103.36 89.45 104.76C85.15 107.49 79.19 104.6 78.61 99.55C78.44 98.47 78.53 97.4 78.69 96.41C78.86 95 78.03 94.25 76.96 93.59C75.71 92.93 74.39 93.01 73.07 93.26C72.82 93.34 72.4 93.76 72.32 94.09C72.24 94.83 72.24 95.66 72.24 96.49C72.24 103.85 72.24 111.3 72.24 118.67C71.82 118.58 71.91 118.58 71.99 118.58Z" />
					<path id="Layer" class="shp2" d="M55.27 93.34C59 93.26 62.64 93.18 66.36 93.18C67.36 93.18 67.69 93.67 67.77 94.67C67.77 95.16 67.77 95.74 67.77 96.24C67.85 111.38 67.94 126.61 68.02 141.75C68.02 142.25 67.94 142.75 67.94 143.49C65.95 142.66 64.29 141.67 62.39 141.17C60.49 140.68 58.5 140.68 56.52 140.51C58.25 138.36 58.01 135.96 57.43 133.39C56.43 128.51 55.52 123.55 55.61 118.5C58.5 113.2 56.1 107.66 56.52 102.28C56.68 100.38 56.85 98.31 54.78 96.98C54.28 95.58 54.2 94.42 55.27 93.34Z" />
					<path id="Layer" class="shp3" d="M81.67 94.92C81.84 94.42 82 93.84 82.25 93.18C86.55 81.84 90.86 70.5 95.08 59.09C95.99 56.69 97.31 54.95 99.63 53.95C100.62 53.54 101.45 53.71 102.19 54.29C104.01 55.61 104.59 58.17 103.77 60.33C100.46 68.68 97.06 76.96 93.75 85.32C92.26 89.12 90.86 92.93 89.37 96.74C88.95 97.73 88.62 98.72 87.96 99.55C86.39 101.7 83.58 101.37 82.67 98.89C82.17 97.73 82 96.41 81.67 94.92Z" />
					<path id="Layer" class="shp4" d="M40.3 77.04C41.21 77.95 40.79 79.69 42.37 80.27C43.36 79.11 43.28 77.62 43.52 76.21C44.02 72.66 44.52 69.18 45.1 65.71C45.18 65.13 45.51 64.55 45.76 63.97C46.09 63.97 46.17 63.97 46.25 64.05C46.34 64.05 46.5 64.13 46.59 64.22C53.87 72.49 61.32 80.6 69.43 88.13C68.93 89.12 68.18 88.88 67.6 88.88C63.55 88.88 59.41 88.71 55.36 88.71C52.3 88.71 49.32 89.04 46.25 89.12C43.61 89.21 40.96 89.12 38.39 89.04C38.23 89.04 38.06 88.71 37.9 88.46C39.14 87.22 40.79 87.55 42.37 87.39C38.64 83.66 38.23 81.18 40.3 77.04Z" />
					<path id="Layer" class="shp5" d="M54.45 145.48C56.1 144.24 58.09 144.4 59.74 144.9C64.38 146.3 67.94 149.12 69.67 153.83C70.91 157.23 70.34 160.37 68.43 163.27C66.86 165.67 64.38 166.74 61.65 166.58C58.17 166.41 54.94 165.34 52.79 162.27C52.63 160.04 51.72 157.97 51.88 155.65C52.3 150.94 54.12 147.3 58.92 145.72C57.34 146.3 55.85 146.88 54.45 145.48Z" />
					<path id="Layer" class="shp6" d="M55.94 52.47C56.93 48.74 58.01 45.1 58.83 41.38C59.33 39.06 59.49 36.66 59.74 34.34C59.91 33.18 59.49 32.36 58.42 31.69C53.29 28.47 48.16 25.24 42.7 22.67C39.55 21.27 36.49 19.86 33.35 18.37C29.04 16.39 24.57 14.81 19.94 13.74C19.03 13.49 18.12 13.32 17.62 12.41C17.54 12.17 17.38 11.83 17.46 11.75C17.54 11.59 17.87 11.5 18.12 11.5C18.37 11.5 18.62 11.59 18.86 11.59C33.59 15.81 47.91 21.19 61.4 28.47C66.2 31.03 65.62 31.12 63.96 35.42C61.56 41.71 59.16 48 56.76 54.29C55.19 54.29 55.69 53.29 55.94 52.47Z" />
					<path id="Layer" class="shp7" d="M51.96 283.26C52.38 283.67 52.87 284.17 53.29 284.58C53.95 285.24 54.36 284.91 54.86 284.41C57.18 282.26 55.77 278.87 57.59 276.55C58.25 276.47 58.92 276.39 59.49 276.39C60.98 276.47 61.32 276.64 61.32 278.21C61.32 280.11 61.98 281.68 62.89 283.34C65.04 284.33 65.2 282.35 65.87 281.27C66.86 279.7 66.53 277.55 68.1 276.3C68.35 276.22 68.6 276.06 68.85 275.97C69.51 275.81 70.34 275.89 70.17 276.8C69.92 278.87 69.67 280.94 70.67 283.01C72.24 281.68 72.82 279.86 73.07 278.12C73.31 275.97 74.39 274.81 76.54 274.57C76.96 274.48 77.29 274.4 77.95 274.24C77.95 274.98 77.95 275.56 77.87 276.14C77.29 279.28 76.71 282.35 76.13 285.41C75.96 286.32 75.55 286.81 74.64 286.98C67.19 288.47 59.83 289.13 52.38 286.9C52.3 286.9 52.21 286.73 52.05 286.65C51.63 285.74 50.89 284.5 51.96 283.26Z" />
					<path id="Layer" class="shp8" d="M56.52 118.42C56.93 125.53 57.92 132.65 59.91 139.77C58.67 140.01 57.59 140.26 56.52 140.51C55.27 140.76 53.95 141.01 52.46 141.34C52.38 140.1 52.3 139.02 52.3 137.86C52.3 125.62 52.38 113.45 52.46 101.2C52.46 99.14 52.38 96.98 52.38 94.92C52.38 93.26 52.63 93.1 54.61 93.18C54.86 93.18 55.11 93.34 55.36 93.34C55.36 94.58 55.44 95.74 55.44 96.98C56.35 97.89 56.43 99.14 56.43 100.29C56.35 106.25 56.6 112.38 56.52 118.42Z" />
					<path id="Layer" class="shp9" d="M58.58 224.92C52.21 225.25 45.92 224.83 39.72 223.34C38.97 223.18 38.23 222.93 37.4 222.77C36.66 222.6 36.32 222.1 36.41 221.36C36.66 217.14 36.74 212.92 37.24 208.7C37.98 202.41 39.39 196.2 41.04 190.08C41.79 187.27 43.03 184.62 45.26 182.55C45.51 182.3 46.25 182.3 46.67 182.38C46.83 182.47 47.08 183.13 47 183.38C46.75 184.29 46.42 185.11 46.01 185.94C43.19 193.14 41.54 200.59 40.38 208.2C39.97 210.93 39.72 213.75 39.3 216.48C39.06 218.21 39.8 219.21 41.12 220.03C44.02 221.61 47.08 222.85 50.39 223.43C52.96 223.84 55.61 224.01 58.25 224.34C58.58 224.25 58.75 224.5 58.58 224.92Z" />
					<path id="Layer" class="shp10" d="M36.41 225.99C41.29 226.32 40.71 226.9 40.05 230.38C38.48 238.24 38.23 246.1 39.14 253.96C39.39 256.61 39.88 259.18 40.05 261.82C40.13 263.56 41.04 264.8 42.37 265.8C43.86 266.87 45.43 267.86 47 268.77C48.08 269.44 49.23 269.93 50.39 270.51C50.23 270.84 50.23 271.01 50.14 271.01C46.01 271.09 42.03 270.1 38.23 268.53C37.32 268.19 37.15 267.53 37.15 266.71C37.73 258.76 36.9 250.9 36.66 243.04C36.49 238.32 36.32 233.52 36.24 228.81C36.16 227.81 36.32 226.9 36.41 225.99Z" />
					<path id="Layer" class="shp11" d="M75.96 248.75C75.71 243.95 75.47 238.74 75.22 233.44C75.13 232.36 75.22 231.29 75.22 230.3C75.22 228.81 75.63 227.9 76.05 228.06C77.04 228.47 77.29 229.39 77.37 230.3C77.53 231.62 77.62 232.94 77.78 234.27C78.61 243.45 79.36 252.72 78.94 261.99C78.94 262.82 78.86 263.56 78.94 264.39C79.02 264.8 79.36 265.38 79.69 265.63C80.51 266.21 81.51 266.71 82.42 267.2C82.91 267.53 83 268.19 82.5 268.44C81.67 268.86 80.84 269.27 79.93 269.52C74.31 271.34 75.3 271.17 75.47 266.37C75.8 260.58 75.8 254.95 75.96 248.75Z" />
					<path id="Layer" class="shp12" d="M77.45 223.43C75.63 223.51 75.13 223.1 75.13 222.02C74.89 218.46 74.8 214.9 74.47 211.35C73.81 203.48 72.49 195.71 69.92 188.09C69.67 187.35 69.51 186.52 69.51 185.78C69.43 185.03 69.84 184.53 70.58 184.37C71 184.29 71.33 184.2 71.74 184.12C72.9 183.96 73.81 184.53 74.14 185.61C74.22 186.11 74.31 186.69 74.31 187.18C73.89 196.62 75.38 205.8 77.04 215.07C77.29 216.31 77.12 217.97 77.87 218.79C78.78 219.79 80.27 218.54 81.51 218.46C82.33 218.38 83.08 218.13 83.41 219.21C83.82 220.45 83.49 221.28 82.25 221.69C80.43 222.52 78.53 223.01 77.45 223.43Z" />
					<path id="Layer" class="shp13" d="M40.3 77.04C40.3 78.7 40.3 80.43 40.21 82.09C40.13 83.58 40.71 84.57 41.87 85.48C42.61 86.06 43.36 86.56 44.02 87.14C44.19 87.3 44.27 87.63 44.27 87.8C44.27 87.96 43.94 88.21 43.77 88.21C41.79 88.3 39.88 88.3 37.9 88.3C37.73 87.8 37.48 87.3 37.4 86.81C36.74 81.34 36.32 75.8 36.99 70.26C37.32 66.95 38.06 63.8 39.47 60.74C39.97 59.66 40.63 58.75 41.21 57.76C42.86 58.75 43.44 59.75 42.78 61.48C40.71 66.53 39.97 71.75 40.3 77.04Z" />
					<path id="Layer" class="shp14" d="M93.75 53.79C92.76 55.94 91.77 58.09 90.53 60.74C90.11 59.33 89.78 58.51 89.62 57.51C89.04 53.71 87.22 50.56 84.65 47.83C80.84 43.61 76.46 40.05 71.33 37.4C70 36.74 68.76 36 67.6 35.17C66.78 34.67 66.94 33.76 67.27 33.02C67.36 32.77 67.85 32.44 68.1 32.44C68.6 32.52 69.09 32.77 69.51 33.1C76.13 37.24 82.42 41.87 88.13 47.17C90.2 49.16 92.18 51.22 93.75 53.79Z" />
					<path id="Layer" class="shp15" d="M61.73 174.77C58.09 174.6 55.03 174.44 52.13 173.45C51.39 173.2 50.64 172.95 49.98 172.54C48.24 171.63 47.91 170.88 48.57 168.98C48.9 168.15 49.4 167.32 49.9 166.58C50.06 166.33 50.64 166.25 50.89 166.33C51.39 166.49 51.72 166.99 52.13 167.24C57.01 170.96 62.31 172.04 68.1 169.47C69.51 168.81 70.91 169.8 71 171.46C71 171.87 70.67 172.54 70.34 172.78C69.43 173.28 68.43 173.78 67.44 173.94C65.29 174.44 63.22 174.6 61.73 174.77Z" />
					<path id="Layer" class="shp16" d="M46.01 174.69C47.91 175.51 49.73 176.67 51.72 177.17C58.25 178.74 64.79 178.99 71.25 176.76C72.65 176.26 73.15 176.42 73.56 177.25C74.06 178.33 73.81 179.49 72.82 180.07C71.91 180.56 70.91 180.98 69.92 181.22C68.76 181.47 67.6 181.64 66.36 181.64C61.48 181.64 56.6 181.56 51.8 180.48C49.98 180.07 48.24 179.57 46.83 178.25C45.68 177.17 45.34 176.01 46.01 174.69Z" />
					<path id="Layer" class="shp17" d="M54.45 145.48C56.02 145.48 57.59 145.48 59.49 145.48C59.08 146.06 58.92 146.39 58.67 146.55C53.95 148.87 52.13 153.75 53.12 159.21C53.21 159.87 53.54 160.45 53.54 161.12C53.54 161.53 53.04 161.94 52.79 162.36C49.4 159.05 49.07 154.91 49.81 150.69C50.23 148.12 51.55 145.89 54.45 145.48Z" />
					<path id="Layer" class="shp18" d="M45.26 213.75C43.94 212.01 43.94 210.68 44.19 209.36C45.1 203.9 46.25 198.52 48.16 193.31C48.57 192.23 49.15 191.15 49.81 190.16C49.98 189.91 50.56 189.83 50.89 190C51.14 190.08 51.39 190.66 51.3 190.91C51.14 191.65 50.97 192.48 50.64 193.14C48.65 197.36 47.91 201.91 47.08 206.46C46.92 207.54 46.75 208.53 46.5 209.61C46.25 210.77 45.84 212.01 45.26 213.75Z" />
					<path id="Layer" class="shp19" d="M38.23 151.52C36.82 148.7 36.66 145.97 37.9 143.08C39.22 139.85 38.64 136.54 37.98 133.31C37.57 131.33 37.57 129.42 37.9 127.44C37.9 127.27 38.15 126.94 38.31 126.94C38.48 126.94 38.89 127.11 38.89 127.19C39.47 129.51 40.3 131.66 40.21 134.14C40.05 137.53 40.05 141.01 40.05 144.4C40.05 146.55 39.47 148.54 38.89 150.61C38.97 151.02 38.56 151.19 38.23 151.52Z" />
					<path id="Layer" class="shp11" d="M42.7 130.08C42.12 127.6 41.54 125.2 40.96 122.8C46.5 121.73 46.92 121.98 47.99 126.94C48.08 127.44 48.16 127.93 48.16 128.51C48.16 129.01 48.08 129.51 48.08 130.17C46.25 130.5 44.52 130.5 42.7 130.08Z" />
					<path id="Layer" class="shp20" d="M48.16 133.73C48.16 137.12 48.16 140.35 48.16 143.9C47.5 143.99 46.59 144.07 45.68 144.07C44.02 144.07 43.94 143.99 43.86 142.25C43.77 140.01 43.77 137.78 43.69 135.55C43.69 134.06 43.86 133.89 45.18 133.81C46.09 133.64 47 133.73 48.16 133.73Z" />
					<path id="Layer" class="shp21" d="M41.04 157.81C41.95 154.08 42.7 150.86 43.44 147.71C43.61 146.97 44.1 146.55 44.85 146.55C45.51 146.55 46.09 146.72 46.75 146.88C46.83 146.88 47 147.38 46.92 147.55C45.59 150.52 45.68 153.67 46.01 156.81C46.09 157.48 45.59 157.72 45.01 157.72C43.86 157.81 42.7 157.81 41.04 157.81Z" />
					<path id="Layer" class="shp22" d="M70.25 235.09C70.25 237.25 68.1 239.4 65.87 239.4C63.88 239.4 62.31 237.58 62.39 235.43C62.47 233.27 64.38 231.37 66.45 231.29C68.43 231.29 70.25 233.11 70.25 235.09Z" />
					<path id="Layer" class="shp23" d="M51.96 283.26C52.05 284 52.21 284.75 52.21 285.49C52.21 285.99 52.05 286.4 51.96 286.9C50.89 286.81 49.98 286.48 49.56 285.24C48.65 282.43 47.58 279.53 46.67 276.72C46.34 275.73 46.75 275.31 47.91 275.39C48.16 275.39 48.41 275.48 48.65 275.48C49.73 275.48 50.31 275.97 50.48 277.05C50.89 279.2 51.47 281.19 51.96 283.26Z" />
					<path id="Layer" class="shp24" d="M63.3 217.72C62.8 216.56 62.8 215.4 63.22 214.24C63.8 212.5 65.12 211.84 66.86 212.26C67.27 212.34 67.6 212.5 67.94 212.67C70.17 213.5 71.08 215.07 70.5 217.22C70 219.21 68.18 220.37 66.03 219.95C65.54 219.87 65.12 219.46 64.71 219.21C64.63 217.63 66.45 217.88 66.94 216.97C67.44 215.81 66.94 215.32 65.78 215.23C65.37 215.32 65.04 215.57 64.87 215.98C64.71 216.39 64.63 216.81 64.46 217.22C64.13 217.63 63.8 217.88 63.3 217.72Z" />
					<path id="Layer" class="shp25" d="M35.99 135.13C36.57 137.28 35.91 139.27 35.41 141.26C35.17 142.25 34.17 142.5 33.26 141.92C32.52 141.42 32.1 140.84 32.1 140.01C32.1 138.61 32.19 137.2 32.27 135.79C33.35 135.05 34.5 134.22 35.99 135.13Z" />
					<path id="Layer" class="shp26" d="M68.68 48.49C68.6 49.73 67.36 50.98 66.11 50.98C64.71 50.98 63.38 49.57 63.47 48.16C63.55 46.92 64.87 45.6 66.03 45.6C67.36 45.6 68.68 47.09 68.68 48.49Z" />
					<path id="Layer" class="shp27" d="M52.3 37.82C53.7 37.82 55.11 39.31 55.03 40.63C54.94 41.87 53.54 43.11 52.3 42.95C51.05 42.87 49.81 41.54 49.81 40.3C49.81 39.14 51.14 37.82 52.3 37.82Z" />
					<path id="Layer" class="shp28" d="M68.18 276.39C67.85 278.79 67.36 281.1 66.03 283.17C65.45 284.17 64.54 284.75 63.38 284.33C63.14 284.25 63.05 283.75 62.89 283.42C63.22 283.34 63.72 283.26 63.88 283.09C64.79 281.6 65.2 280.03 65.45 278.29C65.62 276.14 65.7 276.14 68.18 276.39Z" />
					<path id="Layer" class="shp29" d="M57.59 276.64C57.59 277.79 57.76 279.04 57.59 280.11C57.34 281.93 56.93 283.67 54.86 284.41C55.19 282.18 55.11 279.95 54.53 277.71C54.2 276.47 54.61 276.06 56.02 276.14C56.6 276.3 57.1 276.47 57.59 276.64Z" />
					<path id="Layer" class="shp30" d="M54.78 197.44C55.19 198.02 55.85 198.44 55.85 198.93C55.85 199.93 55.61 201 55.27 201.91C55.03 202.57 54.45 203.48 53.54 203.07C52.96 202.82 52.46 201.99 52.21 201.33C51.88 200.17 52.38 199.02 53.21 198.11C53.54 197.77 54.12 197.69 54.78 197.44Z" />
					<path id="Layer" class="shp31" d="M35.99 135.13C34.75 135.55 33.59 136.13 32.27 135.79C32.35 135.05 32.27 134.22 32.52 133.48C32.77 132.73 33.35 132.15 34.34 132.24C35.25 132.32 35.83 132.82 35.99 133.64C35.99 134.06 35.91 134.55 35.99 135.13Z" />
					<path id="Layer" class="shp32" d="M55.94 52.47C56.27 53.04 56.52 53.62 56.85 54.2C56.18 56.19 55.61 58.17 54.86 60.16C54.78 60.49 54.28 60.66 54.03 60.91C53.87 60.57 53.62 60.24 53.62 60C53.62 59.5 53.7 58.92 53.87 58.42C54.53 56.35 55.19 54.45 55.94 52.47Z" />
					<path id="Layer" class="shp9" d="M58.58 224.92C58.5 224.67 58.34 224.42 58.25 224.17C59.33 224.09 60.32 224.01 61.4 224.01C64.96 224.01 68.43 224.25 72.16 223.92C71.74 224.17 71.25 224.67 70.83 224.67C66.69 224.83 62.64 224.83 58.58 224.92Z" />
					<path id="Layer" class="shp0" d="M63.3 217.72C63.55 217.39 63.88 217.06 64.13 216.72C65.54 216.48 66.78 216.64 67.85 217.55C67.44 218.3 66.78 218.54 66.03 218.46C65.37 218.46 64.87 218.54 64.54 219.21C63.8 219.04 63.38 218.54 63.3 217.72Z" />
					<path id="Layer" class="shp33" d="M56.52 118.42C56.1 117.18 55.44 115.93 55.44 114.69C55.36 108.82 55.36 102.86 55.36 96.98C57.1 96.9 57.51 97.07 57.59 98.23C57.67 99.05 57.59 99.8 57.67 100.63C57.84 104.02 58.01 107.49 58.01 110.89C58.01 112.87 57.76 114.86 57.51 116.76C57.43 117.34 56.85 117.84 56.52 118.42Z" />
					<path id="Layer" class="shp34" d="M58.75 100.96C59 100.05 59 99.38 59.33 98.81C59.58 98.39 60.16 98.06 60.57 98.06C60.98 98.06 61.56 98.39 61.81 98.81C62.72 100.29 62.31 102.61 61.07 103.85C60.65 104.27 59.99 104.1 59.74 103.6C59.33 102.69 59 101.7 58.75 100.96Z" />
					<path id="Layer" class="shp35" d="M49.48 73.9C49.23 74.89 49.23 76.21 47.99 76.79C47.25 77.12 46.34 75.39 46.34 73.73C46.34 72.24 47.25 71 48.16 71.25C49.07 71.41 49.65 72.49 49.48 73.9Z" />
					<path id="Layer" class="shp36" d="M65.45 156.32C65.37 158.22 64.87 159.79 63.63 161.03C62.23 162.44 60.32 162.69 58.58 161.61C58.01 161.28 57.43 160.79 57.67 160.04C57.84 159.63 58.34 159.3 58.83 159.05C59.16 158.88 59.58 158.88 59.99 158.72C61.48 157.97 61.98 156.56 61.23 155.16C60.82 154.33 60.16 153.75 59.58 153.01C59.08 152.34 59 151.6 59.49 150.86C59.99 150.19 61.07 150.03 61.98 150.52C64.13 151.93 65.12 154 65.45 156.32Z" />
					<path id="Layer" class="shp37" d="M68.51 235.84C68.35 236.92 67.44 237.58 66.2 237.66C65.2 237.66 64.29 237.16 64.13 236.25C64.05 235.76 64.21 235.18 64.46 234.85C65.45 233.69 67.19 233.69 68.1 234.93C68.43 235.18 68.43 235.59 68.51 235.84Z" />
					<path id="Layer" class="shp38" d="M67.85 217.63C66.45 218.05 65.2 217.97 64.13 216.81C64.13 216.39 64.13 215.9 64.13 215.48C64.21 215.15 64.38 214.9 64.63 214.74C64.71 214.66 64.87 214.57 64.96 214.49C65.95 213.83 66.94 213.91 67.85 214.74C68.76 215.65 68.6 216.64 67.85 217.63Z" />
					<path id="Layer" class="shp39" d="M64.71 214.66C64.54 214.9 64.38 215.15 64.21 215.4C64.38 215.15 64.54 214.9 64.71 214.66Z" />
				</g>
			</g>
		</g>
	</g>
</svg>