<svg xmlns="http://www.w3.org/2000/svg" viewBox="0 0 120 300" width="120" height="300">
	<style>
		tspan { white-space:pre }
		.shp0 { fill: #ffffff } 
		.shp1 { fill: #000000 } 
		.shp2 { fill: #ff9900 } 
		.shp3 { fill: #fe9900 } 
		.shp4 { fill: #fefefe } 
		.shp5 { fill: #cccdcd } 
		.shp6 { fill: #f7f8f8 } 
		.shp7 { fill: #f9fafa } 
		.shp8 { fill: #cbcbcb } 
		.shp9 { fill: #f7fafa } 
		.shp10 { fill: #fc9902 } 
		.shp11 { fill: #fafbfb } 
		.shp12 { fill: #f1f4f4 } 
		.shp13 { fill: #fcfbf9 } 
		.shp14 { fill: #fbfcfc } 
		.shp15 { fill: #e6e7e7 } 
		.shp16 { fill: #e3e5e5 } 
		.shp17 { fill: #f6f9f9 } 
		.shp18 { fill: #f6f5f3 } 
		.shp19 { fill: #f59300 } 
		.shp20 { fill: #fcf7f4 } 
		.shp21 { fill: #f89702 } 
		.shp22 { fill: #e8e9e9 } 
		.shp23 { fill: #e48900 } 
		.shp24 { fill: #e5ecec } 
		.shp25 { fill: #f3f0f0 } 
		.shp26 { fill: #eaefef } 
		.shp27 { fill: #f5fafa } 
		.shp28 { fill: #f5efed } 
		.shp29 { fill: #eaeeee } 
		.shp30 { fill: #e5ebe6 } 
		.shp31 { fill: #ed8a03 } 
		.shp32 { fill: #e4e8e8 } 
		.shp33 { fill: #120e00 } 
		.shp34 { fill: #231f1f } 
		.shp35 { fill: #090808 } 
		.shp36 { fill: #1f1313 } 
		.shp37 { fill: #262121 } 
	</style>
	<g id="Layer">
		<g id="Layer">
			<g id="Layer">
				<g id="Layer">
					<path id="Layer" class="shp0" d="M82.78 52.79C87.39 61.73 88.57 70.74 86.51 80.26C85.93 83.04 85.05 85.68 83.73 88.17C82.78 89.85 81.46 90.8 79.56 90.88C78.02 90.95 76.48 90.95 75.02 90.95C73.77 91.02 73.48 91.24 73.48 92.34C73.48 96.44 73.48 100.55 73.48 104.65C73.48 105.38 73.92 105.67 74.58 105.67C76.48 105.6 78.31 105.75 80.07 106.48C81.9 107.21 83.29 108.38 83.95 110.29C84.17 110.95 84.54 111.61 84.68 112.26C85.05 114.24 86.07 115.49 87.83 116.51C89.59 117.54 90.47 119.44 91.13 121.35C92.15 124.57 92.3 127.79 91.71 131.09C91.28 133.65 89.96 135.7 87.91 137.17C86.73 137.97 86.29 139 86.07 140.32C85.78 142.29 85.27 144.2 84.76 146.1C83.95 149.4 81.75 151.3 78.53 152.04C78.09 152.11 77.65 152.25 77.14 152.33C76.48 152.47 76.11 152.77 76.26 153.5C76.48 154.6 76.41 155.84 77.21 156.8C78.24 158.04 78.53 159.51 78.46 161.12C78.38 162.14 78.82 162.88 79.48 163.61C81.39 165.73 82.49 168.3 83.37 171.01C84.98 175.77 86.07 180.67 86.81 185.65C88.49 197.08 88.42 208.51 87.83 220C87.69 222.79 87.54 225.64 87.47 228.43C87.39 233.7 86.59 238.9 85.93 244.1C85.64 246.45 84.32 248.28 82.19 249.37C81.17 249.89 80.95 250.62 81.02 251.65C81.17 253.04 81.24 254.43 81.31 255.82C81.68 260.73 82.05 265.63 82.41 270.47C82.71 274.35 81.46 277.57 78.75 280.28C74.65 284.39 70.11 287.9 65.13 290.68C60.37 293.39 55.17 293.1 50.33 290.54C48.72 289.66 47.18 288.49 45.79 287.24C44.77 286.29 43.89 285.7 42.42 285.92C40.52 286.22 38.69 285.85 36.86 285.34C30.7 283.65 26.89 278.23 27.63 271.86C27.85 269.88 28.51 267.98 29.02 266.07C29.46 264.46 29.75 263 29.68 261.31C29.46 257.58 30.12 253.84 31.58 250.33C31.88 249.67 32.1 249.01 32.46 248.42C32.75 247.84 32.61 247.25 32.17 246.88C30.56 245.42 30.34 243.52 30.04 241.54C29.17 234.65 29.17 227.77 29.39 220.88C29.82 209.09 30.41 197.3 32.61 185.65C33.71 180.09 35.02 174.67 37.81 169.69C38.17 169.1 38.39 168.37 38.83 167.86C39.93 166.46 40.88 165.07 40.37 163.09C40.22 162.58 40.44 161.92 40.59 161.41C41.54 158.55 42.5 155.7 43.59 152.84C43.89 152.11 43.89 151.52 43.67 150.86C43.23 149.33 42.72 147.71 42.5 146.1C42.06 142.51 42.86 139.07 44.77 136C45.64 134.53 46.08 133.14 45.64 131.38C45.28 130.06 45.43 128.6 45.43 127.21C45.35 117.98 45.35 108.75 45.35 99.45C45.35 99.23 45.21 99.08 45.13 98.86C44.25 98.64 43.96 99.45 43.52 99.89C39.71 102.82 34.73 102.96 30.78 100.25C28.58 98.71 27.11 96.88 26.16 94.32C22.94 85.38 19.5 76.6 16.2 67.73C15.32 65.32 14.44 62.9 13.64 60.48C12.1 55.79 13.42 51.69 16.79 48.25C18.62 46.42 20.89 45.61 23.45 45.69C24.48 45.76 25.21 45.54 25.94 44.73C31.14 38.73 37.44 34.11 43.96 29.79C55.31 22.25 67.62 16.54 80.51 12.29C85.05 10.82 89.74 9.87 94.42 8.85C96.48 8.41 98.6 8.19 100.65 8.04C103.43 7.75 105.34 9.07 105.92 11.56C106.07 12.29 106 13.17 105.78 13.9C105.41 15.22 104.9 16.61 104.24 17.78C99.41 26.57 94.79 35.58 89.08 43.86C87.1 46.93 84.98 49.79 82.78 52.79Z" />
					<path id="Layer" class="shp1" d="M78.31 53.23C83.44 60.55 84.61 68.39 83.51 76.67C83.22 78.87 82.63 81.06 82.12 83.19C81.9 84.07 81.39 84.94 81.09 85.75C80.51 87.22 79.48 87.95 77.8 87.87C76.26 87.8 74.72 87.8 73.26 87.8C72.67 87.8 72.09 87.65 71.5 87.73C70.11 87.8 69.67 88.31 69.67 89.71C69.67 94.25 69.67 98.86 69.67 103.4C69.67 105.01 69.67 106.7 69.74 108.31C69.74 109.11 70.25 109.63 71.06 109.63C72.6 109.63 74.14 109.63 75.6 109.7C76.55 109.77 77.43 109.85 78.38 110.07C79.56 110.36 80.51 111.09 80.87 112.34C81.31 113.88 81.83 115.49 82.19 117.03C82.41 117.98 82.71 118.71 83.95 118.93C85.93 119.22 86.95 120.61 87.61 122.37C88.71 125.3 88.64 128.38 88.05 131.38C87.76 133.07 86.59 134.38 85.05 135.04C83.58 135.63 83.22 136.58 83.07 137.97C82.78 139.8 82.34 141.63 81.97 143.47C81.83 144.05 81.68 144.64 81.53 145.15C80.66 147.86 79.26 149.03 76.48 149.11C74.72 149.18 72.96 148.96 71.21 148.96C70.84 148.96 70.4 149.18 70.11 149.47C69.96 149.62 70.18 150.13 70.33 150.35C70.69 150.79 71.21 151.16 71.43 151.67C72.01 152.84 72.67 154.01 72.82 155.18C73.04 156.8 72.96 158.33 74.43 159.51C75.24 160.24 75.09 161.48 74.8 162.51C74.5 163.61 74.87 164.27 75.6 165C78.09 167.27 79.41 170.35 80.36 173.5C82.34 180.01 83.66 186.68 84.1 193.42C84.76 202.79 84.76 212.09 84.17 221.47C83.95 224.25 84.1 227.11 83.88 229.89C83.51 234.51 82.93 239.19 82.41 243.81C82.19 245.35 81.17 246.45 79.78 246.88C77.29 247.62 77.14 249.16 77.43 251.43C78.09 257.21 78.46 263.07 78.9 268.93C78.97 269.88 78.97 270.84 79.04 271.71C79.19 273.98 78.38 275.89 76.92 277.5C75.67 278.89 74.28 280.21 72.82 281.31C70.25 283.36 67.62 285.26 64.91 287.17C60.73 290.02 56.34 289.95 51.94 287.68C50.33 286.8 48.79 285.63 47.55 284.24C46.3 282.77 45.13 282.33 43.3 282.63C42.06 282.85 40.74 282.77 39.42 282.63C34.59 282.11 30.7 278.38 31.22 273.11C31.44 271.05 32.02 269 32.61 266.95C33.12 265.27 33.41 263.66 33.27 261.83C32.83 256.77 34.44 252.16 37 247.84C37.66 246.74 37.59 246.66 36.56 245.93C36.34 245.79 36.2 245.64 35.98 245.57C34.44 244.69 33.93 243.44 33.71 241.61C32.68 233.55 32.75 225.5 33.19 217.44C33.49 212.53 33.78 207.63 34.15 202.72C34.59 196.57 35.32 190.34 36.64 184.34C37.95 178.11 39.93 172.1 44.25 167.2C44.69 166.68 44.77 166.17 44.47 165.59C43.52 163.68 44.03 162 45.21 160.31C45.57 159.8 46.01 159.07 45.94 158.48C45.86 156.58 46.45 155.04 47.7 153.65C48.35 152.91 48.21 152.18 47.77 151.45C46.89 149.76 46.3 148.01 46.08 146.1C45.79 142.81 46.6 139.8 48.5 137.17C49.53 135.7 49.75 134.31 49.53 132.63C49.16 129.04 48.94 125.37 48.94 121.79C48.87 111.75 48.94 101.64 48.94 91.61C48.94 90.8 48.94 90 48.94 89.12C48.94 88.39 48.5 88.09 47.84 88.09C47.04 88.09 46.16 88.02 45.43 88.24C43.96 88.61 43.3 89.49 43.3 91.02C43.3 91.46 43.37 91.98 43.37 92.42C43.45 95.13 42.28 97.18 39.93 98.42C37.37 99.74 35.02 99.37 32.75 97.69C31.22 96.52 30.12 95.2 29.46 93.37C25.36 82.31 21.26 71.25 17.15 60.12C16.05 57.11 16.71 54.33 18.84 51.99C20.52 50.08 22.57 49.2 25.14 50.01C26.02 50.3 26.68 50.3 27.26 49.5C31.36 44.15 36.56 39.97 42.06 36.09C56.34 26.06 71.94 18.66 88.86 14.19C92.59 13.24 96.4 12.58 100.28 12.29C100.72 12.21 101.24 12.21 101.68 12.21C102.26 12.21 102.77 12.8 102.55 13.46C102.12 14.78 101.68 16.17 101.02 17.34C97.5 23.71 94.13 30.16 90.4 36.31C87.39 41.22 83.95 45.76 80.66 50.52C79.78 51.25 79.04 52.21 78.31 53.23Z" />
					<path id="Layer" class="shp2" d="M41.84 268.49C39.93 267.76 38.91 266.22 38.03 264.61C37.59 263.88 37.51 262.85 37.44 261.97C37.37 256.77 39.05 252.16 42.13 247.98C44.11 248.5 46.01 249.16 47.92 249.45C53.12 250.25 58.39 250.55 63.59 250.11C65.42 249.96 67.32 249.89 69.16 249.81C72.45 254.58 72.74 260.07 72.6 265.49C72.53 267.83 69.89 269.08 67.25 268.86C65.79 268.71 64.61 267.91 63.3 267.47C62.27 266.51 61.32 265.63 60.29 264.68C59.41 263.88 59.12 263.07 59.85 261.97C60 261.75 59.78 260.95 59.56 260.8C59.34 260.65 58.68 260.8 58.39 261.02C57.29 261.83 56.34 262.78 55.24 263.66C53.34 264.46 51.8 265.93 49.97 266.88C47.48 268.13 44.77 268.86 41.84 268.49Z" />
					<path id="Layer" class="shp3" d="M61.54 129.48C58.61 129.77 55.75 130.43 53.26 131.97C52.68 132.33 52.16 131.97 52.16 131.23C52.16 129.48 52.31 127.72 52.31 125.96C52.38 114.39 52.38 102.82 52.38 91.24C52.38 90.44 52.31 89.56 52.46 88.83C52.53 88.46 52.97 88.09 53.26 87.95C53.56 87.8 53.92 87.87 54.29 87.87C56.34 87.95 58.46 88.09 60.51 88.17C61.54 90.14 60.88 92.27 60.88 94.32C60.88 98.42 61.17 102.52 61.76 106.55C61.83 106.84 62.12 107.14 62.27 107.36C62.49 107.06 62.86 106.77 62.93 106.4C63.15 105.75 63.3 105.09 63.44 104.43C65.27 107.58 64.61 110.8 63.96 114.1C62.49 115.63 62.42 113.73 61.47 112.92C61.98 114.17 63 114.61 63.37 115.41C64.18 120.32 63.22 124.94 61.54 129.48Z" />
					<path id="Layer" class="shp4" d="M39.93 89.63C39.64 90.88 39.42 92.2 38.91 93.37C38.17 95.05 36.05 95.42 34.88 94.1C34.15 93.22 33.63 92.12 33.19 91.1C29.68 82.16 26.24 73.23 22.79 64.36C22.13 62.61 21.4 60.85 20.6 59.24C19.79 57.7 20.01 56.31 20.74 54.92C21.77 53.01 23.23 52.64 25.06 53.82C26.53 54.7 27.41 55.94 27.99 57.63C31.29 66.71 34.73 75.79 38.1 84.87C38.54 85.97 39.05 87 39.42 88.09C39.64 88.46 39.79 89.05 39.93 89.63Z" />
					<path id="Layer" class="shp5" d="M67.11 83.7C60.88 84.07 53.77 83.99 50.85 83.48C51.87 82.09 53.19 81.14 54.29 80.04C55.46 78.87 56.63 77.77 57.8 76.6C58.98 75.42 60.07 74.25 61.25 73.08C62.27 71.98 63.3 70.88 64.32 69.71C65.42 68.54 66.52 67.29 67.62 66.05C68.72 64.8 69.82 63.63 71.06 62.24C71.57 62.83 72.09 63.34 72.38 63.85C73.84 66.56 74.36 69.56 74.72 72.64C74.87 73.81 75.09 74.91 75.38 76.08C75.6 76.81 75.75 76.81 76.85 76.08C77.87 78.72 76.92 80.48 74.36 81.58C72.09 82.45 69.52 82.75 67.11 83.7Z" />
					<path id="Layer" class="shp6" d="M52.75 245.93C58.17 244.76 62.93 243.66 67.69 242.64C67.91 242.56 68.13 242.56 68.35 242.49C70.55 241.68 72.74 240.95 74.94 240.15C75.89 237.95 76.04 235.68 76.26 233.33C76.85 227.77 77.43 222.2 77.87 216.64C78.02 214.58 77.87 212.46 77.87 210.34C77.87 209.16 77.87 207.99 77.95 206.82C78.02 206.38 78.31 205.94 78.6 205.65C78.82 205.43 79.26 205.36 79.56 205.43C79.85 205.5 80.14 205.87 80.14 206.09C80.22 206.89 80.22 207.7 80.22 208.51C80 213.85 79.85 219.27 79.63 224.62C79.48 228.57 79.26 232.53 79.12 236.56C79.04 238.17 79.12 239.85 79.34 241.46C79.41 242.34 79.04 242.78 78.38 243.08C75.89 244.25 73.26 244.69 70.62 245.13C65.27 245.93 59.93 246.37 54.58 246.08C54.14 246.15 53.63 246.01 52.75 245.93Z" />
					<path id="Layer" class="shp7" d="M71.72 167.12C74.14 168.51 75.24 170.71 75.89 173.06C78.38 181.99 79.92 191.07 80.07 200.38C80.07 200.74 80.07 201.11 80.07 201.4C80.07 202.06 79.7 202.5 79.04 202.57C74.65 203.09 70.47 204.62 65.93 204.62C61.76 204.55 57.51 204.55 53.34 204.48C52.97 204.48 52.53 204.4 52.16 204.11C53.77 203.89 55.31 203.67 56.92 203.52C60.59 203.16 64.03 202.13 67.47 201.03C70.11 200.16 72.82 199.35 75.45 198.47C76.41 198.18 76.85 197.67 76.77 196.71C76.7 193.93 76.85 191.07 76.63 188.29C76.33 185.07 75.89 181.77 75.38 178.55C74.8 175.11 73.84 171.74 72.31 168.51C72.16 168.08 71.94 167.56 71.72 167.12Z" />
					<path id="Layer" class="shp8" d="M64.18 150.5C62.42 152.25 60.15 152.77 57.8 152.84C54.36 152.91 52.09 151.3 50.77 148.08C49.82 145.66 49.82 143.32 50.85 140.9C52.02 138.27 53.7 136.14 56.41 134.97C63.08 136.21 65.71 140.17 64.25 146.69C63.96 148.01 64.03 149.25 64.18 150.5Z" />
					<path id="Layer" class="shp9" d="M97.28 15.29C96.48 16.76 96.04 17.85 95.38 18.66C94.86 19.17 93.99 19.47 93.25 19.69C90.4 20.42 87.54 20.86 84.76 21.66C75.38 24.45 66.67 28.47 58.61 34.04C57.66 34.7 56.7 35.29 55.61 36.02C55.09 34.85 54.73 33.89 54.21 32.8C67.54 24.89 81.83 19.32 97.28 15.29Z" />
					<path id="Layer" class="shp10" d="M57.36 273.55C57.36 271.27 57.8 269.22 58.83 267.17C59.19 267.32 59.41 267.39 59.56 267.54C61.9 270.18 64.91 271.64 68.13 272.74C69.23 273.11 70.4 273.25 71.5 273.55C72.09 273.69 73.04 273.25 73.26 274.13C73.33 274.57 72.82 275.16 72.38 275.52C71.28 276.47 70.03 277.43 68.86 278.31C68.64 278.38 68.42 278.45 68.2 278.53C61.54 282.33 58.76 281.02 57.36 273.55Z" />
					<path id="Layer" class="shp11" d="M67.11 83.7C67.54 82.97 68.2 82.6 69.01 82.31C70.99 81.72 72.89 80.99 74.87 80.33C75.6 80.11 76.04 79.74 76.19 78.94C76.33 77.91 76.63 76.96 76.85 75.94C78.16 69.93 76.55 64.66 73.18 59.53C73.99 58.5 74.72 57.55 75.6 56.45C76.77 57.41 77.21 58.65 77.65 59.75C78.75 62.31 79.41 65.1 79.63 67.88C80.07 72.79 79.92 77.69 79.12 82.53C78.9 83.77 78.82 83.85 77.58 83.85C74.14 84.14 70.62 84.29 67.11 83.7Z" />
					<path id="Layer" class="shp12" d="M60.73 56.97C58.54 55.21 57.51 53.08 56.63 51.03C55.31 47.96 54.07 44.73 52.9 41.58C51.87 39.02 50.99 38.44 48.43 39.39C46.67 39.97 44.91 40.78 43.45 41.88C40.3 44.29 37.3 46.86 34.29 49.5C32.9 50.74 31.58 52.13 30.26 53.38C30.12 53.45 29.82 53.45 29.68 53.38C29.6 53.3 29.53 52.94 29.6 52.86C30.78 51.4 31.8 49.86 33.12 48.54C38.61 43.05 44.84 38.58 51.43 34.48C52.31 33.97 52.68 34.04 53.04 34.92C55.53 41.73 58.02 48.47 60.51 55.28C60.51 55.65 60.59 56.09 60.73 56.97Z" />
					<path id="Layer" class="shp13" d="M62.86 114.61C63 114.32 63.3 114.02 63.37 113.73C63.44 110.65 63.52 107.58 63.59 104.43C63.81 100.33 64.03 96.3 64.18 92.2C64.25 91.17 64.25 90.07 64.25 89.05C64.25 88.46 64.4 87.8 65.2 87.95C66.01 88.02 65.86 88.75 65.93 89.27C65.93 89.41 65.93 89.49 65.93 89.63C65.93 102.38 65.93 115.05 65.93 127.79C65.93 130.36 65.86 130.72 63.22 129.84C62.93 129.77 62.71 129.7 62.42 129.62C62.12 129.55 61.83 129.48 61.54 129.48C61.61 128.08 61.69 126.69 61.83 125.3C62.34 121.79 63.22 118.27 62.86 114.61L62.86 114.61Z" />
					<path id="Layer" class="shp14" d="M64.18 150.5C63.44 150.35 62.78 149.98 62.93 149.11C63.08 148.08 63.15 146.98 63.59 146.1C65.71 141.56 62.2 138.12 59.12 136.51C58.24 136.07 57.07 136 56.48 134.97C58.39 133.5 60.59 133.29 62.78 133.65C66.15 134.16 67.91 135.7 68.42 139.36C69.01 143.76 67.98 147.71 64.18 150.5Z" />
					<path id="Layer" class="shp15" d="M42.28 242.2C43.23 237.66 43.45 233.48 43.74 229.31C44.25 222.06 44.77 214.8 44.25 207.55C44.25 207.11 44.33 206.6 44.4 206.16C44.47 206.02 44.77 205.94 44.99 205.87C45.06 205.87 45.21 205.94 45.21 206.02C45.43 206.53 45.72 207.11 45.72 207.63C45.72 209.6 45.79 211.58 45.64 213.56C44.99 223.01 45.21 232.53 45.43 241.98C45.43 242.71 45.5 243.37 45.5 244.1C45.5 244.32 44.99 244.69 44.77 244.69C42.06 244.39 39.57 243.37 37.3 241.83C36.42 241.24 36.71 240.37 36.93 239.63C37 239.41 37.51 239.19 37.66 239.27C38.69 239.85 39.64 240.51 40.59 241.17C41.1 241.46 41.47 241.68 42.28 242.2Z" />
					<path id="Layer" class="shp16" d="M43.74 200.38C44.84 197.15 44.84 193.93 45.28 190.85C46.16 184.41 47.04 177.89 48.57 171.52C48.65 171.08 48.79 170.64 48.87 170.13C49.31 168.59 49.38 168.59 51.5 169.1C50.04 173.28 48.72 177.52 47.99 181.92C46.89 188 46.08 194.15 46.01 200.3C46.01 201.03 46.01 201.69 45.94 202.43C45.86 203.31 45.43 203.6 44.47 203.31C43.01 202.87 41.54 202.43 40.15 201.91C38.39 201.33 38.32 201.11 38.47 199.42C38.61 197.45 38.98 197.3 40.74 198.4C41.62 199.13 42.64 199.72 43.74 200.38Z" />
					<path id="Layer" class="shp14" d="M58.24 160.02C56.7 159.95 55.31 159.87 53.92 159.73C52.9 159.58 51.87 159.29 50.92 158.92C49.31 158.33 49.09 157.38 50.11 155.92C50.55 155.26 51.06 155.04 51.87 155.4C57.22 157.97 62.05 156.87 66.52 153.28C66.96 152.91 67.4 152.4 67.98 152.77C68.94 153.35 69.89 155.77 69.45 156.8C69.23 157.31 68.79 157.89 68.35 158.04C66.59 158.7 64.83 159.29 63 159.65C61.39 159.95 59.78 159.87 58.24 160.02Z" />
					<path id="Layer" class="shp17" d="M56.63 166.02C55.02 166.02 53.34 166.1 51.72 166.02C50.7 165.95 49.67 165.66 48.65 165.29C48.14 165.15 47.62 164.71 47.26 164.27C46.74 163.68 46.67 163.02 47.11 162.36C47.55 161.63 48.14 161.48 48.87 161.85C51.94 163.17 55.17 163.39 58.46 163.31C62.78 163.24 67.11 163.02 70.77 160.17C71.06 159.87 71.57 160.38 71.72 160.9C71.94 161.7 71.57 162.29 71.13 162.8C70.33 163.83 69.23 164.56 67.91 164.78C65.49 165.22 63.08 165.73 60.66 166.02C59.49 166.1 58.02 165.95 56.63 166.02C56.63 165.95 56.63 165.95 56.63 166.02Z" />
					<path id="Layer" class="shp18" d="M63.37 267.32C64.03 267.39 64.76 267.54 65.42 267.61C66.37 267.69 67.25 267.91 68.2 267.83C71.43 267.61 72.09 266.95 71.87 263.73C71.79 261.61 71.5 259.56 71.06 257.5C70.55 254.87 69.82 252.3 69.23 249.67C69.74 249.45 70.33 249.16 70.84 249.08C71.35 249.01 71.94 249.08 72.67 249.08C72.82 250.47 72.96 251.87 73.11 253.26C73.55 258.75 73.99 264.24 74.36 269.66C74.5 271.2 74.14 271.49 72.53 271.27C69.16 270.69 66.01 269.59 63.37 267.32Z" />
					<path id="Layer" class="shp19" d="M48.14 279.55C50.41 276.4 52.53 273.4 54.73 270.4C55.53 270.54 55.24 271.13 55.17 271.49C54.51 275.3 54.36 279.11 55.09 282.99C55.17 283.29 55.02 283.73 54.8 283.87C54.58 284.02 54.07 283.95 53.85 283.73C51.94 282.33 50.11 280.94 48.14 279.55Z" />
					<path id="Layer" class="shp20" d="M57.36 273.55C57.88 274.72 58.39 275.89 58.98 276.99C60.44 279.84 62.2 280.58 65.27 279.62C66.52 279.26 67.69 278.75 68.86 278.38C68.13 278.97 67.47 279.55 66.74 280.14L66.67 280.21C65.27 281.24 63.88 282.33 62.42 283.21C61.47 283.8 60.37 284.24 59.27 284.6C58.1 284.97 57.66 284.6 57.44 283.29C56.92 280.06 56.41 276.84 57.36 273.55Z" />
					<path id="Layer" class="shp21" d="M36.71 276.47C35.54 275.6 35.32 274.28 35.46 273.03C35.61 271.05 35.9 269.08 36.2 266.73C37.66 268.05 38.76 269.22 40.01 270.18C41.32 271.13 42.79 271.86 44.18 272.67C42.79 275.67 40.37 276.91 36.71 276.47Z" />
					<path id="Layer" class="shp22" d="M72.09 188.95C72.01 189.54 72.01 189.9 71.94 190.27C71.79 190.93 71.13 191.44 70.4 191.44C69.74 191.37 69.23 191 69.16 190.41C68.94 189.17 68.64 187.85 68.72 186.61C69.08 182.06 67.76 177.89 66.08 173.79C65.93 173.42 65.93 172.91 65.93 172.47C65.93 172.4 66.08 172.25 66.15 172.25C66.37 172.18 66.67 172.1 66.81 172.18C67.11 172.4 67.32 172.62 67.47 172.98C68.13 174.37 68.79 175.69 69.23 177.16C70.11 180.09 70.84 183.02 71.57 185.95C71.79 186.83 71.94 188 72.09 188.95Z" />
					<path id="Layer" class="shp23" d="M78.02 117.1C79.12 119 79.19 120.69 78.9 122.45C78.6 123.91 78.46 125.45 78.24 126.91C78.02 128.89 78.16 130.87 78.97 132.7C79.85 134.6 79.7 136.58 78.9 138.49C78.82 138.7 78.38 138.85 78.16 139.07C78.02 138.85 77.73 138.56 77.65 138.34C77.36 136.73 76.92 135.12 76.85 133.5C76.7 130.21 76.63 126.99 76.63 123.69C76.55 121.57 77.43 119.52 78.02 117.1Z" />
					<path id="Layer" class="shp24" d="M50.26 195.91C50.33 194.52 50.77 193.49 51.65 192.61C52.31 191.95 53.04 191.81 53.85 192.03C54.36 192.17 54.95 192.39 55.46 192.61C57.22 193.34 58.17 195.03 57.88 196.71C57.58 198.4 55.97 199.86 54.29 200.01C52.68 200.16 51.28 199.13 50.63 197.37C50.41 196.86 50.33 196.35 50.26 195.91Z" />
					<path id="Layer" class="shp20" d="M41.84 268.49C42.2 268.27 42.57 267.98 43.01 267.91C46.23 267.76 49.01 266.59 51.65 264.83C52.38 264.32 53.19 263.88 54.07 263.51C54.43 263.36 54.95 263.51 55.31 263.51C53.7 265.49 52.09 267.39 50.55 269.44C49.75 270.47 48.79 270.84 47.55 270.69C45.43 270.47 43.52 269.74 41.84 268.49Z" />
					<path id="Layer" class="shp25" d="M75.97 114.24C75.6 115.78 75.24 117.32 74.87 118.93C74.36 120.91 74.36 120.91 72.31 120.91C69.52 120.98 69.23 120.69 69.74 117.98C70.62 113.58 71.06 113.29 75.53 113.95C75.67 113.95 75.75 114.02 75.97 114.24Z" />
					<path id="Layer" class="shp26" d="M57.29 214C57.29 215.61 56.27 216.86 54.73 217.66C53.26 218.39 51.5 218.1 50.55 217C49.6 215.83 49.38 214 50.41 212.83C51.21 211.87 52.31 211.14 53.41 210.56C53.92 210.26 54.8 210.48 55.39 210.78C56.7 211.29 57.29 212.39 57.29 214Z" />
					<path id="Layer" class="shp7" d="M73.26 132.85C72.01 132.85 70.91 132.85 69.52 132.85C69.3 131.45 69.67 130.06 69.6 128.74C69.6 127.35 69.6 125.96 69.74 124.57C69.74 124.28 70.33 123.91 70.69 123.84C71.35 123.76 72.09 123.76 72.74 123.91C73.04 123.98 73.55 124.5 73.55 124.79C73.62 126.99 73.55 129.26 73.55 131.45C73.48 131.89 73.33 132.33 73.26 132.85Z" />
					<path id="Layer" class="shp27" d="M70.55 135.34C71.35 135.26 72.09 135.12 72.74 135.19C73.11 135.26 73.62 135.63 73.77 135.92C74.5 138.85 75.24 141.78 75.97 144.86C74.43 144.86 73.11 144.86 71.5 144.86C72.09 141.56 71.87 138.49 70.55 135.34Z" />
					<path id="Layer" class="shp28" d="M36.71 276.47C39.49 275.82 42.2 274.94 44.18 272.67C45.21 272.74 46.23 272.81 47.26 272.89C45.79 278.6 40.52 279.77 36.71 276.47Z" />
					<path id="Layer" class="shp29" d="M64.76 45.25C63.37 45.32 62.27 44.29 62.2 43.05C62.2 41.66 63.37 40.41 64.83 40.34C66.08 40.27 67.32 41.37 67.4 42.68C67.4 44.08 66.37 45.17 64.76 45.25Z" />
					<path id="Layer" class="shp15" d="M51.14 50.96C51.14 52.35 49.97 53.52 48.72 53.45C47.55 53.38 46.6 52.28 46.6 51.11C46.6 49.71 47.7 48.62 49.01 48.69C50.26 48.69 51.14 49.64 51.14 50.96Z" />
					<path id="Layer" class="shp30" d="M80.44 126.11C80.51 125.23 80.51 124.28 80.66 123.4C80.73 122.81 81.31 122.37 81.9 122.52C82.41 122.59 83.07 122.81 83.29 123.18C84.02 124.35 84.1 125.81 83.88 127.21C82.27 128.52 81.39 127.13 80.44 126.11Z" />
					<path id="Layer" class="shp31" d="M80.44 126.11C81.53 126.77 82.63 127.21 83.88 127.13C83.88 127.94 83.95 128.74 83.88 129.55C83.8 130.43 83.15 130.94 82.34 131.16C81.83 131.31 81.39 131.23 81.17 130.79C80.58 129.33 80.14 127.72 80.44 126.11Z" />
					<path id="Layer" class="shp32" d="M65.2 182.36C65.05 182.8 64.98 183.31 64.76 183.68C64.47 184.26 63.52 184.56 62.93 184.26C61.9 183.68 61.25 182.06 61.83 180.97C62.05 180.53 62.71 180.09 63.15 180.09C63.66 180.09 64.25 180.38 64.61 180.82C64.91 181.11 64.98 181.77 65.2 182.36Z" />
					<path id="Layer" class="shp3" d="M62.42 129.7C62.71 129.77 62.93 129.84 63.22 129.92C62.93 129.77 62.64 129.77 62.42 129.7Z" />
					<path id="Layer" class="shp10" d="M66.74 280.21L66.67 280.06L66.81 280.06L66.89 280.21L66.74 280.21Z" />
					<path id="Layer" class="shp33" d="M62.86 114.61C62.05 114.61 61.17 115.05 60.66 114.17C60.37 113.73 60.15 113.14 60.15 112.56C60.15 111.68 60.81 111.09 61.69 111.02C62.49 110.95 63.15 111.61 63.15 112.56C63.08 113.29 62.93 113.95 62.86 114.61L62.86 114.61Z" />
					<path id="Layer" class="shp34" d="M72.67 71.76C72.67 72.35 72.67 72.49 72.6 72.57C72.31 73.3 71.94 73.96 71.65 74.69C70.55 74.54 70.55 73.67 70.33 72.93C70.03 71.69 69.74 70.44 69.6 69.2C69.52 68.83 69.89 68.32 70.18 68.1C70.77 67.66 71.43 68.1 71.57 68.61C72.09 69.78 72.45 70.96 72.67 71.76Z" />
					<path id="Layer" class="shp35" d="M54.43 143.25C54.43 141.93 55.39 140.24 57.07 139C57.51 138.7 58.1 138.56 58.68 138.49C59.71 138.41 60.44 139.58 59.93 140.39C59.56 140.98 58.98 141.41 58.68 142C58.39 142.59 58.1 143.25 58.02 143.91C57.95 144.64 58.17 145.3 58.9 145.66C59.56 145.96 60.22 146.1 60.81 146.4C61.54 146.69 61.54 147.57 60.88 148.08C59.34 149.33 57.58 149.33 56.19 148.01C54.95 147.05 54.36 145.66 54.43 143.25Z" />
					<path id="Layer" class="shp36" d="M53.56 194.88C54.65 194.88 55.61 195.76 55.53 196.79C55.46 197.74 54.73 198.4 53.7 198.47C52.53 198.54 51.65 197.67 51.72 196.57C51.8 195.61 52.6 194.88 53.56 194.88Z" />
					<path id="Layer" class="shp37" d="M53.48 212.46C54.58 212.39 55.61 213.34 55.53 214.29C55.46 215.02 54.65 215.76 53.85 215.83C52.68 215.9 51.58 215.1 51.58 214.15C51.58 213.34 52.46 212.46 53.48 212.46Z" />
				</g>
			</g>
		</g>
	</g>
</svg>