<svg xmlns="http://www.w3.org/2000/svg" viewBox="0 0 300 220" width="300" height="220">
	<style>
		tspan { white-space:pre }
		.shp0 { fill: #ffffff } 
		.shp1 { fill: #010000 } 
		.shp2 { fill: #fd9801 } 
		.shp3 { fill: #f8f9f9 } 
		.shp4 { fill: #f8fafa } 
		.shp5 { fill: #f0f6f2 } 
		.shp6 { fill: #f1f6f1 } 
		.shp7 { fill: #1a1313 } 
		.shp8 { fill: #fe9801 } 
		.shp9 { fill: #8c9b9b } 
		.shp10 { fill: #482f03 } 
		.shp11 { fill: #a56700 } 
		.shp12 { fill: #96620b } 
		.shp13 { fill: #000000 } 
		.shp14 { fill: #1b1a1a } 
		.shp15 { fill: #231e1e } 
	</style>
	<g id="Layer">
		<g id="Layer">
			<g id="Layer">
				<g id="Layer">
					<path id="Layer" class="shp0" d="M122.8 92.4C130.9 86 139.8 82.5 150 82.6C160.2 82.7 169 86.4 177 92.8C180.4 90.6 183.8 88.4 187.1 86.2C205.1 74.3 223.1 62.5 241.1 50.6C252.7 43 264.3 35.4 276 27.8C279.1 25.8 282.1 23.8 285.3 21.8C286.2 21.2 287.3 20.7 288.3 20.5C290.7 20 293.1 20.3 294.8 22.4C296.7 24.7 297.2 27.3 296.1 30C295.3 32.1 293.8 33.8 292.1 35.3C287.7 39.2 283.3 43.2 278.9 47.1C266.6 58.1 254.4 69 242 79.9C240.2 81.5 239.4 83.1 239.4 85.6C239.5 92.3 239.2 99 239 105.7C239 106.8 239.1 107.9 239.2 109C239.8 112.5 238.9 115.7 236.8 118.5C234.3 121.8 231.7 125 229.1 128.3C220.8 138.5 212.6 148.6 204.2 158.7C198.5 165.6 192.9 172.5 186.4 178.8C185.4 179.8 184.6 181 183.7 182.1C175 192.6 164.2 199.1 150.4 199.5C139.1 199.8 129 196.2 120.7 188.4C118 185.9 115.8 182.9 113.4 180.2C112.7 179.4 112.1 178.4 111.3 177.6C103.7 169.8 97 161.3 90.1 152.9C82.1 143.1 74.1 133.4 66.1 123.6C64.8 122 63.5 120.4 62.3 118.7C60.6 116.5 59.8 113.9 59.8 111.1C59.8 104.6 59.8 98 59.8 91.5C59.8 89.1 59.7 86.7 59.9 84.3C60.1 82.5 59.5 81.3 58.2 80.1C54 76.4 49.9 72.6 45.7 68.9C33.2 57.7 20.6 46.6 8.1 35.4C6.6 34 5.4 32.3 4.3 30.6C3.7 29.7 3.4 28.5 3.3 27.5C2.9 22.3 7.6 18.8 12.5 20.5C13.7 20.9 14.8 21.7 15.8 22.3C36.4 35.7 57 49.1 77.6 62.6C91.9 72 106.1 81.5 120.3 90.9C121.1 91.4 121.8 91.8 122.8 92.4Z" />
					<path id="Layer" class="shp1" d="M123.2 98.7C124.6 97.6 125.8 96.6 127.1 95.6C133.5 90.7 140.7 87.9 148.8 87.7C158.2 87.5 166.4 90.7 173.5 96.6C177 99.5 176 99.7 180.3 96.9C211 76.7 241.7 56.5 272.4 36.3C276.8 33.4 281.2 30.6 285.7 27.7C286.6 27.1 287.6 26.5 288.6 26C289.5 25.4 290.4 25.5 291.2 26.3C291.9 27.1 292 28.1 291.5 29C290.5 30.4 289.4 31.8 288.1 33C284.3 36.5 280.5 39.8 276.7 43.2C263.2 55.2 249.8 67.2 236.2 79.2C234.7 80.5 234.5 81.8 234.6 83.8C234.8 90.3 234.6 96.9 234.6 103.4C234.6 105.5 234.4 107.6 234.6 109.6C235 112.5 234.3 115 232.5 117.2C230.9 119.2 229.3 121.2 227.7 123.2C218.4 134.6 209 145.9 199.7 157.3C194.4 163.7 189.1 170.1 183.2 175.9C182.2 176.9 181.4 178.1 180.5 179.2C177.7 182.9 174.3 186.1 170.4 188.7C157.6 197 144.3 197.4 130.9 190.3C125.6 187.5 121.6 183.1 118 178.3C116.7 176.5 115.2 174.8 113.8 173.1C108.1 166.4 102.3 159.8 96.7 153.1C87.9 142.5 79.2 131.9 70.5 121.2C69.3 119.7 68.1 118.2 66.9 116.7C65.6 115.1 65.1 113.4 65.1 111.4C65.1 103.1 65.1 94.8 65.1 86.5C65.1 85.1 65.1 83.6 65.4 82.2C65.7 80.7 65.1 79.8 64.1 78.9C59.3 74.7 54.6 70.4 49.8 66.1C37.4 55.1 25 44 12.5 33C11.5 32.2 10.6 31.3 9.8 30.3C9.3 29.7 8.8 28.9 8.7 28.2C8.6 27.5 8.9 26.6 9.2 26C9.7 25.2 10.6 25.2 11.3 25.6C12.6 26.3 13.8 27 15 27.8C34.8 40.7 54.6 53.6 74.4 66.6C89.4 76.4 104.3 86.3 119.2 96.2C120.4 97.1 121.8 97.9 123.2 98.7Z" />
					<path id="Layer" class="shp0" d="M188.6 141.2C188.2 153.8 184.8 166.1 176.5 176.6C173.2 180.8 169.3 184.3 164.7 186.9C154.1 192.9 143.4 192.9 132.9 186.7C127.4 183.5 123.1 179.1 119.6 173.9C114.2 165.9 111.4 157.1 110.9 147.4C110.3 135.8 112.5 124.9 118.1 114.7C121.8 108 126.7 102.4 133.1 98.3C149 88.2 167.6 93.1 177.6 107.1C185.7 118.4 188.4 128.5 188.6 141.2Z" />
					<path id="Layer" class="shp0" d="M69.9 107.8C69.6 106.9 69 106.1 69 105.2C69 98.7 69.1 92.1 69.2 85.6C69.2 85.2 69.5 84.8 69.8 84.6C69.9 84.5 70.4 84.7 70.6 84.9C71.3 85.5 72.1 86.1 72.8 86.8C84.5 97.2 96.1 107.6 107.8 117.9C109.5 119.4 109.8 120.7 109.1 122.8C107.1 129.1 106.4 135.5 106.3 142.1C106.3 143 106.7 144 105.6 144.9C101.7 140.8 97.8 136.7 93.9 132.7C90.3 131.4 89.2 127.9 86.9 125.4L86.7 125.2C86.6 124.8 86.3 124.6 86 124.4L85.8 124.2C85.7 123.8 85.4 123.6 85 123.4L84.8 123.2C84.7 122.8 84.4 122.6 84 122.4L83.8 122.2C83.6 121.8 83.4 121.6 83 121.4L82.8 121.2C82.6 120.8 82.4 120.6 82 120.4L81.9 120.2C81.7 119.8 81.4 119.6 81.1 119.4L81 119.3C80.8 118.9 80.5 118.7 80.2 118.4L80.1 118.3C79.9 118 79.6 117.7 79.3 117.4L79.2 117.3C79 117 78.7 116.7 78.4 116.4L78.3 116.3C78.1 116 77.8 115.7 77.5 115.4L77.4 115.3C77.1 115 76.8 114.7 76.5 114.4L76.4 114.3C76.1 114 75.8 113.7 75.5 113.4L75.4 113.3C75.1 113 74.8 112.7 74.5 112.4L74.4 112.3C74.1 112 73.8 111.7 73.5 111.4L73.4 111.3C73.1 111 72.8 110.7 72.5 110.4L72.4 110.3C72.1 110 71.8 109.7 71.5 109.4L71.4 109.3C71.1 109 70.8 108.7 70.5 108.4L70.4 108.3C70.5 108.4 70.2 108.1 69.9 107.8Z" />
					<path id="Layer" class="shp0" d="M192.6 145.7C192.9 136.9 192.2 129.5 189.9 122.3C189.4 120.6 190.2 119.7 191.4 118.6C199.8 111.2 208.1 103.8 216.4 96.4C220 93.2 223.5 90 227.1 86.9C227.8 86.3 228.5 85.8 229.2 85.3C230.3 86 229.9 86.9 229.9 87.6C230 93 229.9 98.4 230.1 103.9C230.2 105.8 229.7 107.2 228.3 108.5C223.9 112.9 219.6 117.3 215.3 121.9C209 128.5 202.8 135.1 196.6 141.7C195.6 142.7 194.5 143.8 192.6 145.7Z" />
					<path id="Layer" class="shp2" d="M57.5 65.4C61.9 68.4 66.3 71.4 71 73.9C66 69.2 60.9 64.8 55.5 60.6C56.6 60.2 57.7 60.1 58.7 60.8C63.2 63.8 67.6 66.9 72.1 69.9C73.5 70.9 75 71.8 76.5 72.8C77.2 74 78.4 74.4 79.5 75.1L79.4 75.1C80.3 75.9 81.4 76.4 82.4 77.1L82.3 77C91.3 83.8 101.2 89.3 109.5 96.9C110.4 97.8 111.6 98.4 112.3 99.5C112.8 100.3 113.5 101.1 112.8 102.1C112.1 103 111.1 102.6 110.2 102.3C108.9 101.4 107.6 100.5 106.3 99.6C100 95 93.7 90.3 87.4 85.7C86.9 85.3 86.3 85.2 85.7 84.9C85.6 84.9 85.4 85.1 85.4 85.2C85.3 85.3 85.2 85.5 85.3 85.6C85.7 86.2 86.1 86.9 86.7 87.4C95 94.2 103.3 101 111.6 107.7C112.2 108.2 112.9 108.7 113.5 109.2C114.2 109.8 114.4 110.5 114 111.3C113.3 112.6 112.7 113.8 111.9 115.3C111.1 114.8 110.4 114.5 109.9 114C92.1 98.2 74.4 82.3 56.6 66.4C56.3 65.6 56.6 65.2 57.5 65.4Z" />
					<path id="Layer" class="shp2" d="M242.7 67.5C233.8 75.5 224.9 83.5 216 91.4C207.8 98.7 199.6 106 191.3 113.3C190.5 114 189.6 114.7 188.8 115.4C188.3 115.1 188 115 187.9 114.8C185.2 109.7 185.1 110.7 189.4 107.3C197.6 100.7 205.7 94 213.8 87.3C214.2 86.9 214.5 86.3 214.8 85.8C214.9 85.7 214.7 85.5 214.7 85.4C214.6 85.3 214.4 85 214.4 85.1C213.8 85.3 213.2 85.5 212.7 85.9C207.9 89.3 203.1 92.8 198.4 96.3C197.6 96.9 196.8 97.4 196 97.9C194.2 97.6 193.3 99.3 191.8 99.8C190.2 100.3 188.2 101.8 187.2 99.8C186.4 98.2 188.3 97.2 189.7 96.3C196 92.1 202.2 87.7 208.7 83.7C214.4 80.2 219.9 76.5 225.6 73C226.5 72.4 227.4 71.6 228.6 71.9C231.3 74.1 232.8 69.9 235.2 70.5C235.5 70.5 235.8 70.3 236 70.1C236.4 70 236.7 69.8 237 69.4L237.1 69.4C237.4 69.1 237.7 68.7 238.2 68.6C238.5 68.5 238.7 68.4 238.9 68.2C239.3 68.1 239.6 67.9 239.8 67.5C240.4 67.1 241.1 66.8 241.7 66.4C242.5 66.1 242.8 66.6 242.7 67.5Z" />
					<path id="Layer" class="shp3" d="M189.7 161.4C190.4 158.4 191.2 156.5 191.3 154.7C191.5 150.9 193.5 148.3 196 145.7C206.6 134.6 217.1 123.5 227.6 112.3C228.3 111.6 229 111 229.7 110.4C229.8 110.3 230.4 110.3 230.5 110.5C230.7 110.7 230.7 111.1 230.6 111.3C230.2 112 229.7 112.6 229.2 113.2C220.9 123.4 212.7 133.5 204.4 143.7C200.3 148.8 196.2 153.9 192.1 159C191.6 159.6 191 160.1 189.7 161.4Z" />
					<path id="Layer" class="shp4" d="M92.7 133.9C96.7 138.4 100.7 143 104.8 147.4C106.3 149 107.3 150.5 107.5 152.8C107.8 155.3 108.5 157.7 109.3 161C108 159.7 107.2 159.1 106.6 158.3C94.8 143.8 83.1 129.3 71.3 114.9C70.6 114.1 69.8 113.3 69 112.5C68.1 111.7 68.2 110.8 68.9 109.9C70.3 111.1 71.6 112.4 73 113.6C73.1 114 73.3 114.2 73.7 114.3L73.9 114.5C74 114.9 74.3 115.1 74.7 115.3L74.9 115.5C75.1 115.9 75.3 116.1 75.7 116.3L75.8 116.5C76 116.8 76.3 117.1 76.6 117.3L76.7 117.5C76.9 117.8 77.2 118.1 77.5 118.3L77.6 118.5C77.8 118.8 78.1 119.1 78.4 119.3L78.5 119.4C78.8 119.7 79 120 79.3 120.2L79.4 120.3C79.7 120.6 80 120.9 80.2 121.2L80.3 121.3C80.6 121.6 80.9 121.9 81.2 122.2L81.3 122.3C81.6 122.6 81.9 122.9 82.2 123.2L82.3 123.3C82.6 123.6 82.9 123.9 83.2 124.2L83.3 124.3C83.6 124.6 83.9 124.9 84.2 125.2L84.3 125.3C84.7 125.5 85 125.8 85.2 126.2L85.3 126.3C85.7 126.5 86 126.8 86.2 127.2L86.3 127.3C89.3 128.5 91.6 130.6 92.7 133.9Z" />
					<path id="Layer" class="shp5" d="M229.2 72.3C228.6 72.5 228 72.6 227.5 72.9C215.6 80.5 203.7 88.2 191.8 95.9C190.3 96.9 188.5 97.7 187.5 99.8C190.1 99.6 192 98.5 193.9 97.6C194.7 97.2 195.4 97.1 196 97.9C192 101 188.1 104.3 183.7 107.2C182.2 105.3 180.9 103.5 179.5 101.7C180.1 101.2 180.5 100.7 181 100.4C200.5 87.8 220 75.2 239.5 62.5C240.5 62.2 240.8 62.7 240.8 63.6C239.8 64.5 238.8 65.5 237.7 66.4C237.4 66.9 237 67.3 236.4 67.4C236.2 67.4 236 67.4 236 67.7C235.5 67.8 235.2 68.1 235 68.5L234.9 68.6C234.5 68.8 234.2 69.1 233.9 69.4L233.9 69.4C233.6 69.9 233.3 70.4 232.8 70.7C232.5 70.9 232.2 71.1 231.9 71.3C231.6 71.5 231.3 71.7 231 71.8C230.6 72 230.1 72.1 229.6 72.2C229.5 72.3 229.4 72.3 229.2 72.3Z" />
					<path id="Layer" class="shp6" d="M110.2 102.3C111 102.1 111.7 102 112.8 101.7C112.3 101.1 112.1 100.6 111.6 100.2C105.8 95.5 100.1 90.6 94.1 86C90.8 83.5 87.3 81.3 83.9 79C83.2 78.5 82.2 78.1 82.3 76.9C82.9 77.1 83.5 77.2 84 77.6C95.4 84.9 106.7 92.2 118.1 99.6C118.9 100.1 119.6 100.8 120.4 101.4C119 103.3 117.6 105 116.2 106.9C114 105.6 112.1 104 110.2 102.3Z" />
					<path id="Layer" class="shp7" d="M92.7 133.9C90.5 131.6 88.3 129.3 86.1 127.1C86.4 126.5 86.7 125.9 87.1 125.3C89.4 127.7 91.8 130.2 94.1 132.6C93.7 133 93.2 133.5 92.7 133.9Z" />
					<path id="Layer" class="shp8" d="M58.8 60.8C57.7 60.7 56.6 60.7 55.6 60.6C52.5 58.4 49.5 56.2 46 53.6C49 54 50.9 55.1 58.8 60.8Z" />
					<path id="Layer" class="shp0" d="M240.8 63.6C240.4 63.2 239.9 62.9 239.5 62.5C243.1 59.5 246.9 56.8 251.2 55L251.1 54.9C251 55.2 251.1 55.6 250.9 55.8C247.6 58.4 244.2 61 240.8 63.6Z" />
					<path id="Layer" class="shp8" d="M57.5 65.4C57.1 65.8 56.7 66.1 56.4 66.5C52.5 63.7 48.9 60.7 45.9 56.9L46 56.8C46.3 56.9 46.7 56.8 46.9 57C50.4 59.8 54 62.6 57.5 65.4Z" />
					<path id="Layer" class="shp2" d="M242.7 67.5C242.3 67.1 241.9 66.7 241.5 66.4C244.8 63.9 248 61.4 251.3 58.9C251.5 58.7 251.9 58.9 252.2 58.9L252.1 58.8C251.2 59.8 250.4 61 249.4 61.9C247.2 63.8 244.9 65.6 242.7 67.5Z" />
					<path id="Layer" class="shp2" d="M232.5 70.2C233 69.9 233.5 69.6 233.9 69.4C234.3 69.7 234.6 70.1 235 70.4C233.3 71.7 231.5 73.1 229.8 74.3C229.5 74.5 229 74.3 228.6 74.3C228.7 73.9 228.8 73.5 229 73C229.1 72.7 229.2 72.4 229.3 72.1L229.2 72.1C229.7 71.5 230.7 71.7 231.1 71L231 71.1C231.5 70.9 231.9 70.5 232.5 70.2Z" />
					<path id="Layer" class="shp2" d="M79.5 75.1C77.9 75.1 76.8 74.4 76.5 72.8C77.8 73.3 79 73.7 79.5 75.1Z" />
					<path id="Layer" class="shp6" d="M82.4 77.1C80.8 77.3 80.1 76.3 79.4 75.1C80.7 75.3 81.8 75.9 82.4 77.1Z" />
					<path id="Layer" class="shp7" d="M69 109.9C69 110.8 69 111.6 69.1 112.5C67.8 112 67.8 111 68.1 109.9C68.1 109.8 68.7 109.8 69 109.9Z" />
					<path id="Layer" class="shp9" d="M253.2 54.1C252.5 54.4 251.8 54.6 251.2 54.9L251.3 55C251.6 53.9 252.5 54.2 253.2 54.1L253.2 54.1Z" />
					<path id="Layer" class="shp7" d="M79.4 120.2C79.1 119.9 78.8 119.6 78.6 119.3C78.9 119.6 79.1 119.9 79.4 120.2Z" />
					<path id="Layer" class="shp7" d="M80.4 118.4C80.7 118.7 81 119 81.2 119.3C81 119 80.7 118.7 80.4 118.4Z" />
					<path id="Layer" class="shp7" d="M78.5 119.2C78.2 118.9 78 118.6 77.7 118.4C77.9 118.6 78.2 118.9 78.5 119.2Z" />
					<path id="Layer" class="shp7" d="M79.5 117.5C79.8 117.8 80.1 118.1 80.3 118.4C80 118 79.8 117.7 79.5 117.5Z" />
					<path id="Layer" class="shp7" d="M81.4 119.4C81.7 119.7 81.9 120 82.2 120.2C81.9 120 81.7 119.7 81.4 119.4Z" />
					<path id="Layer" class="shp7" d="M85.2 123.3C85.5 123.6 85.7 123.8 86 124.1C85.7 123.8 85.5 123.6 85.2 123.3Z" />
					<path id="Layer" class="shp7" d="M77.5 118.2C77.2 117.9 77 117.7 76.7 117.4C77 117.7 77.2 117.9 77.5 118.2Z" />
					<path id="Layer" class="shp7" d="M86.2 124.3C86.4 124.6 86.7 124.8 86.9 125.1C86.7 124.8 86.4 124.5 86.2 124.3Z" />
					<path id="Layer" class="shp7" d="M85.1 126C84.8 125.7 84.5 125.4 84.2 125.1C84.5 125.4 84.8 125.7 85.1 126Z" />
					<path id="Layer" class="shp7" d="M78.5 116.5C78.8 116.8 79.1 117.1 79.3 117.4C79.1 117.1 78.8 116.8 78.5 116.5Z" />
					<path id="Layer" class="shp7" d="M76.6 117.2C76.3 116.9 76.1 116.7 75.8 116.4C76 116.7 76.3 117 76.6 117.2Z" />
					<path id="Layer" class="shp7" d="M77.6 115.5C77.9 115.8 78.2 116.1 78.4 116.4C78.1 116.1 77.9 115.8 77.6 115.5Z" />
					<path id="Layer" class="shp7" d="M75.6 116.3C75.3 116 75.1 115.7 74.8 115.5C75.1 115.7 75.4 116 75.6 116.3Z" />
					<path id="Layer" class="shp7" d="M76.6 114.5C76.9 114.8 77.2 115.1 77.5 115.4C77.2 115.1 76.9 114.8 76.6 114.5Z" />
					<path id="Layer" class="shp7" d="M74.7 115.2C74.4 114.9 74.2 114.7 73.9 114.4C74.2 114.7 74.4 115 74.7 115.2Z" />
					<path id="Layer" class="shp7" d="M75.7 113.6C76 113.9 76.3 114.2 76.6 114.5C76.3 114.1 76 113.8 75.7 113.6Z" />
					<path id="Layer" class="shp7" d="M73.7 114.2C73.5 114 73.3 113.7 73 113.5C73.3 113.8 73.5 114 73.7 114.2Z" />
					<path id="Layer" class="shp7" d="M83.2 124.1C82.9 123.8 82.6 123.5 82.3 123.2C82.6 123.5 82.9 123.8 83.2 124.1Z" />
					<path id="Layer" class="shp7" d="M73.8 111.6C74.1 111.9 74.4 112.2 74.7 112.5C74.3 112.2 74.1 111.9 73.8 111.6Z" />
					<path id="Layer" class="shp7" d="M72.8 110.7C73.1 111 73.4 111.3 73.7 111.6C73.4 111.3 73.1 111 72.8 110.7Z" />
					<path id="Layer" class="shp7" d="M71.9 109.7C72.2 110 72.5 110.3 72.8 110.6C72.4 110.3 72.1 110 71.9 109.7Z" />
					<path id="Layer" class="shp7" d="M70.9 108.7C71.2 109 71.5 109.3 71.8 109.6C71.5 109.3 71.2 109 70.9 108.7Z" />
					<path id="Layer" class="shp7" d="M80.4 121.2C80.1 120.9 79.8 120.6 79.6 120.3C79.8 120.6 80.1 120.9 80.4 121.2Z" />
					<path id="Layer" class="shp7" d="M86.1 127C85.8 126.7 85.5 126.4 85.2 126.1C85.5 126.4 85.8 126.7 86.1 127Z" />
					<path id="Layer" class="shp7" d="M69.9 107.8C70.2 108.1 70.5 108.4 70.8 108.7C70.5 108.4 70.2 108.1 69.9 107.8Z" />
					<path id="Layer" class="shp10" d="M236.5 67.4C236.9 67.1 237.3 66.7 237.8 66.4C237.3 66.7 236.9 67.1 236.5 67.4Z" />
					<path id="Layer" class="shp7" d="M82.3 120.4C82.6 120.7 82.8 120.9 83.1 121.2C82.9 120.9 82.6 120.7 82.3 120.4Z" />
					<path id="Layer" class="shp10" d="M235 68.5C235.3 68.2 235.7 68 236 67.7C235.7 67.9 235.4 68.2 235 68.5Z" />
					<path id="Layer" class="shp10" d="M239.6 67.5C239.3 67.7 239 68 238.7 68.2C239 67.9 239.3 67.7 239.6 67.5Z" />
					<path id="Layer" class="shp11" d="M252.2 58.9C252.3 58.7 252.4 58.4 252.5 58.2C253.3 58.9 252.4 58.7 252.2 58.9C252.2 58.8 252.2 58.9 252.2 58.9Z" />
					<path id="Layer" class="shp10" d="M234 69.4C234.3 69.1 234.6 68.8 235 68.6C234.6 68.8 234.3 69.1 234 69.4Z" />
					<path id="Layer" class="shp10" d="M238 68.6C237.6 68.9 237.3 69.1 236.9 69.4C237.2 69.1 237.6 68.8 238 68.6Z" />
					<path id="Layer" class="shp12" d="M45.9 56.9C45.7 56.8 45.5 56.6 45.3 56.5C45.8 55.9 45.9 56.5 46 56.8C46 56.9 45.9 56.9 45.9 56.9Z" />
					<path id="Layer" class="shp7" d="M84.2 125.1C83.9 124.8 83.6 124.5 83.3 124.2C83.6 124.5 83.9 124.8 84.2 125.1Z" />
					<path id="Layer" class="shp9" d="M253.3 54.2C253.3 54.1 253.3 54 253.3 53.9C253.3 54 253.2 54 253.3 54.2C253.2 54.1 253.3 54.2 253.3 54.2Z" />
					<path id="Layer" class="shp10" d="M236.8 69.4C236.5 69.6 236.2 69.8 235.8 70.1C236.1 69.9 236.5 69.6 236.8 69.4Z" />
					<path id="Layer" class="shp7" d="M81.3 122.1C81 121.8 80.7 121.5 80.4 121.2C80.7 121.6 81 121.8 81.3 122.1Z" />
					<path id="Layer" class="shp7" d="M83.3 121.4C83.6 121.7 83.8 121.9 84.1 122.2C83.8 121.9 83.5 121.6 83.3 121.4Z" />
					<path id="Layer" class="shp7" d="M82.3 123.1C82 122.8 81.7 122.5 81.4 122.2C81.7 122.5 82 122.8 82.3 123.1Z" />
					<path id="Layer" class="shp7" d="M84.2 122.4C84.5 122.7 84.7 122.9 85 123.2C84.8 122.9 84.5 122.6 84.2 122.4Z" />
					<path id="Layer" class="shp7" d="M74.7 112.6C75 112.9 75.3 113.2 75.6 113.5C75.3 113.2 75 112.9 74.7 112.6Z" />
					<path id="Layer" class="shp13" d="M145.7 137.1C145.9 135.2 146 133.3 146.3 131.5C146.8 128.2 147.4 124.9 147.9 121.6C148 120.8 148 120 147.9 119.2C147.7 118.2 147 117.4 145.9 117.5C145.2 117.6 144.3 118 143.9 118.5C143.4 119.2 143.2 120.2 143 121.2C142.2 126.2 141.5 131.3 140.7 136.3C140.6 136.8 140.4 137.2 140.2 137.6C140 137.8 139.7 138.1 139.5 138.1C139.3 138.1 138.9 137.8 138.8 137.6C138.5 136.9 138.2 136.1 138.2 135.4C138.2 133.2 138.3 130.9 138.4 128.7C138.4 127.6 138.5 126.5 138.3 125.4C138.2 124.9 137.6 124.1 137.2 124.1C136.5 124.1 135.6 124.4 135.2 124.9C134.7 125.6 134.3 126.6 134.2 127.5C133.9 131.5 133.6 135.5 133.7 139.5C133.8 141.9 133.9 144.3 133.3 146.6C132.3 150.2 132.2 153.8 132.2 157.5C132.2 161.4 131.3 165.1 129.4 168.5C129.1 169 128.7 169.5 128.1 170.2C126.1 166.8 125.4 163.2 124.7 159.6C123.7 154.6 123.6 149.4 123.5 144.3C123.4 138.4 123.5 132.5 124.6 126.6C125.4 122.5 126.6 118.5 128.6 114.9C132.5 107.8 138.4 103.8 146.4 102.7C150.6 102.1 154.7 102.3 158.8 103.1C165.8 104.4 170.6 108.5 173.3 115C175 119.2 175.9 123.5 176.4 128C177.2 135.8 177.3 143.6 176.4 151.5C175.9 156.3 174.9 161 173.1 165.4C169.5 174.4 162.8 179.4 153.2 180.4C148.9 180.8 144.6 180.8 140.1 179.4C141.4 175.4 142.8 171.6 145.4 168.4C146.5 167.1 148 166 149.4 165.1C151.6 163.7 153.9 162.7 156.1 161.3C157.6 160.4 159.2 159.4 160.2 158.1C162.4 155.2 165.4 153.4 168.1 151.2C168.7 150.7 169.5 150.4 170.1 149.9C171 149.2 172.2 148.5 171.6 147.3C171.1 146.2 169.9 146 168.7 145.9C166.5 145.7 164.7 146.6 162.9 147.9C161.2 149.1 159.6 150.3 157.8 151.5C156.8 152.1 155.9 151.5 156 150.3C156.1 146.4 157.1 142.7 158.6 139.2C160.3 135.1 162 131 163.7 126.8C164.2 125.6 164.5 124.4 164.7 123.1C164.8 122.1 164.1 121.3 163.2 120.9C162.1 120.4 161.3 121 160.7 121.8C160.1 122.7 159.6 123.8 159.2 124.8C157.7 128.7 156.2 132.5 154.7 136.4C154.1 138 152.7 138.9 152.5 138.3C152.3 137.4 152.2 136.4 152.5 135.6C153.9 130.2 155.3 124.8 156.7 119.4C157.1 117.8 156.7 117 155.3 116.3C154.4 115.9 153.2 116.1 152.8 116.9C152.3 117.9 151.9 118.9 151.6 120C150.2 125.2 148.9 130.5 147.5 135.7C147.3 136.3 146.7 136.9 146.3 137.5C146.1 137.2 145.9 137.2 145.7 137.1Z" />
					<path id="Layer" class="shp14" d="M184.8 150C184.6 153.5 183.7 157.9 182 162.1C181.7 162.8 181 163.3 180.4 163.8C180.2 163.9 179.4 163.7 179.3 163.5C179.1 162.9 178.9 162.3 179 161.7C179.2 160.6 179.5 159.5 179.8 158.5C180.8 154.7 182 150.8 182.1 146.8C182.1 146.1 182.6 145.3 183.1 144.9C183.5 144.5 184.4 145.6 184.6 146.8C184.6 147.1 184.7 147.4 184.7 147.7C184.9 148.1 184.8 148.6 184.8 150Z" />
					<path id="Layer" class="shp15" d="M183.6 136.7C182.5 136.7 181.7 135.8 181.7 134.5C181.7 133.2 182.6 132.3 183.7 132.4C184.8 132.5 185.7 133.4 185.6 134.6C185.6 135.8 184.7 136.7 183.6 136.7Z" />
					<path id="Layer" class="shp2" d="M231.1 71.2C230.7 72.1 230.1 72.5 229.2 72.3C229.4 71.4 230.1 71.1 231.1 71.2Z" />
					<path id="Layer" class="shp2" d="M232.5 70.2C232 70.5 231.5 70.9 231 71.2C231.1 70.4 231.7 70.2 232.5 70.2Z" />
				</g>
			</g>
		</g>
	</g>
</svg>