<svg xmlns="http://www.w3.org/2000/svg" viewBox="0 0 200 120" width="200" height="120">
	<style>
		tspan { white-space:pre }
		.shp0 { fill: #ffffff } 
		.shp1 { fill: #010000 } 
		.shp2 { fill: #fd9801 } 
		.shp3 { fill: #f8f9f9 } 
		.shp4 { fill: #f8fafa } 
		.shp5 { fill: #f0f6f2 } 
		.shp6 { fill: #f1f6f1 } 
		.shp7 { fill: #1a1313 } 
		.shp8 { fill: #fe9801 } 
		.shp9 { fill: #8c9b9b } 
		.shp10 { fill: #482f03 } 
		.shp11 { fill: #a56700 } 
		.shp12 { fill: #96620b } 
		.shp13 { fill: #000000 } 
		.shp14 { fill: #1b1a1a } 
		.shp15 { fill: #231e1e } 
	</style>
	<g id="Layer">
		<g id="Layer">
			<g id="Layer">
				<g id="Layer">
					<path id="Layer" class="shp0" d="M80.79 47.71C86.46 43.22 92.7 40.77 99.85 40.84C107 40.91 113.17 43.5 118.78 47.99C121.16 46.44 123.55 44.9 125.86 43.36C138.48 35.02 151.1 26.75 163.72 18.4C171.85 13.08 179.98 7.75 188.18 2.42C190.35 1.02 192.46 -0.38 194.7 -1.79C195.33 -2.21 196.1 -2.56 196.8 -2.7C198.49 -3.05 200.17 -2.84 201.36 -1.36C202.69 0.25 203.04 2.07 202.27 3.96C201.71 5.44 200.66 6.63 199.47 7.68C196.38 10.41 193.3 13.22 190.21 15.95C181.59 23.66 173.04 31.3 164.35 38.94C163.09 40.07 162.52 41.19 162.52 42.94C162.59 47.64 162.38 52.33 162.24 57.03C162.24 57.8 162.31 58.57 162.38 59.34C162.8 61.8 162.17 64.04 160.7 66C158.95 68.32 157.13 70.56 155.3 72.87C149.49 80.02 143.74 87.1 137.85 94.18C133.85 99.02 129.93 103.86 125.37 108.27C124.67 108.97 124.11 109.82 123.48 110.59C117.38 117.95 109.81 122.5 100.13 122.78C92.21 123 85.13 120.47 79.31 115C77.42 113.25 75.88 111.15 74.2 109.26C73.71 108.69 73.29 107.99 72.72 107.43C67.4 101.96 62.7 96.01 57.86 90.12C52.26 83.25 46.65 76.45 41.04 69.58C40.13 68.46 39.22 67.33 38.38 66.14C37.18 64.6 36.62 62.78 36.62 60.82C36.62 56.26 36.62 51.63 36.62 47.08C36.62 45.39 36.55 43.71 36.69 42.03C36.83 40.77 36.41 39.93 35.5 39.08C32.56 36.49 29.68 33.83 26.74 31.23C17.98 23.38 9.14 15.6 0.38 7.75C-0.67 6.77 -1.51 5.58 -2.28 4.38C-2.7 3.75 -2.91 2.91 -2.98 2.21C-3.27 -1.43 0.03 -3.89 3.46 -2.7C4.31 -2.42 5.08 -1.86 5.78 -1.43C20.22 7.96 34.66 17.35 49.1 26.82C59.13 33.41 69.08 40.07 79.03 46.65C79.59 47.01 80.09 47.29 80.79 47.71Z" />
					<path id="Layer" class="shp1" d="M81.07 52.12C82.05 51.35 82.89 50.65 83.8 49.95C88.29 46.51 93.33 44.55 99.01 44.41C105.6 44.27 111.35 46.51 116.33 50.65C118.78 52.68 118.08 52.82 121.09 50.86C142.62 36.7 164.14 22.54 185.66 8.38C188.74 6.35 191.83 4.38 194.98 2.35C195.61 1.93 196.31 1.51 197.01 1.16C197.65 0.74 198.28 0.81 198.84 1.37C199.33 1.93 199.4 2.63 199.05 3.26C198.35 4.24 197.58 5.23 196.66 6.07C194 8.52 191.34 10.83 188.67 13.22C179.21 21.63 169.82 30.04 160.28 38.45C159.23 39.36 159.09 40.28 159.16 41.68C159.3 46.23 159.16 50.86 159.16 55.42C159.16 56.89 159.02 58.36 159.16 59.76C159.44 61.8 158.95 63.55 157.69 65.09C156.57 66.49 155.44 67.9 154.32 69.3C147.8 77.29 141.21 85.21 134.69 93.2C130.98 97.69 127.26 102.18 123.13 106.24C122.43 106.94 121.87 107.78 121.23 108.55C119.27 111.15 116.89 113.39 114.15 115.21C105.18 121.03 95.86 121.31 86.46 116.34C82.75 114.37 79.95 111.29 77.42 107.92C76.51 106.66 75.46 105.47 74.48 104.28C70.48 99.58 66.42 94.95 62.49 90.26C56.32 82.83 50.22 75.4 44.12 67.9C43.28 66.84 42.44 65.79 41.6 64.74C40.69 63.62 40.34 62.43 40.34 61.03C40.34 55.21 40.34 49.39 40.34 43.57C40.34 42.59 40.34 41.54 40.55 40.56C40.76 39.5 40.34 38.87 39.64 38.24C36.27 35.3 32.98 32.28 29.61 29.27C20.92 21.56 12.23 13.78 3.46 6.07C2.76 5.51 2.13 4.87 1.57 4.17C1.22 3.75 0.87 3.19 0.8 2.7C0.73 2.21 0.94 1.58 1.15 1.16C1.5 0.6 2.13 0.6 2.62 0.88C3.53 1.37 4.38 1.86 5.22 2.42C19.1 11.46 32.98 20.51 46.86 29.62C57.37 36.49 67.82 43.43 78.26 50.37C79.1 51 80.09 51.56 81.07 52.12Z" />
					<path id="Layer" class="shp0" d="M126.91 81.92C126.63 90.75 124.25 99.37 118.43 106.73C116.12 109.68 113.38 112.13 110.16 113.95C102.73 118.16 95.23 118.16 87.87 113.81C84.01 111.57 81 108.48 78.54 104.84C74.76 99.23 72.79 93.06 72.44 86.26C72.02 78.13 73.57 70.49 77.49 63.34C80.09 58.64 83.52 54.72 88.01 51.84C99.15 44.76 112.19 48.2 119.2 58.01C124.88 65.93 126.77 73.01 126.91 81.92Z" />
					<path id="Layer" class="shp0" d="M43.7 58.5C43.49 57.87 43.07 57.31 43.07 56.68C43.07 52.12 43.14 47.5 43.21 42.94C43.21 42.66 43.42 42.38 43.63 42.24C43.7 42.17 44.05 42.31 44.19 42.45C44.68 42.87 45.25 43.29 45.74 43.78C53.94 51.07 62.07 58.36 70.27 65.58C71.46 66.63 71.67 67.55 71.18 69.02C69.78 73.43 69.29 77.92 69.22 82.55C69.22 83.18 69.5 83.88 68.73 84.51C66 81.64 63.26 78.76 60.53 75.96C58 75.05 57.23 72.59 55.62 70.84L55.48 70.7C55.41 70.42 55.2 70.28 54.99 70.14L54.85 70C54.78 69.72 54.57 69.58 54.29 69.44L54.15 69.3C54.08 69.02 53.87 68.88 53.59 68.74L53.45 68.6C53.31 68.32 53.17 68.18 52.89 68.04L52.75 67.9C52.61 67.62 52.47 67.47 52.19 67.33L52.12 67.19C51.97 66.91 51.76 66.77 51.55 66.63L51.48 66.56C51.34 66.28 51.13 66.14 50.92 65.93L50.85 65.86C50.71 65.65 50.5 65.44 50.29 65.23L50.22 65.16C50.08 64.95 49.87 64.74 49.66 64.53L49.59 64.46C49.45 64.25 49.24 64.04 49.03 63.83L48.96 63.76C48.75 63.55 48.54 63.34 48.33 63.13L48.26 63.06C48.05 62.85 47.84 62.64 47.63 62.43L47.56 62.36C47.35 62.15 47.14 61.94 46.93 61.73L46.86 61.66C46.65 61.45 46.44 61.24 46.23 61.03L46.16 60.96C45.95 60.75 45.74 60.53 45.53 60.32L45.46 60.25C45.25 60.04 45.03 59.83 44.82 59.62L44.75 59.55C44.54 59.34 44.33 59.13 44.12 58.92L44.05 58.85C44.12 58.92 43.91 58.71 43.7 58.5Z" />
					<path id="Layer" class="shp0" d="M129.72 85.07C129.93 78.9 129.44 73.71 127.82 68.67C127.47 67.47 128.03 66.84 128.88 66.07C134.76 60.89 140.58 55.7 146.4 50.51C148.92 48.27 151.38 46.02 153.9 43.85C154.39 43.43 154.88 43.08 155.37 42.73C156.15 43.22 155.86 43.85 155.86 44.34C155.94 48.13 155.86 51.91 156.01 55.77C156.08 57.1 155.72 58.08 154.74 58.99C151.66 62.08 148.64 65.16 145.63 68.39C141.21 73.01 136.87 77.64 132.52 82.27C131.82 82.97 131.05 83.74 129.72 85.07Z" />
					<path id="Layer" class="shp2" d="M35.01 28.78C38.09 30.88 41.18 32.99 44.47 34.74C40.97 31.44 37.39 28.36 33.61 25.41C34.38 25.13 35.15 25.06 35.85 25.55C39.01 27.66 42.09 29.83 45.25 31.93C46.23 32.63 47.28 33.27 48.33 33.97C48.82 34.81 49.66 35.09 50.43 35.58L50.36 35.58C50.99 36.14 51.76 36.49 52.47 36.98L52.4 36.91C58.7 41.68 65.64 45.53 71.46 50.86C72.09 51.49 72.94 51.91 73.43 52.68C73.78 53.24 74.27 53.81 73.78 54.51C73.29 55.14 72.58 54.86 71.95 54.65C71.04 54.02 70.13 53.38 69.22 52.75C64.8 49.53 60.39 46.23 55.97 43.01C55.62 42.73 55.2 42.66 54.78 42.45C54.71 42.45 54.57 42.59 54.57 42.66C54.5 42.73 54.43 42.87 54.5 42.94C54.78 43.36 55.06 43.85 55.48 44.2C61.3 48.97 67.12 53.74 72.94 58.43C73.36 58.78 73.85 59.13 74.27 59.48C74.76 59.9 74.9 60.39 74.62 60.96C74.13 61.87 73.71 62.71 73.15 63.76C72.58 63.41 72.09 63.2 71.74 62.85C59.27 51.77 46.86 40.63 34.38 29.48C34.17 28.92 34.38 28.64 35.01 28.78Z" />
					<path id="Layer" class="shp2" d="M164.84 30.25C158.6 35.86 152.36 41.47 146.12 47.01C140.37 52.12 134.62 57.24 128.81 62.36C128.25 62.85 127.61 63.34 127.05 63.83C126.7 63.62 126.49 63.55 126.42 63.41C124.53 59.83 124.46 60.53 127.47 58.15C133.22 53.52 138.9 48.83 144.58 44.13C144.86 43.85 145.07 43.43 145.28 43.08C145.35 43.01 145.21 42.87 145.21 42.8C145.14 42.73 145 42.52 145 42.59C144.58 42.73 144.16 42.87 143.81 43.15C140.44 45.53 137.08 47.99 133.78 50.44C133.22 50.86 132.66 51.21 132.1 51.56C130.84 51.35 130.21 52.54 129.16 52.89C128.03 53.24 126.63 54.3 125.93 52.89C125.37 51.77 126.7 51.07 127.68 50.44C132.1 47.5 136.45 44.41 141 41.61C145 39.15 148.85 36.56 152.85 34.11C153.48 33.69 154.11 33.13 154.95 33.34C156.85 34.88 157.9 31.93 159.58 32.35C159.79 32.35 160 32.21 160.14 32.07C160.42 32 160.63 31.86 160.84 31.58L160.91 31.58C161.12 31.37 161.33 31.09 161.68 31.02C161.89 30.95 162.03 30.88 162.17 30.74C162.45 30.67 162.66 30.53 162.8 30.25C163.23 29.97 163.72 29.76 164.14 29.48C164.7 29.27 164.91 29.62 164.84 30.25Z" />
					<path id="Layer" class="shp3" d="M127.68 96.08C128.17 93.97 128.74 92.64 128.81 91.38C128.95 88.72 130.35 86.89 132.1 85.07C139.53 77.29 146.89 69.51 154.25 61.66C154.74 61.17 155.23 60.75 155.72 60.32C155.79 60.25 156.22 60.25 156.29 60.39C156.43 60.53 156.43 60.82 156.36 60.96C156.08 61.45 155.72 61.87 155.37 62.29C149.56 69.44 143.81 76.52 137.99 83.67C135.11 87.24 132.24 90.82 129.37 94.39C129.02 94.81 128.6 95.17 127.68 96.08Z" />
					<path id="Layer" class="shp4" d="M59.69 76.8C62.49 79.95 65.29 83.18 68.17 86.26C69.22 87.38 69.92 88.44 70.06 90.05C70.27 91.8 70.76 93.48 71.32 95.8C70.41 94.88 69.85 94.46 69.43 93.9C61.16 83.74 52.96 73.57 44.68 63.48C44.19 62.92 43.63 62.36 43.07 61.8C42.44 61.24 42.51 60.61 43 59.97C43.98 60.82 44.89 61.73 45.88 62.57C45.95 62.85 46.09 62.99 46.37 63.06L46.51 63.2C46.58 63.48 46.79 63.62 47.07 63.76L47.21 63.9C47.35 64.18 47.49 64.32 47.77 64.46L47.84 64.6C47.98 64.81 48.19 65.02 48.4 65.16L48.47 65.3C48.61 65.51 48.82 65.72 49.03 65.86L49.1 66C49.24 66.21 49.45 66.42 49.66 66.56L49.73 66.63C49.94 66.84 50.08 67.05 50.29 67.19L50.36 67.26C50.57 67.47 50.78 67.69 50.92 67.9L50.99 67.97C51.2 68.18 51.41 68.39 51.62 68.6L51.69 68.67C51.9 68.88 52.12 69.09 52.33 69.3L52.4 69.37C52.61 69.58 52.82 69.79 53.03 70L53.1 70.07C53.31 70.28 53.52 70.49 53.73 70.7L53.8 70.77C54.08 70.91 54.29 71.12 54.43 71.4L54.5 71.47C54.78 71.61 54.99 71.82 55.13 72.1L55.2 72.17C57.3 73.01 58.91 74.49 59.69 76.8Z" />
					<path id="Layer" class="shp5" d="M155.37 33.62C154.95 33.76 154.53 33.83 154.18 34.04C145.84 39.36 137.5 44.76 129.16 50.16C128.1 50.86 126.84 51.42 126.14 52.89C127.96 52.75 129.3 51.98 130.63 51.35C131.19 51.07 131.68 51 132.1 51.56C129.3 53.74 126.56 56.05 123.48 58.08C122.43 56.75 121.52 55.49 120.53 54.23C120.95 53.88 121.23 53.52 121.59 53.31C135.26 44.48 148.92 35.65 162.59 26.75C163.3 26.54 163.51 26.89 163.51 27.52C162.8 28.15 162.1 28.85 161.33 29.48C161.12 29.83 160.84 30.11 160.42 30.18C160.28 30.18 160.14 30.18 160.14 30.39C159.79 30.46 159.58 30.67 159.44 30.95L159.37 31.02C159.09 31.16 158.88 31.37 158.67 31.58L158.67 31.58C158.46 31.93 158.25 32.28 157.9 32.49C157.69 32.63 157.48 32.77 157.27 32.92C157.06 33.06 156.85 33.2 156.64 33.27C156.36 33.41 156.01 33.48 155.65 33.55C155.58 33.62 155.51 33.62 155.37 33.62Z" />
					<path id="Layer" class="shp6" d="M71.95 54.65C72.51 54.51 73.01 54.44 73.78 54.23C73.43 53.81 73.29 53.45 72.94 53.17C68.87 49.88 64.87 46.44 60.67 43.22C58.35 41.47 55.9 39.93 53.52 38.31C53.03 37.96 52.33 37.68 52.4 36.84C52.82 36.98 53.24 37.05 53.59 37.33C61.58 42.45 69.5 47.57 77.49 52.75C78.05 53.1 78.54 53.59 79.1 54.02C78.12 55.35 77.14 56.54 76.16 57.87C74.62 56.96 73.29 55.84 71.95 54.65Z" />
					<path id="Layer" class="shp7" d="M59.69 76.8C58.14 75.19 56.6 73.57 55.06 72.03C55.27 71.61 55.48 71.19 55.76 70.77C57.37 72.45 59.06 74.2 60.67 75.89C60.39 76.17 60.04 76.52 59.69 76.8Z" />
					<path id="Layer" class="shp8" d="M35.92 25.55C35.15 25.48 34.38 25.48 33.68 25.41C31.51 23.87 29.4 22.33 26.95 20.51C29.05 20.79 30.38 21.56 35.92 25.55Z" />
					<path id="Layer" class="shp0" d="M163.51 27.52C163.23 27.24 162.88 27.03 162.59 26.75C165.12 24.64 167.78 22.75 170.8 21.49L170.73 21.42C170.66 21.63 170.73 21.91 170.59 22.05C168.27 23.87 165.89 25.69 163.51 27.52Z" />
					<path id="Layer" class="shp8" d="M35.01 28.78C34.73 29.06 34.45 29.27 34.24 29.55C31.51 27.59 28.98 25.48 26.88 22.82L26.95 22.75C27.16 22.82 27.44 22.75 27.58 22.89C30.03 24.85 32.56 26.82 35.01 28.78Z" />
					<path id="Layer" class="shp2" d="M164.84 30.25C164.56 29.97 164.28 29.69 164 29.48C166.31 27.73 168.55 25.98 170.87 24.22C171.01 24.08 171.29 24.22 171.5 24.22L171.43 24.15C170.8 24.85 170.24 25.69 169.53 26.33C167.99 27.66 166.38 28.92 164.84 30.25Z" />
					<path id="Layer" class="shp2" d="M157.69 32.14C158.04 31.93 158.39 31.72 158.67 31.58C158.95 31.79 159.16 32.07 159.44 32.28C158.25 33.2 156.99 34.18 155.79 35.02C155.58 35.16 155.23 35.02 154.95 35.02C155.02 34.74 155.09 34.46 155.23 34.11C155.3 33.9 155.37 33.69 155.44 33.48L155.37 33.48C155.72 33.06 156.43 33.2 156.71 32.7L156.64 32.77C156.99 32.63 157.27 32.35 157.69 32.14Z" />
					<path id="Layer" class="shp2" d="M50.43 35.58C49.31 35.58 48.54 35.09 48.33 33.97C49.24 34.32 50.08 34.6 50.43 35.58Z" />
					<path id="Layer" class="shp6" d="M52.47 36.98C51.34 37.12 50.85 36.42 50.36 35.58C51.27 35.72 52.04 36.14 52.47 36.98Z" />
					<path id="Layer" class="shp7" d="M43.07 59.97C43.07 60.61 43.07 61.17 43.14 61.8C42.23 61.45 42.23 60.75 42.44 59.97C42.44 59.9 42.86 59.9 43.07 59.97Z" />
					<path id="Layer" class="shp9" d="M172.2 20.86C171.71 21.07 171.22 21.21 170.8 21.42L170.87 21.49C171.08 20.72 171.71 20.93 172.2 20.86L172.2 20.86Z" />
					<path id="Layer" class="shp7" d="M50.36 67.19C50.15 66.98 49.94 66.77 49.8 66.56C50.01 66.77 50.15 66.98 50.36 67.19Z" />
					<path id="Layer" class="shp7" d="M51.06 65.93C51.27 66.14 51.48 66.35 51.62 66.56C51.48 66.35 51.27 66.14 51.06 65.93Z" />
					<path id="Layer" class="shp7" d="M49.73 66.49C49.52 66.28 49.38 66.07 49.17 65.93C49.31 66.07 49.52 66.28 49.73 66.49Z" />
					<path id="Layer" class="shp7" d="M50.43 65.3C50.64 65.51 50.85 65.72 50.99 65.93C50.78 65.65 50.64 65.44 50.43 65.3Z" />
					<path id="Layer" class="shp7" d="M51.76 66.63C51.97 66.84 52.12 67.05 52.33 67.19C52.12 67.05 51.97 66.84 51.76 66.63Z" />
					<path id="Layer" class="shp7" d="M54.43 69.37C54.64 69.58 54.78 69.72 54.99 69.93C54.78 69.72 54.64 69.58 54.43 69.37Z" />
					<path id="Layer" class="shp7" d="M49.03 65.79C48.82 65.58 48.68 65.44 48.47 65.23C48.68 65.44 48.82 65.58 49.03 65.79Z" />
					<path id="Layer" class="shp7" d="M55.13 70.07C55.27 70.28 55.48 70.42 55.62 70.63C55.48 70.42 55.27 70.21 55.13 70.07Z" />
					<path id="Layer" class="shp7" d="M54.36 71.26C54.15 71.05 53.94 70.84 53.73 70.63C53.94 70.84 54.15 71.05 54.36 71.26Z" />
					<path id="Layer" class="shp7" d="M49.73 64.6C49.94 64.81 50.15 65.02 50.29 65.23C50.15 65.02 49.94 64.81 49.73 64.6Z" />
					<path id="Layer" class="shp7" d="M48.4 65.09C48.19 64.88 48.05 64.74 47.84 64.53C47.98 64.74 48.19 64.95 48.4 65.09Z" />
					<path id="Layer" class="shp7" d="M49.1 63.9C49.31 64.11 49.52 64.32 49.66 64.53C49.45 64.32 49.31 64.11 49.1 63.9Z" />
					<path id="Layer" class="shp7" d="M47.7 64.46C47.49 64.25 47.35 64.04 47.14 63.9C47.35 64.04 47.56 64.25 47.7 64.46Z" />
					<path id="Layer" class="shp7" d="M48.4 63.2C48.61 63.41 48.82 63.62 49.03 63.83C48.82 63.62 48.61 63.41 48.4 63.2Z" />
					<path id="Layer" class="shp7" d="M47.07 63.69C46.86 63.48 46.72 63.34 46.51 63.13C46.72 63.34 46.86 63.55 47.07 63.69Z" />
					<path id="Layer" class="shp7" d="M47.77 62.57C47.98 62.78 48.19 62.99 48.4 63.2C48.19 62.92 47.98 62.71 47.77 62.57Z" />
					<path id="Layer" class="shp7" d="M46.37 62.99C46.23 62.85 46.09 62.64 45.88 62.5C46.09 62.71 46.23 62.85 46.37 62.99Z" />
					<path id="Layer" class="shp7" d="M53.03 69.93C52.82 69.72 52.61 69.51 52.4 69.3C52.61 69.51 52.82 69.72 53.03 69.93Z" />
					<path id="Layer" class="shp7" d="M46.44 61.17C46.65 61.38 46.86 61.59 47.07 61.8C46.79 61.59 46.65 61.38 46.44 61.17Z" />
					<path id="Layer" class="shp7" d="M45.74 60.53C45.95 60.75 46.16 60.96 46.37 61.17C46.16 60.96 45.95 60.75 45.74 60.53Z" />
					<path id="Layer" class="shp7" d="M45.1 59.83C45.32 60.04 45.53 60.25 45.74 60.46C45.46 60.25 45.25 60.04 45.1 59.83Z" />
					<path id="Layer" class="shp7" d="M44.4 59.13C44.61 59.34 44.82 59.55 45.03 59.76C44.82 59.55 44.61 59.34 44.4 59.13Z" />
					<path id="Layer" class="shp7" d="M51.06 67.9C50.85 67.69 50.64 67.47 50.5 67.26C50.64 67.47 50.85 67.69 51.06 67.9Z" />
					<path id="Layer" class="shp7" d="M55.06 71.96C54.85 71.75 54.64 71.54 54.43 71.33C54.64 71.54 54.85 71.75 55.06 71.96Z" />
					<path id="Layer" class="shp7" d="M43.7 58.5C43.91 58.71 44.12 58.92 44.33 59.13C44.12 58.92 43.91 58.71 43.7 58.5Z" />
					<path id="Layer" class="shp10" d="M160.49 30.18C160.77 29.97 161.05 29.69 161.4 29.48C161.05 29.69 160.77 29.97 160.49 30.18Z" />
					<path id="Layer" class="shp7" d="M52.4 67.33C52.61 67.55 52.75 67.69 52.96 67.9C52.82 67.69 52.61 67.55 52.4 67.33Z" />
					<path id="Layer" class="shp10" d="M159.44 30.95C159.65 30.74 159.93 30.6 160.14 30.39C159.93 30.53 159.72 30.74 159.44 30.95Z" />
					<path id="Layer" class="shp10" d="M162.66 30.25C162.45 30.39 162.24 30.6 162.03 30.74C162.24 30.53 162.45 30.39 162.66 30.25Z" />
					<path id="Layer" class="shp11" d="M171.5 24.22C171.57 24.08 171.64 23.87 171.71 23.73C172.27 24.22 171.64 24.08 171.5 24.22C171.5 24.15 171.5 24.22 171.5 24.22Z" />
					<path id="Layer" class="shp10" d="M158.74 31.58C158.95 31.37 159.16 31.16 159.44 31.02C159.16 31.16 158.95 31.37 158.74 31.58Z" />
					<path id="Layer" class="shp10" d="M161.54 31.02C161.26 31.23 161.05 31.37 160.77 31.58C160.98 31.37 161.26 31.16 161.54 31.02Z" />
					<path id="Layer" class="shp12" d="M26.88 22.82C26.74 22.75 26.6 22.61 26.46 22.54C26.81 22.12 26.88 22.54 26.95 22.75C26.95 22.82 26.88 22.82 26.88 22.82Z" />
					<path id="Layer" class="shp7" d="M53.73 70.63C53.52 70.42 53.31 70.21 53.1 70C53.31 70.21 53.52 70.42 53.73 70.63Z" />
					<path id="Layer" class="shp9" d="M172.27 20.93C172.27 20.86 172.27 20.79 172.27 20.72C172.27 20.79 172.2 20.79 172.27 20.93C172.2 20.86 172.27 20.93 172.27 20.93Z" />
					<path id="Layer" class="shp10" d="M160.7 31.58C160.49 31.72 160.28 31.86 160 32.07C160.21 31.93 160.49 31.72 160.7 31.58Z" />
					<path id="Layer" class="shp7" d="M51.69 68.53C51.48 68.32 51.27 68.11 51.06 67.9C51.27 68.18 51.48 68.32 51.69 68.53Z" />
					<path id="Layer" class="shp7" d="M53.1 68.04C53.31 68.25 53.45 68.39 53.66 68.6C53.45 68.39 53.24 68.18 53.1 68.04Z" />
					<path id="Layer" class="shp7" d="M52.4 69.23C52.19 69.02 51.97 68.81 51.76 68.6C51.97 68.81 52.19 69.02 52.4 69.23Z" />
					<path id="Layer" class="shp7" d="M53.73 68.74C53.94 68.95 54.08 69.09 54.29 69.3C54.15 69.09 53.94 68.88 53.73 68.74Z" />
					<path id="Layer" class="shp7" d="M47.07 61.87C47.28 62.08 47.49 62.29 47.7 62.5C47.49 62.29 47.28 62.08 47.07 61.87Z" />
					<path id="Layer" class="shp13" d="M96.84 79.04C96.98 77.71 97.05 76.38 97.26 75.12C97.61 72.8 98.03 70.49 98.38 68.18C98.45 67.62 98.45 67.05 98.38 66.49C98.24 65.79 97.75 65.23 96.98 65.3C96.49 65.37 95.86 65.65 95.58 66C95.23 66.49 95.09 67.19 94.95 67.9C94.39 71.4 93.9 74.98 93.33 78.48C93.26 78.83 93.12 79.11 92.98 79.39C92.84 79.53 92.63 79.74 92.49 79.74C92.35 79.74 92.07 79.53 92 79.39C91.79 78.9 91.58 78.34 91.58 77.85C91.58 76.31 91.65 74.7 91.72 73.15C91.72 72.38 91.79 71.61 91.65 70.84C91.58 70.49 91.16 69.93 90.88 69.93C90.39 69.93 89.76 70.14 89.48 70.49C89.13 70.98 88.85 71.68 88.78 72.31C88.57 75.12 88.36 77.92 88.43 80.72C88.5 82.41 88.57 84.09 88.15 85.7C87.45 88.22 87.38 90.75 87.38 93.34C87.38 96.08 86.75 98.67 85.41 101.05C85.2 101.4 84.92 101.75 84.5 102.25C83.1 99.86 82.61 97.34 82.12 94.81C81.42 91.31 81.35 87.66 81.28 84.09C81.21 79.95 81.28 75.82 82.05 71.68C82.61 68.81 83.45 66 84.85 63.48C87.59 58.5 91.72 55.7 97.33 54.93C100.27 54.51 103.15 54.65 106.02 55.21C110.93 56.12 114.29 58.99 116.19 63.55C117.38 66.49 118.01 69.51 118.36 72.66C118.92 78.13 118.99 83.6 118.36 89.14C118.01 92.5 117.31 95.8 116.05 98.88C113.52 105.19 108.83 108.69 102.1 109.4C99.08 109.68 96.07 109.68 92.91 108.69C93.83 105.89 94.81 103.23 96.63 100.98C97.4 100.07 98.45 99.3 99.43 98.67C100.98 97.69 102.59 96.99 104.13 96.01C105.18 95.38 106.3 94.67 107 93.76C108.55 91.73 110.65 90.47 112.54 88.93C112.96 88.58 113.52 88.37 113.94 88.01C114.58 87.52 115.42 87.03 115 86.19C114.65 85.42 113.8 85.28 112.96 85.21C111.42 85.07 110.16 85.7 108.9 86.61C107.71 87.45 106.58 88.3 105.32 89.14C104.62 89.56 103.99 89.14 104.06 88.3C104.13 85.56 104.83 82.97 105.88 80.51C107.07 77.64 108.27 74.77 109.46 71.82C109.81 70.98 110.02 70.14 110.16 69.23C110.23 68.53 109.74 67.97 109.11 67.69C108.34 67.33 107.78 67.76 107.35 68.32C106.93 68.95 106.58 69.72 106.3 70.42C105.25 73.15 104.2 75.82 103.15 78.55C102.73 79.67 101.75 80.3 101.61 79.88C101.47 79.25 101.4 78.55 101.61 77.99C102.59 74.2 103.57 70.42 104.55 66.63C104.83 65.51 104.55 64.95 103.57 64.46C102.94 64.18 102.1 64.32 101.82 64.88C101.47 65.58 101.19 66.28 100.98 67.05C99.99 70.7 99.08 74.42 98.1 78.06C97.96 78.48 97.54 78.9 97.26 79.32C97.12 79.11 96.98 79.11 96.84 79.04Z" />
					<path id="Layer" class="shp14" d="M124.25 88.08C124.11 90.54 123.48 93.62 122.29 96.57C122.08 97.06 121.59 97.41 121.16 97.76C121.02 97.83 120.46 97.69 120.39 97.55C120.25 97.13 120.11 96.71 120.18 96.29C120.32 95.52 120.53 94.74 120.74 94.04C121.45 91.38 122.29 88.65 122.36 85.84C122.36 85.35 122.71 84.79 123.06 84.51C123.34 84.23 123.97 85 124.11 85.84C124.11 86.05 124.18 86.26 124.18 86.47C124.32 86.75 124.25 87.1 124.25 88.08Z" />
					<path id="Layer" class="shp15" d="M123.41 78.76C122.64 78.76 122.08 78.13 122.08 77.22C122.08 76.31 122.71 75.68 123.48 75.75C124.25 75.82 124.88 76.45 124.81 77.29C124.81 78.13 124.18 78.76 123.41 78.76Z" />
					<path id="Layer" class="shp2" d="M156.71 32.84C156.43 33.48 156.01 33.76 155.37 33.62C155.51 32.99 156.01 32.77 156.71 32.84Z" />
					<path id="Layer" class="shp2" d="M157.69 32.14C157.34 32.35 156.99 32.63 156.64 32.84C156.71 32.28 157.13 32.14 157.69 32.14Z" />
				</g>
			</g>
		</g>
	</g>
</svg>