<svg xmlns="http://www.w3.org/2000/svg" viewBox="0 0 412 250" width="412" height="250">
	<style>
		tspan { white-space:pre }
		.shp0 { fill: #ffffff } 
		.shp1 { fill: #010000 } 
		.shp2 { fill: #020201 } 
		.shp3 { fill: #010101 } 
		.shp4 { fill: #090909 } 
		.shp5 { fill: #030303 } 
		.shp6 { fill: #ff9900 } 
		.shp7 { fill: #fefefd } 
		.shp8 { fill: #fefefe } 
		.shp9 { fill: #fdfcfb } 
		.shp10 { fill: #070400 } 
		.shp11 { fill: #080500 } 
	</style>
	<g id="Layer">
		<g id="Layer">
			<g id="Layer">
				<g id="Layer">
					<path id="Layer" class="shp0" d="M205.6 237.8C146.2 237.8 86.9 237.7 27.5 237.9C22.2 237.9 17.8 236.3 13.7 233.4C11.2 231.7 9.1 229.4 7.7 226.6C5.8 222.7 4.5 218.7 4.6 214.2C4.7 154.5 4.7 94.8 4.6 35.2C4.6 30.9 5.7 27 7.5 23.3C9.3 19.6 12.1 16.9 15.7 14.8C19.6 12.6 23.6 11.7 28 11.7C131.4 11.7 234.7 11.7 338.1 11.7C353.5 11.7 368.8 12.1 384.2 11.7C391.8 11.5 402.1 17.7 404.6 25.1C405.7 28.3 406.6 31.4 406.5 34.9C406.4 48.3 406.5 61.8 406.5 75.2C406.5 121.6 406.5 168 406.5 214.4C406.5 218.9 405.5 222.9 403.4 226.8C402 229.6 400 231.8 397.4 233.6C393.2 236.4 388.8 238 383.5 238C324.4 237.8 265 237.8 205.6 237.8Z" />
					<path id="Layer" class="shp1" d="M205.7 17.9C264.9 17.9 324.1 17.9 383.3 17.9C385.7 17.9 387.9 17.9 390.3 19C395 21.1 398.2 24.3 399.7 29.2C400.1 30.5 400.4 32 400.5 33.4C400.6 37.7 400.6 42 400.6 46.4C400.6 102.4 400.6 158.4 400.6 214.4C400.6 217.3 400.2 220.1 398.9 222.7C395.9 228.8 391 231.8 384.4 231.9C369.4 232.1 354.3 232 339.3 232C235.8 232 132.3 232 28.8 232C25.4 232 22.2 231.5 19.2 229.8C13.8 226.8 11.3 222 10.9 216.1C10.6 211.8 10.8 207.5 10.8 203.1C10.8 147.3 10.9 91.5 10.8 35.6C10.8 32.3 11.4 29.3 12.9 26.4C14.2 23.7 16.1 21.7 18.7 20.2C21.7 18.6 24.8 17.8 28.3 17.8C87.4 17.9 146.6 17.9 205.7 17.9Z" />
					<path id="Layer" class="shp0" d="M205.6 24.6C265.3 24.6 325 24.6 384.6 24.6C386.5 24.6 388.4 24.3 390.1 25.5C392.8 27.4 394.2 29.9 394.5 33.1C394.6 34.8 394.6 36.6 394.6 38.4C394.6 96 394.6 153.6 394.6 211.2C394.6 212.8 394.7 214.4 394.5 216C394.4 217.3 394.2 218.5 393.7 219.7C392.3 223.3 389.5 225.2 385.6 225.2C375.8 225.2 366.1 225.2 356.3 225.2C246.7 225.2 137.1 225.2 27.5 225.2C26.9 225.2 26.2 225.2 25.6 225.2C21.3 225.2 18.4 223.1 17.1 218.9C16.7 217.5 16.6 216.1 16.5 214.7C16.4 211.2 16.5 207.7 16.5 204.1C16.5 151.3 16.5 98.5 16.5 45.7C16.5 42 16.4 38.3 16.5 34.7C16.5 33.4 16.7 32.1 17 30.9C18.2 26.6 21 24.6 25.4 24.6C35.2 24.6 44.9 24.6 54.7 24.6C105.1 24.6 155.4 24.6 205.6 24.6L205.6 24.6Z" />
					<path id="Layer" class="shp2" d="M257 141.6C222.3 141.6 187.6 141.6 152.9 141.6C151.6 141.6 150.3 141.7 149.1 141.6C145.8 141.3 144.2 139.7 143.8 136.5C143.7 135.5 143.7 134.6 143.7 133.6C143.7 115.5 143.7 97.5 143.7 79.4C143.7 78.4 143.7 77.5 143.8 76.5C144.1 73.3 145.8 71.7 149.1 71.5C153.9 71.3 158.7 71.2 163.5 71.2C206.5 71.1 249.5 71 292.6 70.9C313.7 70.8 334.8 70.7 355.9 70.7C359.4 70.7 362.9 71.1 366.3 71.7C368.9 72.1 370.4 73.7 370.5 76.2C370.5 77.3 370.5 78.4 370.5 79.6C370.5 97.4 370.5 115.1 370.5 132.9C370.5 133.7 370.5 134.5 370.5 135.3C370.7 140.5 368.6 140.6 365 141.5C363.6 141.8 362.1 141.6 360.7 141.6C326.1 141.6 291.5 141.6 257 141.6L257 141.6Z" />
					<path id="Layer" class="shp3" d="M265.2 35.3C301.3 35.3 337.5 35.3 373.6 35.3C375 35.3 376.5 35.2 377.9 35.4C379.7 35.6 381.1 37 381.4 38.8C381.6 40.2 381.5 41.7 381.6 43.1C381.7 45.3 381.7 47.6 381.9 49.8C382.1 51.9 381.7 54 380.8 55.9C380.5 56.5 379.6 57.3 379 57.2C376 56.7 373 57.5 370 57.4C356.3 57 342.5 56.8 328.8 56.6C326.2 56.6 323.7 56.6 321.1 56.6C265.5 56.6 209.8 56.5 154.2 56.5C152.9 56.5 151.6 56.5 150.4 56.5C149 56.4 147.9 55.7 147.6 54.3C147.2 52.6 146.8 50.9 146.8 49.1C146.7 46.5 146.8 44 147 41.4C147.2 37.9 149 35.9 152.6 35.6C153.7 35.5 154.8 35.5 156 35.5C182.1 35.4 208.1 35.4 234.2 35.4C244.4 35.3 254.8 35.3 265.2 35.3L265.2 35.3Z" />
					<path id="Layer" class="shp3" d="M125.5 87C124.8 112.6 104.3 132.4 79 132C53.2 131.5 33.6 110.6 34.2 85.4C34.7 59.9 55.8 40.1 80.9 40.7C104.8 41.1 125.7 60.7 125.5 87Z" />
					<path id="Layer" class="shp4" d="M321.7 201.7C332.2 201.7 342.8 201.7 353.3 201.7C354.4 201.7 355.5 201.6 356.6 201.8C358.9 202 360.3 203.2 360.2 204.9C360.1 206.5 358.7 207.6 356.4 207.8C355.3 207.9 354.2 207.9 353.1 207.9C344.6 207.9 336.2 207.9 327.7 207.9C314.9 207.9 302.2 207.9 289.4 207.9C287.8 207.9 286.2 207.8 284.7 207.5C283.4 207.2 282.4 205.9 282.5 204.7C282.6 203.5 283.6 202.3 284.9 202C286.3 201.8 287.8 201.7 289.2 201.7C300 201.7 310.9 201.7 321.7 201.7L321.7 201.7Z" />
					<path id="Layer" class="shp5" d="M320.2 166.8C309.2 166.8 298.2 166.8 287.2 166.8C285.8 166.8 284.3 166.8 282.9 166.6C281.5 166.4 280.6 165.2 280.6 163.9C280.6 162.5 281.6 161.2 283.2 161C284.5 160.8 285.7 160.8 287 160.8C309.5 160.8 332 160.8 354.5 160.8C355.6 160.8 356.7 160.8 357.8 160.9C359.2 161.1 360.2 162.1 360.3 163.4C360.5 164.8 359.4 166.3 357.9 166.5C356.7 166.7 355.4 166.7 354.1 166.7C342.8 166.8 331.5 166.8 320.2 166.8L320.2 166.8Z" />
					<path id="Layer" class="shp5" d="M319.6 187.2C308.7 187.2 297.9 187.2 287 187.2C285.6 187.2 284.1 187.2 282.7 187C281.4 186.8 280.5 185.6 280.5 184.3C280.5 183 281.2 182.2 282.3 181.7C282.9 181.4 283.5 181.4 284.1 181.3C285.1 181.2 286 181.3 287 181.3C308.9 181.3 330.7 181.3 352.6 181.3C353.9 181.3 355.2 181.3 356.4 181.4C358 181.6 359.1 182.9 359.1 184.3C359.1 185.8 358.1 186.9 356.4 187.1C355.1 187.2 353.9 187.2 352.6 187.2C341.7 187.2 330.7 187.2 319.6 187.2L319.6 187.2Z" />
					<path id="Layer" class="shp6" d="M364.4 78.8C365.3 84.5 365 90.2 365 95.9C365 107.6 365 119.3 365 130.9C365 132.2 365 133.5 364.8 134.7C364.7 135.2 364.1 135.8 363.6 135.9C362.5 136.1 361.4 136 360.3 136C293.1 136 225.9 136 158.8 136C157.3 136 155.6 136.5 154.2 135.3C153.4 133.5 153.3 131.6 153.2 129.7C152.9 115.3 153.9 100.9 152.5 86.6C152.1 82.1 154 80.1 158.6 79.9C163.4 79.6 168.1 80.8 172.9 80.8C233.3 80.7 293.7 80.8 354.1 80.8C357.7 80.8 361.3 80.8 364.4 78.8Z" />
					<path id="Layer" class="shp7" d="M364.4 78.8C364.3 79.9 364.1 81 363.9 82.4C362.5 82.4 361.3 82.4 360 82.4C304.4 82.3 248.8 82.3 193.2 82.2C185.2 82.2 177.2 82.1 169.2 82C165.8 82 162.5 81.7 159.2 81.5C158.1 81.5 157 81.4 155.9 81.5C154.8 81.6 154.1 82.1 154.1 83.3C154.1 84.7 154.1 86.2 154.2 87.6C154.4 102.8 154.6 117.9 154.8 133.1C154.8 133.9 154.5 134.6 154.3 135.4C153.2 135.4 152.1 135.4 151 135.3C150.6 135.3 150.2 134.8 150.1 134.4C149.9 133.8 150 133.1 150 132.5C150 114.6 150 96.7 150 78.8C150 75.8 150.1 75.8 152.9 75.8C157.7 75.8 162.5 75.9 167.3 75.9C208.5 76 249.8 76.1 291 76.2C312.7 76.3 334.5 76.4 356.2 76.5C358.4 76.5 360.7 76.7 362.9 76.9C363.7 77 364.3 77.7 364.4 78.8Z" />
					<path id="Layer" class="shp8" d="M264.4 41C299.9 41 335.4 41 371 41C372.1 41 373.2 41 374.4 41C376.4 41.1 376.5 41.2 376.5 43.3C376.5 45.5 376.4 47.8 376.4 50C376.4 51.2 375.7 51.6 374.5 51.6C369.4 51.6 364.2 52.3 359.2 51.5C351.4 50.2 343.6 50.7 335.8 50.8C276.3 51.6 217 51 157.6 51.3C151.7 51.3 152.2 51.9 152.2 45.9C152.2 44.9 152.2 44 152.2 43C152.2 41.3 152.5 41 154 40.9C155.1 40.9 156.2 40.9 157.4 40.9C193 40.9 228.7 40.9 264.4 41L264.4 41Z" />
					<path id="Layer" class="shp6" d="M95.6 89.1C101.8 88.9 108 87.8 114.2 88.5C120.6 89.2 121.3 87.9 119.4 95.4C115.4 111.8 105 122 88.6 126C82.2 127.6 75.6 127.2 69.2 125.7C65.6 124.8 62.2 123.4 59.7 120.6C59.3 120.4 59 120.1 58.6 119.8L58.7 119.9C52 113.5 49.4 105.1 47.6 96.5C46.7 92.2 47.8 91 52.2 90.7C53.8 90.6 55.4 90.5 57 90.8C70 92.5 82.8 89.7 95.6 89.1Z" />
					<path id="Layer" class="shp0" d="M94.3 49C92.6 52.3 91 55.4 89.5 58.6C85.7 66.7 81.8 74.7 78.2 82.9C77.2 85.2 76 85.6 73.9 85.6C69.1 85.5 64.3 85.6 59.5 85.6C53.9 85.6 48.3 85.7 42.7 85.7C42.4 85.7 42.1 85.7 41.7 85.7C40.2 85.6 39.7 85.1 39.8 83.6C41.2 69 48.2 57.9 61.1 50.9C71.8 45.2 82.9 44.9 94.3 49Z" />
					<path id="Layer" class="shp0" d="M100.3 85.5C95 85.5 89.7 85.5 84.5 85.5C82.6 85.5 82.4 85 83.3 83.2C87.6 74.6 91.8 66 96.1 57.4C96.9 55.8 97.6 54.2 98.3 52.6C98.8 51.5 99.3 51.3 100.5 52C111.9 59.2 118.4 69.5 119.7 83C119.8 84.3 119.4 84.8 118.1 84.9C117 85 115.9 85.1 114.7 85.1C109.9 85.1 105.1 85.1 100.3 85.1C100.3 85.3 100.3 85.4 100.3 85.5Z" />
					<path id="Layer" class="shp9" d="M95.6 89.1C93.3 89.6 91 90.1 88.6 90.5C80.2 91.7 71.9 92.8 63.4 92.6C60.1 92.5 56.7 92.2 53.4 92C52.8 92 52.1 92 51.5 92C49 92 48.1 92 48.7 95.3C50.3 103.4 52.9 111 57.8 117.7C58.2 118.3 58.4 119.1 58.7 119.8C57.6 119.2 56.4 118.7 55.5 117.9C46.3 110.6 41.1 101.1 40 89.3C40.6 89.1 41.1 88.8 41.5 88.8C59.1 88.8 76.6 88.9 94.2 89C94.7 89 95.2 89.1 95.6 89.1Z" />
					<path id="Layer" class="shp9" d="M58.7 119.7C59.1 120 59.4 120.2 59.8 120.5C59.4 120.3 59 120 58.7 119.7Z" />
					<path id="Layer" class="shp10" d="M258.8 105.3C230.8 105.3 202.9 105.3 174.9 105.3C173.5 105.3 172 105.3 170.6 105.1C169.6 105 168.9 104.3 168.6 103.2C168.4 102.3 169.4 101.2 170.7 100.9C171.6 100.7 172.6 100.7 173.6 100.7C177 100.6 180.3 100.6 183.7 100.6C237.1 100.6 290.5 100.6 343.9 100.6C345.2 100.6 346.5 100.5 347.7 100.7C348.4 100.8 349.1 101.3 349.7 101.8C350.5 102.4 350.5 103.7 349.6 104.3C349 104.8 348.2 105.2 347.5 105.3C346.1 105.5 344.6 105.4 343.2 105.4C315.1 105.4 287 105.4 258.8 105.3C258.8 105.4 258.8 105.3 258.8 105.3Z" />
					<path id="Layer" class="shp10" d="M257.9 123.8C232.8 123.8 207.7 123.8 182.6 123.8C179.2 123.8 175.9 123.8 172.5 123.7C171.6 123.7 170.5 123.6 169.7 123.2C169.1 122.9 168.6 122 168.6 121.3C168.5 120.9 169.2 120 169.7 119.9C170.9 119.5 172.2 119.2 173.4 119.1C176.6 119 179.8 119 183 119C224.9 119 266.8 119 308.7 119C319.7 119 330.8 119 341.8 119C343.4 119 345.1 118.7 346.4 119.7C347 120.1 347.5 121 347.5 121.6C347.5 122.2 346.8 122.9 346.2 123.4C345.7 123.7 345 123.7 344.4 123.8C343 123.9 341.5 123.8 340.1 123.8C312.6 123.8 285.3 123.8 257.9 123.8L257.9 123.8Z" />
					<path id="Layer" class="shp11" d="M200.9 93.6C191.8 93.6 182.7 93.6 173.6 93.6C172.2 93.6 170.8 93.3 169.4 93C168.9 92.9 168.4 92.1 168.3 91.6C168.1 90.7 168.7 90.1 169.4 89.7C169.9 89.4 170.6 89.2 171.2 89.2C172.1 89.1 173.1 89.1 174.1 89.1C191.8 89 209.5 89 227.2 88.9C228.6 88.9 230.1 88.8 231.5 89C232.4 89.1 233.3 89.6 234.1 90.1C234.9 90.6 234.9 92.1 234.1 92.6C233.3 93.1 232.4 93.5 231.5 93.7C230.4 93.9 229.3 93.8 228.2 93.8C219.1 93.8 210 93.8 200.9 93.8C200.9 93.7 200.9 93.7 200.9 93.6Z" />
				</g>
			</g>
		</g>
	</g>
</svg>