<svg xmlns="http://www.w3.org/2000/svg" viewBox="0 0 360 220" width="360" height="220">
	<style>
		tspan { white-space:pre }
		.shp0 { fill: #ffffff } 
		.shp1 { fill: #010000 } 
		.shp2 { fill: #cdcdcd } 
		.shp3 { fill: #fdfdfd } 
		.shp4 { fill: #000000 } 
		.shp5 { fill: #fefefe } 
		.shp6 { fill: #030303 } 
		.shp7 { fill: #040404 } 
		.shp8 { fill: #010101 } 
		.shp9 { fill: #fcfcfc } 
	</style>
	<g id="Layer">
		<g id="Layer">
			<g id="Layer">
				<g id="Layer">
					<path id="Layer" class="shp0" d="M178.9 211.8C126.1 211.8 73.3 211.8 20.5 211.9C16.3 211.9 12.6 211 9.1 208.9C2.4 204.9 -1.2 198.8 -1.3 191.1C-1.5 174.3 -1.4 157.5 -1.4 140.7C-1.4 103.9 -1.4 67.1 -1.4 30.3C-1.4 26.5 -0.7 23 0.9 19.7C2.8 15.8 5.5 12.9 9.3 10.8C12.8 8.9 16.3 8.1 20.3 8.1C114.4 8.1 208.5 8.1 302.5 8.1C314.5 8.1 326.5 8.4 338.5 8.1C347.9 7.9 356.3 14.1 359.1 23.6C359.5 25.1 359.6 26.8 359.6 28.4C359.7 31.9 359.7 35.4 359.7 39C359.7 89.6 359.7 140.1 359.7 190.7C359.7 194.1 359.1 197.3 357.5 200.4C354 207.5 347 212 339.1 212C300.1 212 261 212 222 212C207.7 211.9 193.3 211.9 178.9 211.8L178.9 211.8Z" />
					<path id="Layer" class="shp1" d="M179.9 14.2C232.5 14.2 285.1 14.2 337.8 14.2C339.8 14.2 341.9 14 343.9 14.8C350.6 17.6 353.7 22.5 353.7 29.7C353.7 72.1 353.7 114.5 353.7 156.8C353.7 168 353.6 179.2 353.7 190.4C353.8 196.6 350.5 202.4 343.5 205C342.8 205.3 342 205.4 341.2 205.5C340.1 205.6 339 205.5 337.8 205.5C232.1 205.5 126.4 205.5 20.7 205.5C17.8 205.5 15.1 205.1 12.4 203.7C7.6 201 5.4 196.8 5 191.6C4.7 187.8 4.9 183.9 4.9 180.1C4.9 130 4.9 80 4.9 29.9C4.9 27.1 5.2 24.5 6.5 22C9.1 16.8 13.5 14.1 19.2 14.1C34.1 13.9 48.9 14 63.8 14C102.5 14.1 141.2 14.1 179.9 14.2C179.9 14.1 179.9 14.2 179.9 14.2Z" />
					<path id="Layer" class="shp2" d="M346.9 23.8C348.3 25.3 348.4 27.3 348.4 29.2C348.4 31.9 348.4 34.6 348.4 37.4C348.4 87.3 348.4 137.2 348.5 187.1C348.5 188.9 348.5 190.6 348.4 192.4C348.2 194.9 347.1 197 345.1 198.5C344 199.3 343 199.9 341.6 199.8C340.8 199.7 340 199.8 339.2 199.8C233.2 199.8 127.1 199.8 21.1 199.8C20 199.8 18.9 199.7 17.8 199.6C16.6 198.4 16.4 196.8 16.3 195.2C16 183.2 15.1 171.3 14.4 159.3C13 135 13.4 110.7 13.4 86.5C13.3 69.5 15.1 52.7 16.9 35.9C17.5 30 20.6 26.7 26.1 25C29.3 24 32.6 23.5 36 23.5C105.5 23.5 175.1 22.9 244.6 23.8C275.3 24.2 306 24 336.6 24.5C339.9 24.3 343.4 24.2 346.9 23.8Z" />
					<path id="Layer" class="shp3" d="M346.9 23.8C346.6 24.7 346.4 25.7 345.2 25.7C344.1 25.7 343 25.8 341.8 25.8C313.2 25.8 284.6 25.8 255.9 25.7C254 25.7 252.1 25.3 250.2 25.2C248.3 25.1 246.4 25 244.5 25C182.6 25 120.7 25 58.9 24.9C50.7 24.9 42.6 25 34.4 24.8C30.3 24.7 26.5 26 22.9 27.6C20 28.8 18.5 30.9 18.4 34.3C18.2 38.6 17.4 42.8 16.8 47.1C16.8 47.3 16.7 47.4 16.7 47.6C16.3 52.7 15.9 57.8 15.6 62.8C15.4 65.7 15.7 68.5 14.8 71.4C14.5 72.6 14.6 73.9 14.6 75.2C14.6 96.1 14.6 117.1 14.6 138C14.6 139.9 15 141.8 15.2 143.7C15.3 145 15.4 146.2 15.4 147.5C15.5 151.3 15.4 155.2 15.5 159C15.6 160.9 15.9 162.8 16.1 164.7C16.2 166.3 16.3 167.9 16.4 169.5C16.6 174.1 16.6 178.7 17.1 183.3C17.8 188.7 17.3 194.2 17.3 199.6C13.8 200 11.9 197.9 10.7 195.2C10.1 193.8 9.9 192.1 9.9 190.5C9.8 186.3 9.9 182.2 9.9 178C9.9 129.4 9.9 80.8 9.9 32.1C9.9 30.7 9.8 29.2 10 27.8C10.3 25.2 11.3 22.9 13.6 21.3C14.7 20.6 15.8 20 17.2 20.1C18.2 20.2 19.1 20.1 20.1 20.1C126.1 20.1 232.2 20.1 338.2 20.1C338.8 20.1 339.5 20.1 340.1 20.1C343.3 19.9 345.5 21.1 346.9 23.8Z" />
					<path id="Layer" class="shp4" d="M184.1 83.1C185.7 83.1 187.3 83.1 188.9 83.1C199.8 83.1 210.7 83.1 221.5 83.1C227.4 83.1 227.7 83.4 228.1 89.3C228.3 91.9 228.3 94.4 228.3 97C228.3 112.7 228.3 128.4 228.3 144C228.3 145.3 228.3 146.6 228.4 147.8C228.5 148.7 229 149.3 229.9 149.3C230.7 149.3 231.5 149.3 232.3 149.3C253.1 149.3 273.9 149.3 294.7 149.3C298.9 149.3 298.9 149.5 299 145.2C299.2 136.2 298.8 127.3 298.5 118.4C298.2 109.6 298.2 100.8 298.2 92C298.2 76.5 298.2 61 298.2 45.4C298.2 44.4 298.2 43.5 298.2 42.5C298.4 39.4 299.1 39 302.1 38.3C311.7 36.2 321.5 37.7 331.2 37.4C332.3 37.4 333.4 37.8 334.4 38.2C336.6 39 337.7 40.6 337.6 43C337.5 43.8 337.6 44.6 337.6 45.4C337.6 68.3 337.7 91.2 337.6 114C337.6 132.9 337.5 151.8 337.4 170.6C337.4 171.2 337.4 171.9 337.4 172.5C337.3 176.9 334.8 179.6 330.3 179.6C321.7 179.7 313 179.7 304.4 179.6C300.4 179.6 299 178.1 298.9 174C298.8 168.6 298.9 163.1 298.9 157.7C298.9 155.5 298.7 155.3 296.4 155.3C292.2 155.3 288.1 155.3 283.9 155.3C267.7 155.3 251.6 155.3 235.4 155.3C233.2 155.3 230.9 155.1 228.7 155.3C225.6 155.6 223.9 154 223.1 151.2C222.6 149.5 222.3 147.8 222.3 146C222.2 141 222.3 136.1 222.2 131.1C222.2 128.7 222 128.5 219.8 128.5C212.9 128.5 206 128.5 199.2 128.5C197.7 128.5 196.8 128.9 196.2 130.2C191.7 138.7 187.2 147.1 182.6 155.6C182 156.8 181.8 157.9 181.9 159.2C182.1 161.3 181.2 162.2 179.3 162.5C178.2 162.7 177.1 162.7 176 162.7C149 162.7 121.9 162.7 94.9 162.7C93.3 162.7 91.5 162 90.2 162.6C89 163.2 88.5 165.1 87.6 166.4C86.6 167.8 85.5 169.2 84.2 170.4C77.5 176.7 68.9 176.6 61.9 171.3C52.6 164.3 54.1 149.7 62.5 143.9C65.9 141.6 69.6 140.3 73.7 140.3C77 140.3 80 141.4 82.5 143.6C85.3 146.1 87.4 149.1 88.7 152.6C90.2 156.7 90.2 156.7 94.7 156.7C108.1 156.7 121.6 156.7 135 156.7C136.6 156.7 138.1 156.6 139.9 156.5C138.4 147.1 136.9 138 135.4 128.6C133.9 128.6 132.3 128.5 130.7 128.5C122.2 128.5 113.7 128.5 105.3 128.5C103.9 128.5 102.4 128.5 101.3 127.4C100.1 126.3 100 124.7 101.3 123.7C101.9 123.2 102.7 122.9 103.4 122.7C104.2 122.5 105 122.6 105.8 122.6C115.4 122.6 125 122.6 134.6 122.6C135.1 122.6 135.6 122.6 136 122.6C138.5 122.8 139.1 123.4 139.4 126.2C139.5 126.8 139.4 127.5 139.6 128.1C142.3 134.9 142.7 142.1 144.2 149.1C146.1 157.9 144.2 156.6 152.9 156.7C160.1 156.8 167.3 156.7 174.5 156.7C177.4 156.7 177.5 156.7 178.3 154.1C181.4 144.2 186.7 135.5 191.6 126.5C193.2 123.6 195.5 122.6 198.7 122.6C204.9 122.6 211.2 122.6 217.4 122.6C218.5 122.6 219.6 122.6 220.8 122.6C221.8 122.6 222.2 121.9 222.2 121C222.2 120.5 222.2 120 222.2 119.6C222.2 110.2 222.3 100.7 222.3 91.3C222.3 89.4 222 89.1 220.1 89.1C219.1 89.1 218.2 89.1 217.2 89.1C206.6 89.1 196.1 88.9 185.5 89.2C181.8 89.3 179.8 87.9 178.3 85C177.7 83.9 177.3 82.7 176.9 81.5C175.2 76.5 173.6 71.5 171.9 66.5C171.1 64.1 170.9 63.9 168.6 63.9C157.9 63.9 147.2 63.9 136.4 63.9C134.2 63.9 133.9 64.3 133.8 66.4C133.8 69.4 133.8 72.5 133.8 75.5C133.8 76.9 133.8 78.4 133.7 79.8C133.6 81 133.7 82.7 133 83.4C131.9 84.4 130.3 85 128.7 85.4C127.5 85.7 126.2 85.6 124.9 85.6C97.9 85.6 70.8 85.6 43.8 85.6C42.2 85.6 40.6 85.5 39 85.5C37.6 85.5 36.6 84.7 36 83.5C35.1 81.9 34.5 80.4 34.5 78.5C34.6 67.3 34.6 56.1 34.8 44.9C34.9 40.2 35.8 39.4 40.6 39.4C48.3 39.4 56 39.4 63.6 39.4C83.8 39.4 103.9 39.4 124.1 39.4C126.3 39.4 128.6 39.5 130.8 39.8C132.8 40 133.6 40.9 133.8 42.9C133.9 45.3 133.9 47.7 133.9 50.1C134 52.5 134.1 54.8 134.3 57.2C136.7 58.4 139.3 57.8 141.8 57.8C150.4 57.9 159.1 57.8 167.7 57.8C168.8 57.8 170 57.7 171.1 57.9C174 58.4 176.1 59.7 177 62.7C178.8 68.5 180.8 74.2 182.7 80C183.1 80.9 183.6 81.9 184.1 83.1Z" />
					<path id="Layer" class="shp5" d="M320 191.9C316.6 191.7 312.7 192.2 308.9 191.2C307.7 190.9 306.4 191.1 305.1 191.1C297.1 191.1 289.1 191.1 281.1 191C279.8 191 278.5 190.9 277.3 190.6C276.8 190.5 276.3 189.8 276.2 189.3C276 188.4 276.7 187.8 277.5 187.6C278.2 187.4 279.1 187.3 279.9 187.3C295.5 185.9 311.2 186.5 326.8 186.3C328.1 186.3 329.4 186.3 330.6 186.5C332.3 186.9 332.9 188.9 331.8 190.3C331 191.4 329.9 192 328.5 192C325.8 191.9 323.1 191.9 320 191.9Z" />
					<path id="Layer" class="shp6" d="M97 106.3C103.1 106.3 109.1 106.3 115.2 106.3C116.8 106.3 118.4 106.5 119.6 107.7C120.5 108.6 120.6 109.7 119.7 110.6C118.8 111.5 117.7 112.2 116.3 112.2C115.3 112.2 114.4 112.2 113.4 112.2C102.3 112.2 91.1 112.1 80 112.1C78.6 112.1 77.1 112 75.7 111.7C74.6 111.5 73.7 110.4 73.7 109.3C73.6 108.1 74.6 106.8 75.9 106.6C77.2 106.4 78.4 106.4 79.7 106.4C85.6 106.3 91.3 106.4 97 106.3L97 106.3Z" />
					<path id="Layer" class="shp6" d="M265.1 90.4C259.5 90.4 253.9 90.4 248.3 90.4C247.2 90.4 246.1 90.3 245 90.1C243.9 89.9 243.1 88.8 243 87.7C242.9 86.6 243.5 85.3 244.6 85C246 84.6 247.4 84.5 248.8 84.4C257.8 84.3 266.7 84.4 275.7 84.4C278.3 84.4 280.8 84.4 283.4 84.4C284.2 84.4 285 84.4 285.8 84.6C287.4 84.9 288.5 86.4 288.3 87.6C288.1 88.8 287.1 89.9 285.7 90.1C284.6 90.3 283.5 90.3 282.4 90.3C276.6 90.3 270.9 90.3 265.1 90.4C265.1 90.3 265.1 90.3 265.1 90.4Z" />
					<path id="Layer" class="shp6" d="M265.4 129.4C260 129.4 254.5 129.4 249.1 129.4C248 129.4 246.9 129.4 245.7 129.3C244.1 129.1 243 127.9 243 126.5C243 125 244 123.9 245.6 123.6C246.5 123.5 247.5 123.4 248.5 123.4C259.9 123.4 271.2 123.4 282.6 123.4C283.9 123.4 285.2 123.5 286.4 123.8C287.5 124 288.3 125.3 288.3 126.3C288.3 127.4 287.8 128.3 286.8 128.6C285.5 129 284 129.4 282.6 129.4C276.9 129.4 271.2 129.4 265.4 129.4L265.4 129.4Z" />
					<path id="Layer" class="shp6" d="M265.8 74.7C260.2 74.7 254.6 74.7 249 74.7C247.6 74.7 246.1 74.5 244.8 74.1C243.7 73.8 243 72.6 243.1 71.5C243.2 70.4 244 69.3 245.1 69.1C246.2 68.9 247.3 68.8 248.4 68.8C260.1 68.8 271.7 68.8 283.4 68.8C284.2 68.8 285 68.8 285.8 69C287.1 69.3 288.1 70.4 288.1 71.7C288.1 73 287.4 73.9 286.3 74.3C285.3 74.7 284.1 74.8 283 74.8C277.3 74.7 271.6 74.7 265.8 74.7Z" />
					<path id="Layer" class="shp7" d="M265.8 107.6C271.5 107.6 277.3 107.6 283 107.6C284.1 107.6 285.2 107.7 286.3 108C287.4 108.4 288.1 109.3 288.2 110.5C288.3 111.7 287.3 113 286 113.3C284.9 113.5 283.8 113.6 282.7 113.6C271.8 113.6 261 113.6 250.1 113.6C248.7 113.6 247.2 113.5 245.8 113.3C244.3 113.1 243.3 112.1 243.2 110.9C243 109.5 244 108.3 245.7 107.9C246.9 107.6 248.2 107.6 249.5 107.6C254.9 107.5 260.3 107.6 265.8 107.6Z" />
					<path id="Layer" class="shp8" d="M93.5 99C88.5 99 83.6 99 78.6 99C77.3 99 76 98.9 74.8 98.6C73.8 98.4 73.3 97.5 73.2 96.4C73.2 95.3 73.7 94.5 74.7 94.2C75.9 93.9 77.2 93.8 78.5 93.7C84.9 93.6 91.3 93.5 97.7 93.4C101.2 93.3 104.7 93.2 108.2 93.1C109.5 93.1 110.8 93.1 112 93.3C113.6 93.6 114.6 94.9 114.5 96.3C114.4 97.6 113.5 98.6 112.1 98.9C111.2 99.1 110.2 99.1 109.2 99.1C103.9 99.1 98.7 99.1 93.4 99.1C93.5 99.2 93.5 99.1 93.5 99Z" />
					<path id="Layer" class="shp9" d="M254.7 187.8C254.8 189.9 253 191.8 250.8 191.8C249.2 191.8 247.6 190.2 247.3 188.4C247.1 187 248.9 185.3 250.8 185.2C253.1 185 254.6 186 254.7 187.8Z" />
					<path id="Layer" class="shp0" d="M304.4 43.6C304.9 43.4 305.2 43.2 305.5 43.2C313.5 43.2 321.5 43.2 329.5 43.3C331.5 43.3 331.8 43.6 331.8 45.4C331.9 46.8 331.8 48.3 331.8 49.7C331.8 90.5 331.9 131.2 331.9 172C331.9 172.5 331.8 172.9 331.7 173.6C330.9 173.7 330.2 173.9 329.4 173.9C322.2 173.9 315 173.9 307.8 173.9C307.3 173.9 306.8 173.9 306.4 173.9C305.5 173.8 304.9 173.4 304.9 172.4C304.9 171.1 304.9 169.8 304.9 168.6C304.8 156.9 304.8 145.3 304.7 133.6C304.7 129.8 304.3 126 304.1 122.1C304 121 304 119.9 304 118.7C304.1 95.2 304.2 71.7 304.3 48.2C304.2 46.6 304.3 45.1 304.4 43.6Z" />
					<path id="Layer" class="shp0" d="M84.4 79.6C71.6 79.6 58.8 79.6 46 79.6C44.9 79.6 43.8 79.6 42.6 79.6C40.6 79.5 40.5 79.4 40.5 77.4C40.4 67.3 40.4 57.3 40.3 47.2C40.3 46 40.8 45.4 41.9 45.3C42.7 45.3 43.5 45.3 44.3 45.3C70.8 45.3 97.4 45.3 123.9 45.3C128.1 45.3 128.1 45 128.1 49.4C128.1 58 128.1 66.7 128.1 75.3C128.1 76.1 128.1 76.9 128.1 77.7C128 79.3 127.8 79.6 126.1 79.6C118.9 79.6 111.7 79.6 104.5 79.6C97.8 79.6 91.1 79.6 84.4 79.6Z" />
					<path id="Layer" class="shp5" d="M61.6 158.3C61.5 150.9 67 146.7 73.6 146.4C75.7 146.3 77.6 147.2 79.2 148.8C81.4 151 82.8 153.6 83.7 156.6C84.4 158.9 84.1 161 82.8 163C82.1 164 81.3 165.1 80.4 166C74.4 172 66.8 169.2 63.3 164.5C62 162.5 61.5 160.4 61.6 158.3Z" />
				</g>
			</g>
		</g>
	</g>
</svg>