<svg xmlns="http://www.w3.org/2000/svg" viewBox="0 0 120 120" width="120" height="120">
	<style>
		tspan { white-space:pre }
		.shp0 { fill: #ffffff } 
		.shp1 { fill: #000000 } 
		.shp2 { fill: #cdcdcd } 
		.shp3 { fill: #fefefe } 
		.shp4 { fill: #fdfdfd } 
		.shp5 { fill: #fc9700 } 
		.shp6 { fill: #f4f7f7 } 
		.shp7 { fill: #f3f3f3 } 
		.shp8 { fill: #312a2a } 
		.shp9 { fill: #f4f5f5 } 
		.shp10 { fill: #f5f6f6 } 
		.shp11 { fill: #e7ecec } 
		.shp12 { fill: #ebecec } 
		.shp13 { fill: #f8f9f9 } 
		.shp14 { fill: #dee1e1 } 
		.shp15 { fill: #f8f8f8 } 
		.shp16 { fill: #ebf0f0 } 
		.shp17 { fill: #e3e9e9 } 
		.shp18 { fill: #dce4e4 } 
		.shp19 { fill: #373030 } 
		.shp20 { fill: #474747 } 
		.shp21 { fill: #d2d4d4 } 
		.shp22 { fill: #312b2b } 
		.shp23 { fill: #3d3131 } 
		.shp24 { fill: #b2b8b8 } 
		.shp25 { fill: #f9fefe } 
		.shp26 { fill: #b5bbbb } 
		.shp27 { fill: #afb2b2 } 
		.shp28 { fill: #4f5959 } 
		.shp29 { fill: #7c8787 } 
		.shp30 { fill: #889191 } 
		.shp31 { fill: #110f0f } 
		.shp32 { fill: #100d0d } 
		.shp33 { fill: #101111 } 
		.shp34 { fill: #1c1818 } 
		.shp35 { fill: #1c1713 } 
		.shp36 { fill: #231a10 } 
		.shp37 { fill: #150d00 } 
		.shp38 { fill: #edf4f4 } 
		.shp39 { fill: #e3ebeb } 
		.shp40 { fill: #d98300 } 
		.shp41 { fill: #f19200 } 
	</style>
	<g id="Layer">
		<g id="Layer">
			<g id="Layer">
				<g id="Layer">
					<path id="Layer" class="shp0" d="M43.69 12.31C45.63 4.2 50.37 -1.32 59.05 -1.83C69.74 -2.47 75.41 3.7 77.63 14.1C79.42 12.31 80.79 10.8 82.22 9.37C83.08 8.43 84.09 7.64 85.38 7.36C87.6 6.78 89.9 8 90.47 10.23C90.69 10.94 90.62 11.88 90.4 12.52C89.97 13.81 89.4 15.11 88.75 16.33C87.24 19.2 85.74 21.99 84.23 24.79C83.8 25.51 83.58 26.3 84.02 27.09C86.17 31.11 86.89 35.48 88.03 39.86C88.54 41.72 88.54 41.72 90.62 41.87C92.55 41.94 94.49 42.01 96.43 42.15C99.87 42.37 101.81 44.16 102.6 47.97C102.74 48.76 102.74 49.54 102.74 50.33C102.74 54.49 102.67 58.58 102.74 62.75C102.81 65.19 102.17 67.27 100.23 68.84C99.66 69.35 99.37 69.78 99.58 70.57C100.73 74.58 100.73 78.75 101.02 82.83C101.67 90.73 102.02 98.62 102.6 106.51C102.74 108.81 103.1 111.1 103.1 113.33C103.1 117.13 101.52 119 97.72 119.64C96.07 119.93 94.28 120 92.55 120C71.89 120 51.3 120 30.64 120C27.77 120 24.9 120 22.03 120C19.73 120 18.44 119.07 17.72 116.84C17.36 115.77 17.08 114.62 17.08 113.47C17.15 110.03 17.22 106.58 17.51 103.21C17.94 97.97 18.44 92.74 19.01 87.5C19.51 82.98 20.23 78.39 20.81 73.87C20.95 72.93 21.02 72.07 21.16 71.14C21.38 70.21 21.09 69.63 20.38 69.06C17.94 67.12 16.93 64.54 17 61.53C17.08 57.72 17.08 53.99 17.15 50.19C17.15 49.04 17.36 47.89 17.79 46.82C18.73 44.52 20.45 43.09 22.96 42.94C25.4 42.87 27.77 42.87 30.2 42.87C31.21 42.87 31.64 42.44 31.86 41.58C32.36 39.5 32.86 37.35 33.43 35.27C34.29 31.97 35.23 28.67 37.16 25.72C37.81 24.79 37.52 24.07 37.09 23.21C35.66 20.63 34.29 17.98 32.93 15.32C32.5 14.39 32 13.46 31.71 12.45C30.85 9.37 33.36 6.93 36.66 7.36C38.1 7.57 39.1 8.5 40.11 9.51C41.04 10.51 42.04 11.45 43.05 12.38C43.26 12.31 43.41 12.31 43.69 12.31Z" />
					<path id="Layer" class="shp1" d="M89.61 67.05C89.61 67.62 89.61 68.13 89.68 68.56C90.04 70.28 90.11 70.35 91.98 70.42C95.85 70.57 96.28 70.92 96.71 74.73C97.07 78.17 97.36 81.54 97.65 84.99C98.15 92.16 98.58 99.41 99.08 106.58C99.23 108.52 99.58 110.46 99.66 112.39C99.8 115.77 99.15 116.34 95.71 116.48C94.2 116.56 92.7 116.56 91.26 116.56C70.6 116.56 50.01 116.56 29.34 116.56C27.05 116.56 24.75 116.41 22.46 116.48C21.45 116.48 20.95 115.91 20.81 115.05C20.59 114.04 20.52 112.97 20.59 111.96C20.88 107.3 21.09 102.57 21.52 97.9C22.03 92.66 22.6 87.43 23.25 82.19C23.68 78.89 24.18 75.59 24.75 72.36C24.97 70.92 25.54 70.49 27.12 70.42C27.84 70.35 28.48 70.42 29.2 70.42C30.42 70.35 31.5 68.41 30.78 67.34C30.64 67.12 30.2 66.91 29.92 66.91C28.05 66.84 26.26 66.84 24.39 66.84C22.81 66.84 21.81 65.97 21.31 64.61C21.02 63.75 20.81 62.82 20.81 61.96C20.81 58.3 20.88 54.64 20.88 50.98C20.88 50.62 20.95 50.26 20.95 49.97C21.31 47.39 22.03 46.6 24.75 46.53C26.9 46.46 29.13 46.53 31.28 46.53C32.29 46.53 33.58 46.89 34.22 46.39C34.87 45.89 34.94 44.59 35.16 43.59C35.66 41.51 36.16 39.36 36.66 37.28C37.59 33.33 38.89 29.53 41.33 26.3C41.97 25.37 41.83 24.65 41.33 23.79C39.82 20.99 38.31 18.12 36.88 15.25C36.59 14.68 36.16 14.03 35.94 13.38C35.73 12.74 34.72 11.95 35.8 11.37C36.66 10.87 37.31 11.73 37.81 12.31C39.96 14.53 42.04 16.83 44.12 19.12C44.77 19.77 45.34 20.49 46.06 21.06C46.2 21.2 46.71 21.2 46.99 21.06C47.28 20.92 47.5 20.56 47.5 20.27C47.5 19.7 47.35 19.12 47.35 18.55C47.28 17.04 47.21 15.61 47.21 14.1C47.35 7.79 53.02 2.19 59.48 1.9C64.5 1.62 68.66 3.7 71.46 8C73.68 11.45 74.69 15.32 73.68 19.48C73.54 19.91 73.4 20.49 73.54 20.85C73.76 21.35 74.19 21.78 74.69 21.99C74.98 22.14 75.62 21.99 75.84 21.71C76.77 20.85 77.56 19.84 78.42 18.91C80.43 16.68 82.44 14.53 84.52 12.38C84.88 11.95 85.38 11.66 85.88 11.37C86.1 11.23 86.53 11.45 86.81 11.59C86.96 11.66 87.03 12.02 86.96 12.16C86.67 12.88 86.38 13.67 85.95 14.39C84.16 17.83 82.37 21.28 80.5 24.72C79.78 26.01 79.57 27.02 80.43 28.52C82.58 32.11 83.44 36.2 84.37 40.22C84.66 41.58 84.95 42.87 85.23 44.23C85.59 45.6 85.74 45.74 87.1 45.81C89.4 45.89 91.69 45.89 93.99 45.89C98.08 45.96 99.08 46.89 99.08 50.98C99.08 55 99.08 59.01 99.08 63.03C99.08 63.39 99.08 63.75 99.08 64.04C98.94 66.05 98.08 66.98 96.07 67.05C94.71 67.12 93.34 67.05 91.91 67.12C91.26 66.84 90.47 66.98 89.61 67.05Z" />
					<path id="Layer" class="shp2" d="M36.23 83.41C35.87 83.41 35.51 83.41 35.23 83.41C34.08 83.48 33.58 83.84 33.79 84.27C34.08 84.99 34.72 84.77 35.23 84.77C36.16 84.84 37.02 84.77 37.95 84.77C52.59 84.77 67.15 84.77 81.79 84.77C82.51 84.77 83.15 84.84 83.87 84.77C84.59 84.7 85.67 85.2 85.74 83.98C85.74 83.12 84.59 83.55 84.16 83.05C84.09 82.98 84.02 82.83 83.94 82.76C85.45 80.04 87.17 77.38 89.97 75.73L90.04 75.66C90.33 75.52 90.47 75.37 90.54 75.09C90.69 74.94 90.9 74.73 91.05 74.66C92.12 73.94 92.55 74.08 92.7 75.16C92.91 78.03 93.13 80.9 93.41 83.7C93.99 89.29 94.63 94.89 95.21 100.41C95.64 104.29 96 108.16 96.43 112.18C95.64 112.25 94.99 112.39 94.28 112.39C71.46 112.39 48.64 112.39 25.83 112.39C25.47 112.39 25.11 112.39 24.82 112.39C24.11 112.39 23.82 111.89 23.89 111.25C24.03 109.67 24.11 108.02 24.25 106.44C25.33 97.47 26.4 88.43 27.48 79.46C27.69 77.88 27.84 76.31 28.12 74.73C28.27 73.87 28.99 74.23 29.49 74.44C32.43 76.88 35.51 79.25 36.23 83.41Z" />
					<path id="Layer" class="shp3" d="M59.62 81.26C57.68 81.26 55.75 81.26 53.81 81.18C53.52 81.18 53.16 80.68 52.88 80.4C52.81 80.32 52.81 80.18 52.81 80.04C52.73 78.24 53.09 76.23 52.59 74.58C51.8 72.14 50.44 69.78 49.07 67.62C47.07 64.4 45.99 61.1 46.35 57.29C46.56 55 46.49 52.7 46.35 50.48C46.2 48.76 46.99 47.68 48.21 46.67C48.72 46.24 49.22 46.17 49.79 46.46C51.44 47.25 53.09 48.11 54.67 48.97C55.17 49.26 55.68 49.62 55.96 50.05C57.11 51.98 58.26 53.99 59.26 56C59.62 56.65 59.48 57.58 59.48 58.37C59.62 62.6 59.69 66.84 59.84 71.07C60.98 74.44 61.41 77.88 59.62 81.26Z" />
					<path id="Layer" class="shp4" d="M74.11 47.75C74.11 52.41 74.04 57.08 74.04 61.74C74.04 63.25 73.76 64.68 72.97 65.97C71.96 67.62 71.1 69.42 69.95 70.92C68.3 73.08 67.44 75.37 67.59 78.17C67.73 81.54 67.73 81.26 64.43 81.26C63.42 81.26 62.35 81.18 61.34 81.18C59.91 78.03 60.27 74.87 61.13 71.64C61.27 67.34 61.49 62.96 61.63 58.66C61.7 57.51 61.56 56.43 62.92 55.71C63.42 55.43 63.78 54.71 64.14 54.06C64.86 52.92 65.5 51.7 66.15 50.48C66.94 48.9 67.94 47.61 69.52 46.75C71.67 44.38 72.39 44.52 74.11 47.75Z" />
					<path id="Layer" class="shp5" d="M50.65 15.25C50.58 12.24 51.59 9.8 53.74 7.79C56.89 4.99 60.34 4.42 64.28 5.92C69.95 8.15 73.68 17.98 67.15 23.28C66.44 23.86 65.86 24.93 64.64 24.5C64.93 23.64 65.07 22.78 65.43 21.99C65.93 20.85 66.58 19.77 67.08 18.62C67.44 17.83 66.94 16.97 66.08 16.76C65.15 16.47 63.85 17.11 64 17.9C64.5 20.27 63.07 22.07 62.2 24C61.7 25.22 60.48 25.37 59.76 24.36C58.98 23.28 58.33 22.07 57.54 20.92C56.97 20.13 57.68 19.34 57.4 18.62C57.25 18.19 56.75 17.62 56.32 17.47C55.89 17.33 55.17 17.62 54.81 17.9C54.46 18.26 54.17 19.05 54.31 19.41C55.03 20.85 55.96 22.14 56.75 23.5C56.82 23.64 56.75 23.93 56.68 24.07C56.54 24.22 56.32 24.15 56.11 24.15C56.03 24.15 55.89 24.07 55.82 24C52.45 22.07 50.29 19.27 50.65 15.25Z" />
					<path id="Layer" class="shp6" d="M61.77 40.72C64.86 37.2 68.02 33.69 71.1 30.17C72.46 28.59 73.76 27.02 75.19 25.51C75.48 25.22 75.91 25.08 76.27 24.79C76.98 25.72 76.55 26.59 75.98 27.3C71.75 33.4 67.44 39.5 62.92 45.45C61.92 46.75 60.63 47.1 59.48 45.6C54.53 39.21 49.43 32.83 45.56 25.72C45.63 25.15 45.77 24.72 46.49 24.93C50.15 29.17 53.81 33.4 57.47 37.56C58.26 38.5 59.26 39.28 60.12 40.15C61.13 39.5 60.41 43.09 61.77 40.72Z" />
					<path id="Layer" class="shp7" d="M74.76 35.12C75.41 33.69 76.19 32.32 77.27 30.67C77.7 31.54 78.13 32.11 78.28 32.68C81.86 43.88 84.95 55.21 87.03 66.84C87.1 67.41 87.17 67.98 87.24 68.56C87.6 70.14 87.03 71.21 85.38 71.86C84.95 70.06 84.73 68.27 84.45 66.55C83.23 57.94 81.72 49.4 78.92 41.15C78.35 39.57 77.56 37.99 76.84 36.49C76.63 35.98 76.12 35.55 75.48 35.98C74.9 35.98 74.54 35.77 74.76 35.12Z" />
					<path id="Layer" class="shp8" d="M46.06 25.51C50.87 32.54 55.89 39.43 61.06 46.32C61.49 45.96 61.77 45.81 61.99 45.53C66.65 39.07 71.32 32.54 75.98 26.01C76.19 25.65 76.27 25.22 76.34 24.79L76.27 24.86C76.41 24.65 76.63 24.58 76.84 24.65C77.06 24.79 77.06 25.01 77.06 25.29C77.2 25.8 77.63 26.37 77.49 26.73C77.06 27.8 76.34 28.74 75.76 29.74C75.19 29.67 75.26 30.17 74.98 30.46L75.05 30.39C72.82 33.11 71.24 36.2 69.16 39C67.51 41.87 65.29 44.31 63.42 47.03C62.06 49.04 60.63 48.68 59.26 47.1C56.75 44.16 54.46 41.08 52.52 37.71C50.8 35.63 49.58 33.26 48 31.03L48.07 31.11C47.71 30.53 47.42 29.89 46.71 29.67C45.63 28.88 45.27 27.59 44.91 26.44C44.84 26.23 45.34 25.8 45.63 25.44C45.7 25.22 45.85 25.29 46.06 25.51Z" />
					<path id="Layer" class="shp9" d="M52.73 37.42C55.46 41.01 58.19 44.59 60.77 47.97C61.2 48.04 61.34 48.11 61.41 48.04C61.49 48.04 61.63 47.89 61.7 47.82C64.07 44.74 66.37 41.72 68.73 38.64C69.38 38.57 69.74 38.78 69.59 39.5C67.37 43.59 65.07 47.61 62.85 51.7C62.78 51.91 62.49 51.98 62.2 52.27C61.99 51.48 61.77 50.84 61.56 50.05C61.13 50.98 60.7 51.77 60.2 52.84C57.61 48.18 55.24 43.8 52.81 39.43C52.66 39.14 52.52 38.85 52.3 38.64C52.16 38.5 52.09 38.35 52.09 38.14C51.8 37.49 52.16 37.35 52.73 37.42Z" />
					<path id="Layer" class="shp10" d="M86.53 49.76C89.83 49.76 92.91 49.76 95.85 49.76C96.07 50.05 96.28 50.19 96.28 50.41C96.43 56.07 97.22 55.57 91.41 55.64C90.19 55.64 88.89 55.5 87.67 55.36C87.32 54.21 86.96 52.99 86.67 51.84C86.67 51.27 86.67 50.69 86.53 49.76Z" />
					<path id="Layer" class="shp11" d="M61.27 34.05C58.69 34.12 56.39 33.47 54.96 31.25C53.52 29.17 51.8 27.37 50.15 25.51C49.86 25.15 49.65 24.79 49.43 24.36C49.36 24.29 49.43 24.07 49.5 24.07C49.65 23.93 49.86 23.79 50.01 23.86C50.37 24.07 50.72 24.36 51.08 24.65C52.16 25.44 53.24 26.37 54.46 27.02C55.82 27.73 56.46 28.52 56.46 30.17C56.46 31.61 57.25 32.25 58.62 32.32C60.41 32.4 62.28 32.32 64.14 32.25C65.36 32.18 65.86 31.61 66.01 30.24C66.08 29.81 66.08 29.31 66.08 28.88C66.08 28.31 66.29 27.8 66.8 27.45C68.16 26.44 69.52 25.44 70.96 24.43C71.17 24.29 71.6 24.36 71.89 24.5C72.32 24.79 72.46 25.22 72.18 25.65C70.31 27.95 68.45 30.32 66.44 32.47C65.86 33.11 64.93 33.47 64.07 33.76C63.14 34.05 62.2 33.98 61.27 34.05Z" />
					<path id="Layer" class="shp12" d="M28.7 55.71C28.55 55.71 28.48 55.71 28.34 55.71C27.12 55.57 25.83 56 24.68 55.21C24.61 53.78 24.47 52.27 24.47 50.84C24.47 50.55 25.04 50.05 25.4 50.05C27.91 49.97 30.42 49.97 32.93 50.05C33.15 50.05 33.36 50.48 33.58 50.69C33.65 50.76 33.58 50.91 33.58 51.05C33.51 55.36 33.22 55.64 28.7 55.71Z" />
					<path id="Layer" class="shp13" d="M87.75 57.15C89.47 57.15 90.76 57.08 91.98 57.15C93.34 57.22 94.71 57.36 96.07 57.44C96.86 59.09 96.36 60.81 96.36 62.46C96.36 62.75 95.85 63.18 95.49 63.32C95.06 63.46 94.56 63.39 94.13 63.39C92.41 63.32 90.69 63.25 89.04 63.18C88.18 61.38 88.1 59.45 87.75 57.15Z" />
					<path id="Layer" class="shp14" d="M45.92 65.47C44.55 64.54 43.84 63.61 43.84 62.1C43.84 56.93 43.84 51.84 43.77 46.67C43.77 46.03 43.91 45.6 44.41 45.24C45.49 44.23 46.56 43.23 47.85 42.08C49.65 43.09 51.44 44.09 53.16 45.1C53.38 45.24 53.67 45.74 53.59 45.96C53.38 46.53 52.88 46.32 52.52 46.17C51.59 45.81 50.65 45.31 49.65 45.02C49 44.81 48.29 44.88 47.78 45.38C47.21 45.96 46.63 46.53 46.06 47.03C45.56 47.54 45.34 48.11 45.34 48.9C45.34 53.35 45.34 57.8 45.34 62.24C45.34 63.25 45.63 64.25 45.92 65.47Z" />
					<path id="Layer" class="shp15" d="M32.64 57.29C32.29 59.37 32 61.24 31.64 63.25C30.71 63.32 29.99 63.39 29.2 63.39C23.96 63.39 23.89 63.32 24.47 58.23C24.54 57.87 24.9 57.36 25.18 57.29C27.62 57.08 29.99 57.08 32.64 57.29Z" />
					<path id="Layer" class="shp16" d="M69.38 44.23C70.38 43.52 71.39 42.8 72.32 42.15C72.61 42.3 72.75 42.37 72.82 42.44C74.04 43.52 75.62 44.38 76.27 45.74C76.84 47.03 76.48 48.83 76.48 50.41C76.48 54.21 76.48 57.94 76.48 61.74C76.48 62.39 76.27 63.03 76.12 63.68C76.12 63.75 75.91 63.97 75.91 63.89C75.76 63.75 75.41 63.68 75.41 63.53C75.33 62.89 75.33 62.17 75.33 61.45C75.33 57.29 75.33 53.2 75.33 49.04C75.33 48.25 75.55 47.39 74.83 46.82C73.54 45.1 71.1 45.45 69.38 44.23Z" />
					<path id="Layer" class="shp17" d="M30.85 73.87C31.78 73.58 32.5 73.72 33.22 74.51C34.87 76.52 36.66 78.39 38.38 80.32C39.17 81.18 39.17 81.26 37.81 82.26C34.44 80.25 31.78 77.74 30.85 73.87Z" />
					<path id="Layer" class="shp18" d="M83.23 82.05C83.01 82.05 82.72 82.12 82.58 82.05C81.58 81.62 81.36 81.26 81.93 80.61C83.3 79.03 84.66 77.53 86.02 76.02C86.6 75.37 87.24 74.66 87.82 74.01C88.32 73.51 88.89 73.79 89.4 73.87C89.54 74.08 89.61 74.3 89.54 74.51C89.4 74.66 89.25 74.8 89.25 75.01C87.67 77.74 86.1 80.47 83.23 82.05Z" />
					<path id="Layer" class="shp19" d="M30.85 73.87C30.92 74.15 30.92 74.58 31.14 74.8C33.36 77.31 35.59 79.75 37.81 82.26C37.52 82.91 37.09 83.41 36.3 83.41C34.94 81.62 33.51 79.82 32.14 78.03C31.28 76.88 30.42 75.66 29.49 74.51C29.92 74.3 30.35 74.08 30.85 73.87Z" />
					<path id="Layer" class="shp20" d="M61.06 71.71C61.13 74.87 61.2 78.1 61.27 81.26C60.7 81.26 60.2 81.26 59.62 81.26C59.69 78.89 59.76 76.45 59.76 74.08C59.76 73.08 59.84 72.07 59.84 71C60.27 71.21 60.63 71.43 61.06 71.71Z" />
					<path id="Layer" class="shp21" d="M40.9 36.99C41.25 34.12 42.19 31.46 43.91 29.1C45.56 30.82 45.56 30.82 44.63 32.04C43.33 33.76 42.11 35.41 40.9 36.99Z" />
					<path id="Layer" class="shp22" d="M83.23 82.05C85.23 79.68 87.24 77.38 89.25 75.01C89.47 75.3 89.76 75.59 89.97 75.8C88.25 78.39 86.24 80.75 83.94 82.83C83.66 82.55 83.44 82.33 83.23 82.05Z" />
					<path id="Layer" class="shp23" d="M69.38 44.23C69.59 44.45 69.88 44.81 70.02 44.74C70.46 44.67 70.81 44.38 71.17 44.09C71.96 43.59 72.61 43.59 73.18 44.38C73.76 45.17 74.26 46.03 74.83 46.89C74.54 47.18 74.26 47.39 74.04 47.68C73.97 47.61 73.83 47.61 73.76 47.54C73.04 46.89 72.46 45.89 71.6 45.67C70.96 45.53 70.1 46.32 69.31 46.75C68.45 45.24 68.45 45.24 69.38 44.23Z" />
					<path id="Layer" class="shp24" d="M69.52 39.5C69.24 39.21 68.95 38.93 68.66 38.64C70.53 35.91 72.39 33.26 74.33 30.53C74.4 30.39 74.69 30.39 74.9 30.32C74.69 30.82 74.62 31.39 74.33 31.82C72.82 34.48 71.17 36.99 69.52 39.5Z" />
					<path id="Layer" class="shp25" d="M60.7 29.38C60.7 29.38 60.48 29.38 60.27 29.38C59.26 29.38 58.55 28.16 59.12 27.23C59.26 27.02 59.62 26.73 59.91 26.73C60.84 26.73 61.7 26.73 62.63 26.8C63.35 26.87 63.5 27.37 63.5 27.95C63.5 28.59 63.35 29.1 62.63 29.17C62.06 29.38 61.49 29.31 60.7 29.38Z" />
					<path id="Layer" class="shp26" d="M52.73 37.42C52.52 37.71 52.23 37.92 52.02 38.21C50.65 36.06 49.29 33.9 47.93 31.75C47.85 31.61 47.93 31.32 48 31.11C49.07 31.46 49.36 32.47 49.94 33.26C50.94 34.62 51.8 35.98 52.73 37.42Z" />
					<path id="Layer" class="shp27" d="M74.76 35.12C75.05 35.41 75.26 35.7 75.55 35.98C74.62 37.28 73.76 38.57 72.82 39.86C72.75 40 72.39 40.07 72.25 40C72.11 39.93 72.03 39.57 72.11 39.43C72.97 37.92 73.9 36.49 74.76 35.12Z" />
					<path id="Layer" class="shp28" d="M61.77 40.72C61.77 41.58 61.77 42.44 61.77 44.02C61.13 43.09 60.77 42.8 60.7 42.44C60.48 41.72 60.41 40.93 60.27 40.15C60.77 40.36 61.27 40.58 61.77 40.72Z" />
					<path id="Layer" class="shp29" d="M76.34 24.29C77.06 23.36 77.77 22.42 78.56 21.42C79.21 22.21 78.78 22.64 78.49 23.07C77.99 23.86 77.49 24.58 76.98 25.29C76.84 25.15 76.77 24.93 76.91 24.79C76.7 24.65 76.48 24.5 76.34 24.29Z" />
					<path id="Layer" class="shp30" d="M46.06 25.51L45.85 25.51L45.63 25.51C45.06 24.43 44.48 23.36 43.84 22.28L44.05 22.07C45.27 22.71 46.13 23.72 46.71 24.93C46.42 25.15 46.2 25.37 46.06 25.51Z" />
					<path id="Layer" class="shp26" d="M46.63 29.74C46.78 29.67 46.99 29.53 47.14 29.46C47.42 30.03 47.71 30.6 48 31.18C47.07 31.18 47.21 30.17 46.63 29.74Z" />
					<path id="Layer" class="shp24" d="M74.9 30.46C74.98 29.38 74.98 29.38 75.69 29.74C75.41 30.03 75.12 30.24 74.9 30.46Z" />
					<path id="Layer" class="shp22" d="M89.54 74.51C89.47 74.3 89.47 74.08 89.4 73.87C89.97 74.08 89.97 74.08 89.54 74.51Z" />
					<path id="Layer" class="shp6" d="M76.34 24.29C76.55 24.43 76.7 24.58 76.91 24.72C76.7 24.79 76.48 24.86 76.19 24.86C76.27 24.72 76.27 24.5 76.34 24.29Z" />
					<path id="Layer" class="shp22" d="M90.54 75.16C90.4 75.37 90.19 75.52 90.04 75.73C90.19 75.52 90.4 75.37 90.54 75.16Z" />
					<path id="Layer" class="shp30" d="M43.77 22.28C43.62 22.07 43.55 21.85 43.41 21.63C43.55 21.78 43.77 21.92 43.98 22.07L43.77 22.28Z" />
					<path id="Layer" class="shp26" d="M52.23 38.71C52.37 39 52.59 39.21 52.73 39.5C52.59 39.21 52.45 38.93 52.23 38.71Z" />
					<path id="Layer" class="shp31" d="M33.07 101.92C34.22 101.78 35.3 101.92 36.02 103.07C36.73 104.36 36.95 105.65 36.3 107.01C35.73 108.23 34.8 109.02 33.58 109.45C31.14 110.24 28.55 108.09 28.99 105.58C29.27 103.21 30.92 101.42 33.07 101.92Z" />
					<path id="Layer" class="shp32" d="M42.76 101.92C44.91 101.92 46.13 103.07 46.2 105.22C46.28 107.3 44.7 109.24 42.62 109.52C40.32 109.88 38.31 108.02 38.46 105.72C38.6 103.28 40.18 101.92 42.76 101.92Z" />
					<path id="Layer" class="shp33" d="M88.89 102.71C88.61 99.98 88.32 97.26 88.03 94.53C87.89 92.95 88.25 91.88 88.97 92.02C90.19 92.23 90.19 93.24 90.26 94.17C90.47 97.04 90.69 99.84 90.83 102.71C90.9 103.5 90.83 104.36 90.47 105.08C89.97 106.01 90.47 107.52 88.89 107.73C88.18 106.87 88.68 105.79 88.54 104.86C88.46 104.22 88.54 103.5 88.54 102.78C88.68 102.71 88.82 102.71 88.89 102.71Z" />
					<path id="Layer" class="shp34" d="M83.8 103C83.94 102.13 84.02 101.42 84.23 100.84C84.37 100.48 84.88 100.13 85.23 100.13C85.59 100.13 86.17 100.48 86.31 100.77C86.81 102.35 86.81 103.93 85.59 105.22C85.31 105.51 84.59 105.51 84.45 105.08C84.23 104.36 84.02 103.64 83.8 103Z" />
					<path id="Layer" class="shp35" d="M53.38 60.09C53.38 61.31 53.45 62.6 53.38 63.82C53.24 64.97 52.16 65.9 51.08 65.97C50.01 66.05 48.79 65.33 48.36 64.32C48.21 63.89 48.07 63.46 48.07 63.03C48.07 60.95 48 58.94 48.07 56.86C48.14 55.36 49.29 54.28 50.65 54.21C52.02 54.14 53.16 55.14 53.45 56.72C53.52 56.93 53.52 57.15 53.52 57.36C53.52 58.3 53.52 59.16 53.52 60.09C53.45 60.09 53.45 60.09 53.38 60.09Z" />
					<path id="Layer" class="shp36" d="M72.32 60.23C72.32 61.24 72.39 62.32 72.32 63.32C72.18 64.9 71.17 65.9 69.74 66.05C68.37 66.12 67.15 65.19 67.08 63.53C67.01 61.17 66.94 58.73 67.15 56.43C67.37 54.42 69.74 53.56 71.32 54.85C71.82 55.21 72.18 55.93 72.25 56.58C72.39 57.72 72.25 58.94 72.32 60.23C72.25 60.23 72.32 60.23 72.32 60.23Z" />
					<path id="Layer" class="shp37" d="M56.75 12.88C56.89 11.81 57.04 10.73 57.18 9.58C57.25 9.01 57.4 8.29 58.11 8.36C58.62 8.36 59.05 8.86 59.55 9.08C59.62 9.15 59.69 9.29 59.76 9.37C60.27 9.94 60.34 11.09 61.27 11.02C61.85 10.94 62.28 10.16 62.85 9.8C63.85 9.08 64.93 9.44 65.15 10.73C65.29 12.02 65.79 12.45 67.01 12.52C68.02 12.59 68.45 13.31 68.23 14.17C68.16 14.46 67.8 14.89 67.66 14.89C66.58 14.82 65.43 14.6 64.36 14.39C64.14 14.32 63.93 14.17 63.85 13.96C63.35 12.88 62.85 12.67 61.85 13.53C60.91 14.32 60.27 13.53 59.62 12.81C59.12 12.16 58.76 12.31 58.55 13.1C58.19 14.39 57.83 15.61 56.03 15.03C55.82 14.96 55.46 15.25 55.17 15.39C54.17 15.97 53.81 15.82 53.59 14.89C53.24 13.17 53.81 12.67 55.6 12.95C55.82 12.95 56.03 13.02 56.25 13.02C56.39 13.02 56.54 12.95 56.75 12.88Z" />
					<path id="Layer" class="shp38" d="M34.65 104.79C34.44 105.44 34.29 106.01 34.08 106.44C33.65 107.09 32.57 107.3 32 106.94C31.28 106.51 31.21 105.87 31.42 105.15C31.5 104.72 31.78 104.29 32.07 104C32.5 103.43 33.15 103.07 33.79 103.5C34.08 103.71 34.29 104.29 34.65 104.79Z" />
					<path id="Layer" class="shp39" d="M40.54 105.87C40.75 105.22 40.9 104.79 41.11 104.43C41.61 103.64 42.4 103.14 43.05 103.28C43.77 103.5 44.27 104.65 43.98 105.58C43.69 106.51 42.83 107.3 41.97 107.01C41.4 106.87 41.04 106.3 40.54 105.87Z" />
					<path id="Layer" class="shp40" d="M49.65 60.16C49.65 59.16 49.58 58.08 49.65 57.08C49.72 56.5 50.08 56 50.8 56.07C51.44 56.07 51.87 56.58 51.87 57.15C51.94 59.23 51.94 61.24 51.87 63.32C51.87 63.89 51.44 64.4 50.72 64.32C50.08 64.25 49.65 63.82 49.65 63.25C49.58 62.17 49.65 61.17 49.65 60.16L49.65 60.16Z" />
					<path id="Layer" class="shp41" d="M70.67 59.95C70.67 61.1 70.67 62.24 70.67 63.32C70.67 63.89 69.95 64.4 69.45 64.18C69.09 64.04 68.73 63.61 68.73 63.25C68.66 61.24 68.66 59.16 68.73 57.15C68.73 56.93 68.8 56.65 68.95 56.5C69.16 56.29 69.52 56 69.74 56.07C70.02 56.07 70.46 56.36 70.53 56.58C70.74 57.65 70.81 58.8 70.89 59.95C70.81 59.95 70.74 59.95 70.67 59.95Z" />
				</g>
			</g>
		</g>
	</g>
</svg>