<svg xmlns="http://www.w3.org/2000/svg" viewBox="0 0 850 200" width="850" height="200">
	<style>
		tspan { white-space:pre }
		.shp0 { fill: #000000 } 
		.shp1 { fill: #ffffff } 
		.shp2 { fill: #ff9900 } 
		.shp3 { fill: #f2f9f9 } 
		.shp4 { fill: #f8f7ef } 
		.shp5 { fill: #0d0c0c } 
		.shp6 { fill: #0e0d0d } 
		.shp7 { fill: #0a0701 } 
		.shp8 { fill: #0a0603 } 
		.shp9 { fill: #120b03 } 
		.shp10 { fill: #120d05 } 
		.shp11 { fill: #c4bdbd } 
		.shp12 { fill: #dbdcdc } 
		.shp13 { fill: #d0dede } 
		.shp14 { fill: #e5efef } 
	</style>
	<g id="instruction_x5F_box_xA0_Image_1_">
		<g id="Layer">
			<g id="Layer">
				<path id="Layer" class="shp0" d="M72.3 146.5C68.3 146.6 64.5 147 60.7 146.8C38.6 145.8 19.7 130.7 14.2 109.6C8.1 86.4 19.6 63.2 40.2 52.9C49.1 48.4 58.6 46.6 68.6 47.8C69.4 47.9 70.2 48 71 48C71.9 48.1 72.5 47.7 72.5 46.7C72.5 44.1 72.5 41.6 72.5 39C72.5 33.2 75.1 29.8 80.6 28C83.4 27.1 86.2 26.8 89.1 26.8C117.7 26.8 146.3 26.8 175 26.8C368.5 26.8 562 26.8 755.5 26.9C770.7 26.9 785.9 27 801.1 27.1C805.4 27.1 809.7 27.4 814 27.8C819.9 28.3 823.7 31.9 824.4 37.8C824.8 41.3 824.6 44.8 824.6 48.3C824.6 82.5 824.6 116.7 824.6 150.9C824.6 153.5 824.7 156 824.6 158.6C824.6 160 824.4 161.5 824.1 162.9C823.2 167 820.5 169.7 816.5 170.7C814 171.3 811.5 171.6 808.9 171.6C795.9 171.8 783 171.9 770 171.9C691.8 172 613.6 172 535.4 172C428.9 172 322.4 172 215.9 172.1C173.8 172.1 131.8 172.1 89.7 172.2C86.3 172.2 83 171.8 79.8 170.7C74.9 169 72.2 165.1 72.4 160.2C72.5 156.5 72.4 152.8 72.4 149.2C72.5 148.4 72.3 147.5 72.3 146.5Z" />
				<path id="Layer" class="shp1" d="M797 46.3C796.8 51.6 798.8 55.2 803.7 57C803.7 61.4 803.7 65.7 803.7 70C803.7 92.5 803.7 115.1 803.7 137.6C803.7 138.7 803.7 139.8 803.7 141C803.7 142.1 803.3 142.7 802.4 143.3C801.2 144.1 800.1 145.1 799.2 146.2C797.9 147.7 797.1 149.4 797.1 151.4C797.1 152.6 796.4 153.1 795.3 153.2C794.5 153.3 793.7 153.3 792.9 153.3C784.4 153.2 776 152.9 767.5 152.9C640.2 152.8 512.9 152.8 385.7 152.8C293.1 152.8 200.5 152.8 108 152.8C106.2 152.8 104.5 152.8 102.8 152.8C101.8 149.7 100.8 146.9 99.8 144.1C101.9 142.1 103.9 140.2 105.9 138.5C112.2 133.1 115.9 126.1 118.2 118.3C121.7 106.7 120.9 95.2 116.4 84.1C115 80.5 112.8 77.2 109.7 74.9C106.7 72.6 105.2 69.2 102.9 66.3C102.6 65.9 102.6 65 102.9 64.6C104.8 60.7 106.8 56.9 108.7 53C109.4 51.5 110.5 51 112.1 50.9C120.7 50.5 129.3 49.6 137.9 49.6C176.4 49.4 215 49.6 253.5 49.5C289.8 49.4 326.1 49.2 362.4 49C381.3 48.9 400.1 48.8 419 48.7C426.4 48.6 433.7 48.6 441.1 48.3C447.5 48 453.8 47.3 460.2 46.8C461.8 46.7 463.4 46.7 465 46.7C565.4 46.6 665.8 46.6 766.2 46.5C775 46.5 783.8 46.4 792.6 46.3C794 46.1 795.4 46.2 797 46.3Z" />
				<path id="Layer" class="shp2" d="M817.3 36.4C818.8 37.8 818.4 39.7 818.4 41.4C818.4 49.7 818.3 58 818.3 66.3C818.3 94.6 818.3 122.9 818.3 151.1C818.3 154 818.5 156.9 818.4 159.7C818.3 163.2 817 165 813.6 166C811.6 166.6 809.5 166.9 807.5 166.9C788.2 166.8 768.8 166.4 749.5 166.4C530.2 166.3 310.9 166.2 91.6 166.2C90.2 166.2 88.7 166.3 87.3 166.2C85.4 165.9 83.5 165.5 81.7 165C79.8 164.4 78.9 162.9 78.7 161C78.6 160.4 78.6 159.7 78.6 159.1C78.6 155.1 78.8 151.1 78.7 147.1C78.7 145.4 79.4 144.5 81 144C83.1 143.2 85.1 142.2 87.2 141.4C88.3 140.9 89.1 141.5 88.9 142.8C88.8 143.9 88.4 145 88.2 146C88 147.2 88.7 148.5 89.8 148.5C94 148.3 95.8 150.6 96.6 154.4C96.7 155 97.7 155.5 98.2 156C100.3 158.2 103 158.9 106 158.9C139.4 158.9 172.8 159.3 206.2 158.7C217.1 158.5 227.9 158.1 238.8 158.1C322.3 158.1 405.7 158.5 489.2 157.7C531.6 157.3 573.9 156.6 616.3 157.3C675.1 158.3 734 157.4 792.8 157.9C796.3 157.9 799.9 158.3 802.9 155.9C805.1 154.6 805.5 156.6 806.3 157.9C807.4 159.8 809.1 160.4 811.2 159.8C813.4 159.2 814 157.4 814.1 155.4C814.1 153.2 813.2 151.8 810.8 151.6C809.7 151.5 808.5 151.6 808.4 150C810.1 133.7 812.5 117.5 812.3 101C812.2 91.6 813.8 82.3 812.1 72.9C811.2 67.8 810.5 62.6 808.5 57.7C808.4 56.8 808.3 55.8 808.2 54.9C808.1 54 807.8 53.4 806.9 53.2C806.3 53.1 805.7 52.8 805.1 52.6C803.2 51.7 802 50.4 802.1 48.2C802.1 47.7 802.1 47.2 802.1 46.8C801.9 45.1 801.4 44.5 799.7 44.4C795.2 44.1 790.8 43.8 786.3 43.8C749.2 43.7 712.1 43.6 675 43.6C525.7 43.6 376.3 43.6 227 43.6C187 43.6 147 43.6 107.1 43.6C105.8 43.6 104.5 43.7 103.3 43.6C100.2 43.5 97.6 43.8 96.7 47.5C96.2 49.3 94.5 50 92.5 50C89.7 50 89.7 50.1 89.1 53.1C89 53.4 88.8 53.7 88.6 54.2C85.9 52.9 83.2 51.7 80.5 50.4C79.7 47.2 80.6 44.1 81.3 41.1C82.4 36.6 84.5 35.2 89.5 35.2C91.7 37.6 89 38 87.9 38.6C85.9 39.7 84.3 40.7 85.5 43.3C86.3 45 87.7 46.2 89.6 45.5C91.9 44.7 93.9 43.4 93.6 40.4C93.3 38.5 91.9 36.3 95.2 35.6C97.9 35.1 100.6 35.2 103.3 35.2C335.4 35.2 567.6 35.2 799.7 35.2C802.4 35.2 805.1 35 807.8 35.5C809.4 36 811 36.6 809 38.6C808.6 39 808 39.4 807.6 39.8C805.7 41.5 805.1 43.5 806.5 45.7C807.5 47.4 809.1 48 811 47.3C813.5 46.3 814.4 44.3 814.3 41.6C814.3 39.6 811.4 38.3 813.3 36C814.5 35.2 815.9 35.5 817.3 36.4Z" />
				<path id="Layer" class="shp1" d="M63.1 142.1C50.2 141.9 39.1 137.4 30 128.2C13.6 111.6 13 85.3 28.5 67.8C45.6 48.5 75.9 46.9 94.6 64.5C107 76.1 111.7 90.6 107.8 107.2C103.9 123.9 93 134.7 76.7 140.1C72.4 141.5 67.8 142.3 63.1 142.1Z" />
				<path id="Layer" class="shp3" d="M804.3 156.1C803.2 158.6 801.4 159.7 798.6 159.3C797.2 159.1 795.7 159.1 794.3 159.1C743.4 159.1 692.6 159.2 641.7 159.1C608.1 159 574.5 158.6 541 158.6C488.7 158.7 436.4 159.1 384.1 159.3C340.1 159.4 296.1 159.3 252.2 159.4C223.7 159.5 195.3 160 166.8 160.2C146.2 160.3 125.5 160.3 104.9 160.3C104.6 160.3 104.3 160.3 103.9 160.3C100.2 160.2 99.5 159.6 98.2 155.8C105.4 155.9 112.6 156.1 119.7 156.1C331.6 156 543.4 156 755.3 155.9C768.3 155.9 781.2 155.7 794.2 155.5C795.6 155.5 797.1 155.5 798.5 155.3C800.4 155.1 801.4 154.2 801.5 152.2C801.6 149.8 802.8 148.3 804.5 147C805.3 146.4 806.1 145.9 806.7 145.2C807.6 144.3 808.2 143.2 808.2 141.8C808.2 140 808.3 138.3 808.3 136.5C808.3 111.7 808.3 87 808.3 62.2C808.3 60.6 808.4 59 808.4 57.4C809.6 57.8 810.1 58.8 810.5 59.8C811.2 61.9 811.9 64 812.3 66.2C814.3 75.5 814.4 84.8 813.8 94.3C813.4 100.5 813.6 106.7 813.2 112.9C812.7 120.4 812 127.8 811.3 135.3C811.2 136.4 810.9 137.5 810.5 138.6C809.8 140.8 808.9 142.9 810.4 145.4C811.5 147.1 809.9 149 808.7 150.5C807.6 152.7 806.5 154.9 804.3 156.1Z" />
				<path id="Layer" class="shp4" d="M89.4 35.8C88 36 86.5 36 85.2 36.5C83.5 37.1 82.4 38.4 82.2 40.4C82 42.5 81.6 44.5 81.2 46.5C80.9 47.7 80.5 48.9 80.1 50.1C79.6 49.7 78.8 49.4 78.8 49C78.6 45.7 78.5 42.3 78.5 38.9C78.5 36.4 79.9 34.7 82.3 34C84.1 33.5 86 33.2 87.9 33C89.3 32.8 90.8 33 92.2 33C279.7 32.9 467.2 32.9 654.7 32.8C696.3 32.8 737.8 32.8 779.4 32.7C788.8 32.7 798.3 32.5 807.7 32.4C810.3 32.4 812.8 32.7 815.1 33.9C816.1 34.4 817.1 35 817.2 36.3C815.4 36.4 813.7 36.4 811.9 36.5C811.2 37.2 810.5 37.2 809.9 36.5C808.3 36.4 806.7 36.3 805.1 36.3C571.9 36.3 338.7 36.3 105.5 36.3C101.2 36.3 96.9 36.3 92.6 36.2C91.4 37.2 90.4 36.5 89.4 35.8Z" />
				<path id="Layer" class="shp5" d="M131.9 118.4C131.9 125.6 129.1 131.6 124.1 136.6C123.4 137.3 122.3 137.9 121.3 138.2C120.7 138.4 119.8 137.9 119.3 137.4C119 137.1 119 136.2 119.3 135.7C119.6 135 120.2 134.4 120.7 133.8C123.4 131 125.2 127.7 126.6 124.1C127.8 121.2 129 118.2 130.2 115.3C130.3 115 130.9 114.8 131.3 114.8C131.5 114.8 131.8 115.2 131.9 115.4C132 116.5 131.9 117.5 131.9 118.4Z" />
				<path id="Layer" class="shp6" d="M136.1 134.2C136.3 137.5 134.7 140 132.2 142C131.5 142.5 130.5 142.8 129.6 142.9C127.9 143 126.6 140.8 127.5 139.5C129.6 136.7 131.8 134 134 131.3C134.5 130.7 135.7 131.1 135.9 131.9C136 132.2 136 132.5 136 132.8C136 133.3 136 133.7 136.1 134.2Z" />
				<path id="Layer" class="shp7" d="M809.9 36.6C810.6 36.6 811.3 36.6 812 36.6C812.6 37.1 813.3 37.5 813.9 38C815.7 40 815.9 42.3 815 44.6C814.1 47 812.2 48.4 809.7 48.8C807.3 49.2 805.1 47.7 804.2 45.3C803.3 42.8 804.1 39.9 806.3 38.6C807.5 37.9 808.7 37.3 809.9 36.6Z" />
				<path id="Layer" class="shp8" d="M804.3 156.1C804.8 153.5 805.9 151.3 808.8 150.5C809.3 150.5 809.7 150.4 810.2 150.4C811 150.3 811.8 149.9 812.5 150.1C813.3 150.4 814.2 151 814.7 151.8C816.1 154 815.9 156.4 814.8 158.6C813.8 160.7 811.9 161.6 809.7 161.5C808.5 161.4 807.2 160.9 806.2 160.3C804.5 159.5 804.4 157.7 804.3 156.1Z" />
				<path id="Layer" class="shp9" d="M89.4 35.8C90.5 36 91.6 36.1 92.7 36.3C92.9 36.5 93.1 36.8 93.3 37C95.1 38.8 95.4 40.9 94.2 43.1C93 45.3 91 46.6 88.4 46.7C86.1 46.8 83.8 44.9 83.4 42.4C83.3 41.5 83.5 40.5 83.8 39.6C84.3 38.4 85.2 37.7 86.6 37.3C87.6 37.3 88.5 36.4 89.4 35.8Z" />
				<path id="Layer" class="shp10" d="M82.9 156.8C82.8 154 86 151 88.7 151.2C91.2 151.3 93.5 153.6 93.7 156.1C93.9 159.2 91.3 161.8 88.1 161.9C85.2 161.9 82.9 159.7 82.9 156.8Z" />
				<path id="Layer" class="shp0" d="M53.6 131.3C54.8 128.7 55.8 126.2 57 123.8C58.1 121.6 59.8 119.9 62 118.8C63.7 117.9 65.4 117 67 116C69.2 114.7 71.2 113.2 72.9 111.2C74.7 109.2 77 107.7 79.1 106C79.8 105.4 80.8 105 81.4 104.3C81.8 103.9 82.1 103.1 82 102.7C81.8 102.2 81.1 101.8 80.6 101.6C78.4 100.9 76.5 101.5 74.7 102.8C73.5 103.6 72.4 104.5 71.3 105.4C70.9 105.7 70.5 106 70.1 106.1C69.5 106.2 68.9 106.3 68.3 106.1C68.1 106 67.9 105.2 68 104.8C68.5 100.8 69.5 97 71.2 93.3C72.6 90.3 73.8 87.1 75 84C75.4 83 75.7 81.9 75.8 80.8C75.9 79.9 75.1 78.9 74.2 78.7C73.3 78.5 72.6 78.8 72.2 79.6C71.7 80.6 71.2 81.6 70.8 82.6C69.6 85.6 68.6 88.6 67.4 91.5C67.1 92.4 66.5 93.2 66 94C65.9 94.2 65.3 94.4 65.2 94.4C64.9 94.1 64.7 93.7 64.6 93.3C64.5 92.8 64.7 92.4 64.8 91.9C66 87.3 67.2 82.6 68.4 78C68.6 77.4 68.6 76.7 68.6 76.1C68.6 75.2 67.9 74.8 67.1 74.4C66.2 74 65.4 74.4 65 75C64.4 75.9 64.1 77 63.8 78.1C62.6 82.6 61.4 87 60.2 91.5C60 92.1 59.8 92.6 59 93.1C58.9 92.3 58.7 91.4 58.8 90.7C59.3 87.2 59.8 83.8 60.3 80.3C60.4 79.4 60.6 78.4 60.6 77.5C60.6 76.6 59.6 75.6 58.7 75.7C58 75.8 57.2 76.3 56.8 76.8C56.4 77.4 56.3 78.3 56.1 79C55.4 83.6 54.7 88.1 53.9 92.7C53.8 93.2 53.2 93.6 52.8 94C52.4 93.5 51.8 93 51.8 92.5C51.7 90.6 51.7 88.7 51.8 86.8C51.8 85.5 52 84.3 52 83C52 82.2 51.5 81.3 50.6 81.4C49.9 81.5 49 82.1 48.8 82.6C48.3 83.9 48 85.4 47.9 86.8C47.7 89.7 47.6 92.6 47.7 95.4C47.8 98.1 47.5 100.8 47 103.5C46.5 106 46.4 108.6 46.3 111.1C46.2 114.8 45.5 118.4 43.6 121.7C43.4 122 42.9 122.5 42.7 122.4C42.3 122.3 41.9 121.9 41.8 121.5C40 117.3 39.1 112.9 38.9 108.5C38.6 102.1 38.6 95.7 38.8 89.3C38.9 85 40 80.8 41.5 76.7C44.7 68.1 51.6 62.2 62.4 62.1C65.6 62.1 68.8 62.2 71.9 63.1C76.8 64.5 80.5 67.4 82.6 72C83.8 74.6 84.8 77.4 85.3 80.2C87.2 91.3 87.4 102.5 84.8 113.5C84.1 116.3 83.1 119 81.8 121.5C78.7 127.7 73.5 131.2 66.7 132C62.9 132.5 59.1 132 55.2 131.9C55 132.1 54.5 131.7 53.6 131.3Z" />
				<path id="Layer" class="shp11" d="M808.7 45.5C808.3 44.9 808 44.4 807.8 43.8C807.5 42.9 807.6 42 808.4 41.3C809.1 40.8 810.4 40.9 811 41.5C811.6 42.2 811.5 43 811 43.6C810.4 44.2 809.7 44.6 808.7 45.5Z" />
				<path id="Layer" class="shp12" d="M809.5 158.1C808.3 158.2 807.3 157.1 807.6 156C807.7 155.7 807.7 155.4 807.9 155.1C808.5 153.8 809.5 153.1 810.4 153.3C811.2 153.5 811.9 154.5 811.8 155.5C811.7 157 810.8 158 809.5 158.1Z" />
				<path id="Layer" class="shp13" d="M89.6 39.5C89.3 39.5 89.8 39.5 90.3 39.5C91.2 39.7 91.9 40.9 91.4 41.7C90.9 42.4 90.1 43.1 89.4 43.5C88.5 44 87.5 43.7 86.8 42.9C86.1 42.1 86 41.2 86.4 40.3C86.8 39.5 87.6 39.3 88.4 39.5C88.5 39.6 88.7 39.5 89.6 39.5Z" />
				<path id="Layer" class="shp14" d="M87 154.5C87.5 154.7 88.1 154.9 88.6 155.2C89.7 155.8 90.1 156.6 89.7 157.5C89.3 158.5 88 159 86.9 158.5C85.6 158 85.1 156 86.1 154.9C86.3 154.7 86.6 154.6 87 154.5Z" />
			</g>
		</g>
	</g>
	<g id="text">
		<g id="text_1_">
		</g>
	</g>
</svg>