<svg xmlns="http://www.w3.org/2000/svg" viewBox="0 0 120 300" width="120" height="300">
	<style>
		tspan { white-space:pre }
		.shp0 { fill: #ffffff } 
		.shp1 { fill: #000000 } 
		.shp2 { fill: #ff9900 } 
		.shp3 { fill: #cdcdcd } 
		.shp4 { fill: #fd9801 } 
		.shp5 { fill: #cccccc } 
		.shp6 { fill: #fbfcfc } 
		.shp7 { fill: #fcfdfd } 
		.shp8 { fill: #fbfbfb } 
		.shp9 { fill: #f9fcfa } 
		.shp10 { fill: #f7f7f7 } 
		.shp11 { fill: #f8fafa } 
		.shp12 { fill: #fafbfb } 
		.shp13 { fill: #f4f4f4 } 
		.shp14 { fill: #cbc9c9 } 
		.shp15 { fill: #b5b7b7 } 
		.shp16 { fill: #f3f4f4 } 
		.shp17 { fill: #f4f5f5 } 
		.shp18 { fill: #fa9705 } 
		.shp19 { fill: #f6fafa } 
		.shp20 { fill: #f7f6f2 } 
		.shp21 { fill: #e48e0b } 
		.shp22 { fill: #e58e0a } 
		.shp23 { fill: #f9fcfc } 
		.shp24 { fill: #e89013 } 
		.shp25 { fill: #edefef } 
		.shp26 { fill: #f2ede4 } 
		.shp27 { fill: #f5f9f9 } 
		.shp28 { fill: #f0f1ee } 
		.shp29 { fill: #f99702 } 
		.shp30 { fill: #f39708 } 
		.shp31 { fill: #d5870f } 
		.shp32 { fill: #f2efe9 } 
		.shp33 { fill: #f2ece0 } 
		.shp34 { fill: #f2ece1 } 
		.shp35 { fill: #a9a7a7 } 
		.shp36 { fill: #0a0909 } 
		.shp37 { fill: #1b1b1b } 
		.shp38 { fill: #020201 } 
		.shp39 { fill: #0b0a08 } 
		.shp40 { fill: #090603 } 
		.shp41 { fill: #f0f7f2 } 
		.shp42 { fill: #f9fbfb } 
		.shp43 { fill: #fafcfc } 
		.shp44 { fill: #e4e6e6 } 
		.shp45 { fill: #fffefe } 
		.shp46 { fill: #140b0b } 
		.shp47 { fill: #1b1919 } 
	</style>
	<g id="Layer">
		<g id="Layer">
			<g id="Layer">
				<g id="Layer">
					<path id="Layer" class="shp0" d="M60.02 299.94C52.53 300.25 45.13 299.33 37.95 297.12C34.59 296.12 31.91 294.37 29.55 291.62C25.73 287.27 26.11 282.84 28.32 278.41C28.78 277.57 29.32 276.73 29.62 275.89C29.93 275.12 29.47 274.36 28.63 274.28C24.96 273.9 22.67 271.76 20.92 268.78C20.61 268.17 20.15 267.94 19.54 267.79C17.63 267.56 16.18 266.57 14.73 265.35C12.9 263.82 12.13 261.83 12.06 259.62C11.98 256.79 11.98 253.97 12.06 251.22C12.13 249.23 12.59 247.4 13.81 245.72C14.96 244.19 16.26 242.97 18.17 242.67C19.62 242.44 20.46 241.83 20.92 240.22C21.37 238.62 22.44 237.01 24.05 236.33C25.96 235.64 25.8 234.34 25.65 232.89C25.27 229.61 24.96 226.32 24.66 223.04C23.97 216.24 23.89 209.37 24.28 202.57C24.51 197.23 25.5 191.88 27.18 186.76C28.09 183.94 29.39 181.34 31.3 179.13C31.99 178.29 32.3 177.6 32.14 176.53C31.91 174.62 31.76 172.63 31.68 170.73C31.61 169.89 31.38 169.27 30.46 169.12C27.18 168.66 25.8 166.14 24.89 163.47C24.35 161.87 23.51 160.72 21.83 160.26C18.7 159.27 17.48 156.9 17.48 153.77C17.48 150.72 17.48 147.66 17.63 144.61C17.78 141.25 19.62 139.03 22.98 138.12C24.35 137.73 25.04 137.12 25.27 135.75C25.96 131.7 29.01 130.1 32.3 130.1C32.91 130.1 33.52 130.1 34.13 129.94C34.43 129.87 34.66 129.56 34.82 129.26C34.89 129.1 34.89 128.8 34.89 128.57C34.89 124.75 34.89 121.01 34.89 117.19C34.82 109.86 34.59 102.53 34.51 95.27C34.51 93.29 34.51 91.38 34.51 89.39C34.43 85.5 35.27 81.91 37.79 78.78C38.48 77.94 38.79 77.17 38.4 76.1C37.95 74.88 38.25 73.66 38.71 72.51C39.09 71.44 39.17 70.38 38.79 69.31C37.64 66.56 38.4 63.96 39.93 61.67C40.92 60.14 41.23 58.61 41.23 56.86C41.23 50.37 41.23 43.95 41.23 37.46C41.23 34.48 41.61 31.58 42.91 28.91C43.29 28.14 43.22 27.61 42.76 26.92C41.46 24.86 40.16 22.8 39.55 20.43C37.95 14.47 42.07 8.29 48.18 7.68C51.92 7.29 55.13 8.29 57.42 11.57C60.93 16.54 64.6 21.42 68.11 26.39C74.3 35.17 80.41 43.95 86.59 52.73C87.82 54.57 89.11 56.32 90.41 58.08C94.31 63.5 92.47 70.3 86.36 73.05C85.83 73.28 85.22 73.43 84.61 73.58C82.78 74.12 82.16 76.03 83.39 77.48C84.76 79.08 86.06 80.69 86.82 82.59C87.74 84.89 88.12 87.25 88.12 89.7C88.12 110.47 88.2 131.17 88.27 151.94C88.27 153.7 88.5 155.22 89.42 156.83C92.63 162.55 93.77 168.74 93.01 175.15C92.86 176.45 92.93 177.45 93.77 178.52C97.36 183.17 99.04 188.67 99.81 194.4C100.42 198.83 100.72 203.41 100.72 207.92C100.8 216.55 100.8 225.25 100.42 233.88C100.04 241.75 99.65 249.77 97.13 257.33C96.83 258.25 96.98 258.93 97.44 259.7C98.43 261.61 99.5 263.59 100.26 265.65C101.18 268.1 101.56 270.62 101.41 273.21C101.33 274.97 101.49 276.5 102.33 278.1C103.32 280.09 103.62 282.23 103.7 284.52C103.78 287.88 102.25 290.32 99.5 292.15C97.21 293.6 94.69 294.67 92.09 295.28C85.91 296.74 79.64 297.8 73.38 298.42C68.95 299.18 64.45 299.56 60.02 299.94Z" />
					<path id="Layer" class="shp1" d="M43.52 79.23C42.15 76.79 41.92 74.42 43.06 72.06C43.29 71.6 43.29 70.83 43.06 70.38C41.61 67.47 41.92 65.03 44.21 62.66C44.67 62.2 44.9 61.36 44.9 60.68C44.97 59.07 44.97 57.47 44.97 55.94C44.97 49.83 44.97 43.72 44.97 37.61C44.97 34.71 45.35 31.96 47.19 29.67C47.95 28.68 47.72 27.91 47.11 27.07C46.27 25.85 45.43 24.71 44.67 23.41C44.06 22.34 43.6 21.27 43.22 20.05C41.84 15.39 46.04 10.81 50.78 11.72C52.3 12.03 53.45 12.87 54.37 14.09C56.73 17.38 59.18 20.58 61.47 23.87C69.95 35.93 78.42 48.08 86.9 60.14C87.28 60.68 87.66 61.13 87.89 61.67C90.11 66.25 86.75 71.14 81.63 70.76C80.64 70.68 79.72 70.3 78.8 70.15C78.27 69.99 77.58 70.76 77.74 71.29C77.96 71.98 78.27 72.67 78.58 73.28C79.03 74.27 79.42 75.49 78.96 76.49C78.12 78.24 78.5 79.16 80.1 80.3C83.16 82.37 84.23 85.65 84.46 89.16C84.61 91.07 84.46 93.06 84.46 95.04C84.53 113.07 84.53 131.17 84.61 149.19C84.61 150.03 84.68 150.87 84.61 151.79C84.3 154.69 85.07 157.13 86.52 159.73C89.5 165 90.34 170.73 89.19 176.76C88.89 178.21 89.04 179.2 90.11 180.42C93.85 184.55 95.3 189.74 96.22 195.09C96.75 198.22 96.98 201.43 97.06 204.56C97.13 214.33 97.13 224.11 96.9 233.81C96.75 239.99 96.06 246.18 94.92 252.36C94.54 254.43 94.15 256.41 93.01 258.25C92.55 258.93 92.7 259.62 93.09 260.31C93.77 261.45 94.46 262.6 95.15 263.74C97.36 267.41 98.2 271.46 97.67 275.66C97.51 276.96 97.74 277.95 98.35 279.09C99.12 280.55 99.65 282.23 99.88 283.91C100.34 287.04 99.5 288.72 96.67 290.17C94.92 291.01 93.09 291.85 91.25 292.23C86.82 293.22 82.47 294.22 77.96 294.75C69.95 295.82 62 296.66 53.91 296.43C48.79 296.28 43.75 295.28 38.79 293.83C35.5 292.92 33.21 290.78 31.38 288.18C29.55 285.51 30.16 282.68 31.84 280.32C32.91 278.79 33.59 277.49 33.36 275.66C33.21 274.13 34.28 272.6 33.36 271.08C31.91 271 30.46 270.85 29.01 270.77C26.41 270.69 24.96 268.71 24.28 266.8C23.59 264.81 22.75 264.2 20.69 264.2C17.56 264.2 15.72 262.22 15.72 259.16C15.72 256.49 15.8 253.82 15.95 251.14C16.18 248.01 17.25 246.87 20.38 246.26C20.53 246.26 20.61 246.18 20.76 246.18C22.83 246.26 24.05 245.57 23.89 243.28C23.89 243.12 23.97 243.05 23.97 242.89C24.66 240.68 25.8 239.31 28.4 239.31C30.16 239.31 30.31 239 30.08 237.4C29.47 232.43 28.78 227.47 28.4 222.5C27.71 214.1 27.41 205.7 28.63 197.3C28.93 195.16 29.47 193.03 29.93 190.89C30.84 186.99 32.37 183.48 35.2 180.65C35.96 179.89 36.27 179.13 36.04 178.06C35.27 174.47 35.04 170.8 35.81 167.14C35.96 166.37 35.43 166.07 34.74 165.99C34.28 165.91 33.75 165.99 33.29 165.91C30.31 165.76 28.63 164.39 28.09 161.41C27.94 160.72 28.02 159.96 27.94 159.19C27.87 158.51 27.56 158.05 26.87 157.97C26.49 157.9 26.11 157.97 25.8 157.9C22.06 156.98 21.45 156.22 21.45 152.4C21.45 150.56 21.45 148.73 21.45 146.9C21.45 146.29 21.45 145.68 21.53 145.07C21.83 142.93 22.98 141.7 25.19 141.78C28.32 141.86 28.4 141.55 28.78 138.65C29.24 134.68 30.16 133.99 34.28 133.99C35.35 133.99 36.5 133.99 37.56 133.99C38.48 133.99 38.86 133.53 38.94 132.62C38.94 131.62 39.02 130.63 38.94 129.71C38.79 122.15 38.63 114.59 38.48 107.03C38.4 101.08 38.4 95.12 38.33 89.09C38.4 85.12 39.7 81.75 43.52 79.23Z" />
					<path id="Layer" class="shp0" d="M42.53 153.47C42.38 148.04 42.15 143.39 42.22 138.8C42.3 128.8 42.45 118.79 42.61 108.79C42.68 102.83 42.68 96.88 42.68 90.84C42.68 89.77 42.68 88.63 42.83 87.56C43.14 84.89 44.44 83.05 47.11 82.21C49.25 81.53 51.31 80.99 53.53 81.22C55.59 81.37 57.65 80.76 59.64 81.6C59.71 83.51 59.79 85.5 59.79 87.41C59.71 104.44 59.64 121.54 59.56 138.57C59.56 140.48 59.56 142.47 59.56 144.3C56.35 145.45 53.37 146.44 50.47 147.59C47.65 148.88 45.35 150.95 42.53 153.47Z" />
					<path id="Layer" class="shp0" d="M80.48 151.4C74.91 147.05 69.33 144.99 63.07 144.68C62.38 143.39 62.61 142.01 62.61 140.64C62.46 132.62 62.38 124.52 62.31 116.5C62.23 105.89 62.31 95.27 62.31 84.73C62.31 83.89 62.23 83.05 62.38 82.21C62.46 81.83 62.92 81.22 63.22 81.22C66.74 81.14 70.33 80.99 73.84 81.22C75.9 81.37 77.81 82.37 79.11 84.12C80.26 85.65 80.94 87.18 80.87 89.16C80.71 100.47 80.64 111.84 80.56 123.15C80.48 131.17 80.56 139.26 80.56 147.28C80.48 148.43 80.48 149.49 80.48 151.4Z" />
					<path id="Layer" class="shp2" d="M78.04 156.44C82.24 159.65 84.3 164.16 85.14 169.2C87.13 181.11 79.8 191.96 68.04 194.86C56.73 197.68 45.2 191.5 41.31 180.5C41 179.74 40.92 178.9 40.7 178.06C40.7 173.55 41.92 169.35 43.52 165.07C47.34 155.22 60.32 149.27 70.56 153.62C72.92 154.69 75.6 155.15 78.04 156.44Z" />
					<path id="Layer" class="shp3" d="M57.42 198.45C62.54 199.36 67.58 198.91 72.47 197.07C72.69 197 72.92 197.07 73.15 197.07C73.23 197.15 73.31 197.23 73.38 197.3C73.46 197.38 73.53 197.53 73.53 197.61C73.53 211.89 73.53 226.09 73.53 240.37C73.53 241.21 73.46 242.05 73.38 242.89C73.38 243.12 73.15 243.35 73 243.73C68.42 242.51 63.68 242.97 58.95 243.05C56.96 240.3 57.27 237.01 57.12 233.96C56.81 225.02 55.74 216.01 56.2 207.08C56.43 204.18 56.35 201.2 57.42 198.45Z" />
					<path id="Layer" class="shp4" d="M53.07 18.14C53.6 18.83 54.14 19.44 54.67 20.12C63.99 33.87 73.38 47.54 82.7 61.29C83.16 61.98 83.69 62.66 84.15 63.43C85.07 64.95 84.38 66.4 82.62 66.56C80.87 66.63 79.26 66.18 78.12 64.65C77.89 64.34 77.74 64.04 77.51 63.73C70.33 53.27 63.07 42.81 55.89 32.42C55.59 31.96 55.36 31.35 55.05 30.82C54.14 28.22 52.07 26.08 51.69 23.26C51.39 21.27 50.7 19.28 53.07 18.14Z" />
					<path id="Layer" class="shp5" d="M50.09 284.9C51.16 284.9 52.3 284.82 53.37 284.97C59.18 285.89 65.06 285.74 70.86 285.36C75.83 285.05 80.87 284.52 85.68 283.37C88.12 282.76 90.57 282 93.01 281.23C94.23 280.85 94.77 281.16 95.15 282.45C95.22 282.68 95.3 282.91 95.3 283.14C95.68 285.13 95.61 285.59 93.77 286.27C91.48 287.11 89.19 287.95 86.82 288.41C76.9 290.47 66.81 291.54 56.66 291.77C50.32 291.85 44.06 291.16 38.1 288.56C38.1 285.97 40.24 285.97 41.92 285.59C44.44 284.97 47.03 285.36 49.55 285.81C51.23 285.97 49.55 284.9 50.09 284.9Z" />
					<path id="Layer" class="shp6" d="M41.46 255.42C43.75 252.36 46.65 250.53 49.71 249.16C52.69 247.78 55.89 246.94 59.18 246.71C63.22 246.41 67.2 245.95 71.17 246.71C74.99 247.48 78.8 248.39 82.32 250.15C84.84 251.45 87.05 253.05 89.27 255.57C86.21 255.11 83.92 253.74 81.32 253.36C78.65 252.9 76.06 252.36 73.38 252.14C70.71 251.91 68.04 251.83 65.36 251.83C62.69 251.83 60.02 251.91 57.34 252.14C54.67 252.36 52 252.82 49.4 253.36C46.88 253.82 44.29 254.66 41.46 255.42Z" />
					<path id="Layer" class="shp7" d="M41.54 259.47C43.45 257.79 46.96 256.49 52.61 255.65C64.29 253.82 79.26 254.5 86.36 258.02C78.96 260.77 49.71 261.68 41.54 259.47Z" />
					<path id="Layer" class="shp8" d="M37.64 255.19C36.88 251.07 36.19 247.32 35.58 243.66C34.2 234.95 33.14 226.25 32.75 217.46C32.75 216.85 32.68 216.24 32.6 215.63C32.45 211.89 32.22 211.97 36.04 211.97C37.87 211.97 39.7 211.97 41.54 212.5C41.08 212.65 40.62 212.88 40.16 213.03C39.09 213.26 38.02 213.42 36.95 213.65C36.27 213.8 35.96 214.26 35.96 214.94C36.04 216.78 35.96 218.61 36.27 220.44C37.41 228.38 38.56 236.4 39.78 244.35C40.08 246.41 40.7 248.39 41 250.46C41.08 250.99 41 251.75 40.7 252.14C39.86 253.05 38.86 253.97 37.64 255.19Z" />
					<path id="Layer" class="shp6" d="M38.02 184.17C39.63 185.54 39.93 186.84 39.32 188.6C37.95 192.49 37.18 196.54 37.26 200.74C37.26 202.88 37.34 203.26 39.55 203.72C41.46 204.18 43.37 204.4 45.28 204.63C46.96 204.86 48.71 204.86 50.39 205.09C51.77 205.24 52.53 206.85 51.92 208.15C51.77 208.38 51.39 208.6 51.08 208.68C50.62 208.76 50.09 208.76 49.63 208.76C44.97 208.76 40.39 208.76 35.73 208.76C35.12 208.76 34.51 208.76 33.9 208.68C33.14 208.6 32.52 208.3 32.52 207.31C32.52 206.47 32.52 205.63 32.52 204.79C32.83 199.52 33.52 194.4 35.2 189.36C35.88 187.53 36.72 185.85 38.02 184.17Z" />
					<path id="Layer" class="shp9" d="M78.04 156.44C76.28 156.06 74.45 155.83 72.69 155.38C71.78 155.15 70.86 154.76 69.95 154.46C63.68 152.09 57.8 153.31 52.07 156.22C49.86 157.36 48.26 159.19 46.88 161.18C44.44 164.69 42.83 168.59 41.99 172.86C41.69 174.62 41.08 176.38 40.62 178.13C36.95 165.38 47.11 149.42 63.76 150.11C68.65 150.33 73 152.01 76.82 155.07C77.28 155.38 77.66 155.91 78.04 156.44Z" />
					<path id="Layer" class="shp10" d="M57.42 198.45C58.11 199.44 58.18 200.43 57.96 201.58C57.65 203.03 57.42 204.48 57.42 205.93C57.34 210.28 57.34 214.71 57.42 219.07C57.42 220.67 57.73 222.2 57.88 223.73C57.96 224.72 58.03 225.64 58.03 226.63C58.18 230.37 57.8 234.19 58.64 237.93C59.02 239.53 58.8 241.37 58.87 243.05L58.72 243.05C58.11 243.51 57.19 243.12 56.58 243.58C56.05 243.66 55.36 243.96 55.13 243.12C54.98 242.67 54.98 242.13 54.98 241.67C54.82 227.77 54.67 213.87 54.52 199.9C54.52 199.52 54.52 199.13 54.52 198.83C54.67 198.07 55.13 197.91 55.82 198.07C56.5 198.22 56.96 198.37 57.42 198.45Z" />
					<path id="Layer" class="shp11" d="M55.05 268.55C55.13 268.33 55.13 268.1 55.28 267.87C57.42 263.67 57.42 263.67 62.16 263.36C67.88 262.98 73.61 262.6 79.26 262.14C81.94 261.91 84.53 261.38 87.2 260.92C88.2 260.77 88.89 261.07 89.27 261.91C90.41 264.35 91.56 266.72 92.63 269.17C93.62 271.46 93.24 273.98 93.16 277.11C92.55 275.81 92.17 275.05 91.86 274.28C90.95 271.84 89.73 269.62 88.05 267.64C86.06 265.27 83.69 263.9 80.41 264.28C75.06 264.89 69.72 265.19 64.37 265.81C61.01 266.19 58.03 267.49 55.82 270.24C55.59 270.46 55.28 270.69 55.21 271.08C55.13 271.3 55.05 271.46 54.9 271.61C54.21 271.76 53.91 271.61 54.21 270.85C54.29 270.39 54.44 270.01 54.52 269.55C54.75 269.09 54.9 268.86 55.05 268.55Z" />
					<path id="Layer" class="shp12" d="M54.44 263.9C52.23 267.49 51.08 271.23 50.24 274.97C49.78 276.88 49.55 278.79 49.17 280.7C49.02 281.39 48.56 281.77 47.87 281.61C44.74 280.93 44.82 281.23 45.13 278.18C45.43 275.28 45.97 272.37 46.96 269.62C47.42 268.4 47.11 267.94 46.04 267.18C44.59 266.19 42.99 265.73 41.23 265.58C40.7 265.5 40.31 265.12 40.39 264.58C40.54 264.05 40.85 263.51 41.23 263.06C41.31 262.9 41.69 262.9 41.92 262.98C45.97 263.29 50.01 263.51 54.44 263.9Z" />
					<path id="Layer" class="shp13" d="M50.24 31.66C51.31 33.11 51.77 33.79 52.3 34.41C53.45 35.7 53.53 37.08 53.3 38.76C52.61 43.42 52.07 48.15 52.23 52.89C52.3 54.95 52.23 57.01 52.23 59.07C52.23 60.83 51.77 61.13 50.01 60.98C49.33 60.91 48.87 60.6 48.87 59.84C48.87 59.07 48.87 58.39 48.87 57.62C48.49 50.44 49.33 43.34 49.4 36.16C49.33 34.94 49.78 33.72 50.24 31.66Z" />
					<path id="Layer" class="shp14" d="M51.54 73.05C54.98 72.97 58.34 72.82 61.77 72.82C65.52 72.82 69.33 72.97 73.08 73.05C74.22 73.05 74.83 73.66 75.29 74.65C75.83 75.8 74.99 77.25 73.84 77.4C73.46 77.48 73.08 77.48 72.77 77.48C64.75 77.48 56.73 77.4 48.64 77.4C49.25 75.49 50.85 75.87 52.23 75.95C53.45 76.03 54.67 76.56 56.12 76.33C56.5 76.33 55.74 75.65 55.97 76.03C56.05 76.18 55.97 76.26 55.66 76.26C53.6 76.03 50.93 76.64 51.54 73.05Z" />
					<path id="Layer" class="shp15" d="M48.64 65.18C54.21 65.18 59.79 65.26 65.36 65.18C67.65 65.18 69.95 65.03 72.31 65.03C73.99 65.03 75.29 66.86 74.76 68.62C74.68 68.85 74.53 69.08 74.3 69.15C73.99 69.31 73.61 69.38 73.23 69.38C68.34 69.38 63.53 69.31 58.64 69.23C56.2 69.15 53.83 69 51.39 68.85C53.68 66.79 56.05 68.54 58.03 68.39C55.97 67.86 53.3 68.01 50.93 66.94C50.09 66.48 48.79 66.63 48.64 65.18Z" />
					<path id="Layer" class="shp16" d="M87.74 233.2C86.36 229.3 86.44 225.25 86.06 221.28C85.45 214.87 84.38 208.53 82.7 202.27C82.39 201.2 82.32 200.13 82.24 199.06C82.24 198.91 82.55 198.68 82.7 198.6C82.93 198.52 83.31 198.52 83.39 198.68C83.77 199.21 84.3 199.82 84.46 200.51C85.37 204.02 86.44 207.54 87.13 211.12C87.89 215.33 88.27 219.6 88.81 223.8C89.19 226.93 88.73 229.99 87.74 233.2Z" />
					<path id="Layer" class="shp17" d="M92.17 209.44C90.79 204.02 89.5 198.6 88.12 193.25C87.74 191.73 87.43 189.97 86.52 188.83C84.91 186.76 85.75 185.39 87.2 183.78C88.66 185.08 89.34 186.76 89.95 188.44C91.1 191.5 91.86 194.71 92.25 197.99C92.7 201.81 92.78 205.7 92.17 209.44Z" />
					<path id="Layer" class="shp18" d="M29.62 257.02C32.22 256.34 34.05 256.95 35.43 259.62C36.34 261.3 36.42 262.6 35.73 264.28C34.82 266.34 34.89 266.42 32.6 266.42C31.53 266.42 30.46 266.34 29.39 266.26C28.78 263.13 27.48 260.08 29.62 257.02Z" />
					<path id="Layer" class="shp19" d="M50.09 284.9C50.78 285.28 51.46 285.59 52.69 286.27C49.25 286.27 46.42 286.2 43.6 286.27C41.61 286.35 39.47 286.5 38.18 288.49C35.27 287.65 34.28 286.5 34.59 284.06C34.82 282.38 35.96 281.84 37.64 282.23C41.54 283.14 45.43 283.91 49.33 284.67C49.63 284.82 49.86 284.82 50.09 284.9Z" />
					<path id="Layer" class="shp20" d="M53.07 18.14C51.92 19.44 51.85 20.96 52.38 22.57C52.92 24.32 53.53 26 54.14 27.69C54.44 28.68 54.75 29.75 55.05 30.82C52.53 27.38 50.01 23.94 47.49 20.51C46.42 19.06 46.73 17.22 48.18 16C49.4 14.93 51.08 15.16 52.38 16.61C52.69 16.92 52.84 17.6 53.07 18.14Z" />
					<path id="Layer" class="shp21" d="M23.44 255.04C23.44 256.26 23.44 257.48 23.44 258.63C23.44 259.62 22.9 259.93 21.68 259.93C20.46 259.93 20.08 259.62 20 258.55C19.92 256.26 19.92 253.97 19.92 251.68C19.92 250.23 21.68 249.16 22.98 249.84C23.21 250 23.44 250.38 23.44 250.68C23.51 251.37 23.44 252.14 23.44 252.82C23.44 253.51 23.44 254.27 23.44 254.96C23.51 255.04 23.51 255.04 23.44 255.04Z" />
					<path id="Layer" class="shp22" d="M34.74 145.91C39.63 145.91 38.94 145.91 38.94 150.33C38.94 150.95 39.02 151.56 38.86 152.17C38.79 152.55 38.33 153.16 38.02 153.16C35.81 153.47 33.52 154.23 31.3 153.31C34.28 151.71 33.06 148.12 34.74 145.91Z" />
					<path id="Layer" class="shp23" d="M48.64 65.18C48.79 65.34 48.94 65.64 49.17 65.64C52.46 65.87 55.44 67.55 58.64 68.08C58.72 68.08 58.72 68.31 58.8 68.39C56.43 68.54 53.98 68.7 51.54 68.85C50.39 68.85 49.17 68.92 48.03 68.77C47.19 68.7 46.5 68.16 46.42 67.17C46.35 66.33 46.58 65.49 47.42 65.03C47.65 64.8 48.18 65.11 48.64 65.18Z" />
					<path id="Layer" class="shp24" d="M30.16 243.81C30.92 243.66 31.3 244.12 31.38 244.73C31.68 246.26 31.91 247.78 32.22 249.31C33.14 254.12 32.75 254.43 27.56 253.43C28.63 251.91 28.4 250.15 28.48 248.47C28.63 246.79 28.63 245.03 30.16 243.81Z" />
					<path id="Layer" class="shp25" d="M66.89 273.52C66.97 275.2 66.28 276.19 65.29 276.57C64.37 276.88 63.15 276.5 62.46 275.5C61.47 274.21 61.54 272.53 62.54 271.15C63.68 269.7 64.98 269.78 65.9 271.38C66.36 272.22 66.74 273.06 66.89 273.52Z" />
					<path id="Layer" class="shp26" d="M34.74 145.91C34.66 147.66 34.59 149.49 34.51 151.25C34.43 152.85 34.28 153.08 32.68 153.24C32.22 153.31 31.76 153.31 31.23 153.31C31.15 151.17 31.07 149.04 31 146.97C31 146.13 31.38 145.6 32.3 145.68C33.06 145.68 33.9 145.75 34.74 145.91Z" />
					<path id="Layer" class="shp27" d="M51.54 73.05C51.54 74.19 52.07 74.88 53.14 75.26C54.29 75.65 55.44 75.95 57.19 76.49C54.67 76.71 52.84 76.64 50.93 76.64C50.09 76.64 49.17 76.56 48.56 77.33C47.34 77.63 46.73 76.71 46.5 75.87C46.35 75.11 46.5 74.27 46.81 73.51C46.88 73.2 47.57 72.9 48.03 72.9C49.17 72.9 50.39 73.05 51.54 73.05Z" />
					<path id="Layer" class="shp28" d="M30.16 243.81C29.93 246.48 29.62 249.16 29.55 251.75C29.55 253.28 28.55 253.2 27.64 253.36C26.87 250.38 27.41 247.32 27.64 244.35C27.64 244.12 28.09 243.73 28.4 243.73C28.93 243.73 29.55 243.81 30.16 243.81Z" />
					<path id="Layer" class="shp29" d="M34.66 156.67C35.12 156.6 35.58 156.52 36.04 156.52C38.4 156.22 39.55 156.37 38.4 159.88C38.33 160.19 38.1 160.57 37.95 160.87C37.34 162.1 37.26 162.17 35.73 161.94C35.27 161.87 34.82 161.71 34.36 161.64C33.44 159.96 33.36 158.28 34.66 156.67Z" />
					<path id="Layer" class="shp30" d="M34.74 138.42C35.2 138.34 35.66 138.27 36.19 138.27C39.09 138.19 39.24 138.34 39.09 141.25C39.02 142.62 38.79 142.85 37.34 142.85C36.34 142.85 35.43 142.7 34.43 142.62C33.52 141.09 33.59 139.72 34.74 138.42Z" />
					<path id="Layer" class="shp31" d="M28.02 150.26C28.02 150.72 28.02 151.79 27.79 152.85C27.71 153.16 27.1 153.39 26.64 153.47C26.41 153.47 25.88 153.16 25.88 152.93C25.8 150.79 25.8 148.58 25.88 146.44C25.88 146.21 26.64 145.83 27.03 145.91C27.41 145.98 27.94 146.44 27.94 146.75C28.09 147.66 28.02 148.65 28.02 150.26Z" />
					<path id="Layer" class="shp32" d="M29.62 257.02C29.62 258.78 29.62 260.54 29.55 262.37C29.55 263.67 29.47 264.97 29.39 266.26C29.09 266.26 28.78 266.19 28.48 266.19L28.4 266.19C28.02 263.74 27.56 261.3 27.33 258.86C27.18 256.87 27.48 256.79 29.62 257.02Z" />
					<path id="Layer" class="shp33" d="M34.66 156.67C34.59 158.35 34.43 159.96 34.36 161.64C34.13 161.64 33.9 161.71 33.59 161.71C32.68 161.79 31.84 161.64 31.76 160.49C31.76 160.11 31.68 159.73 31.61 159.42C31.3 156.37 31.3 156.37 34.66 156.67Z" />
					<path id="Layer" class="shp34" d="M34.74 138.42C34.59 139.8 34.51 141.17 34.36 142.62C33.75 142.62 33.21 142.7 32.6 142.7C31.91 142.7 31.46 142.39 31.53 141.63C31.53 140.94 31.61 140.18 31.76 139.49C31.91 138.34 32.14 138.19 33.36 138.19C33.82 138.19 34.28 138.34 34.74 138.42Z" />
					<path id="Layer" class="shp0" d="M54.29 270.69C54.52 270.92 54.75 271.23 54.98 271.46C54.52 272.68 53.98 273.9 53.53 275.05C53.45 275.12 53.37 275.2 53.14 275.35" />
					<path id="Layer" class="shp0" d="M56.66 243.66C57.27 242.89 58.03 242.89 58.8 243.12C58.26 243.81 57.5 243.73 56.66 243.66Z" />
					<path id="Layer" class="shp18" d="M28.48 266.11L28.55 265.96L28.55 266.11L28.48 266.11Z" />
					<path id="Layer" class="shp35" d="M55.05 268.55C54.9 268.86 54.75 269.17 54.6 269.47C54.82 269.17 54.98 268.86 55.05 268.55Z" />
					<path id="Layer" class="shp35" d="M55.28 270.92C55.51 270.62 55.66 270.39 55.89 270.08C55.74 270.39 55.51 270.69 55.28 270.92Z" />
					<path id="Layer" class="shp36" d="M77.28 96.42C77.28 99.09 77.35 100.92 76.51 102.6C76.44 102.76 76.21 102.99 75.98 102.99C75.75 102.99 75.44 102.83 75.37 102.68C74.91 101.31 74.45 99.93 74.15 98.48C73.84 97.03 73.69 95.58 73.46 94.2C73.08 91.91 72.54 89.7 71.09 87.79C70.56 87.1 70.56 86.41 71.24 85.8C71.85 85.27 72.69 85.19 73.23 85.65C74.07 86.34 74.99 87.1 75.37 88.02C76.13 90.08 76.59 92.22 77.05 94.28C77.35 95.27 77.28 96.27 77.28 96.42Z" />
					<path id="Layer" class="shp37" d="M72.16 93.13C72.16 94.36 71.63 95.42 71.01 95.58C70.25 95.81 69.33 94.66 69.11 93.29C68.88 91.68 69.56 90.46 70.63 90.54C71.63 90.77 72.16 91.61 72.16 93.13Z" />
					<path id="Layer" class="shp38" d="M63.68 181.49C61.62 181.04 60.63 179.81 60.78 177.6C60.93 173.93 60.86 170.27 60.86 166.6C60.86 165.46 61.09 164.46 62 163.62C63.53 162.25 64.06 162.02 65.82 163.24C68.88 165.3 71.85 167.37 74.83 169.5C76.44 170.65 76.44 171.11 75.37 173.17C72.39 177.29 68.49 180.04 63.68 181.49Z" />
					<path id="Layer" class="shp39" d="M57.42 173.17C57.42 175.15 57.42 177.06 57.42 179.05C57.42 179.97 56.81 180.58 55.89 180.88C54.14 181.57 52.3 181.49 50.47 181.19C48.71 180.96 47.8 179.66 47.87 177.83C47.95 175 48.03 172.25 48.03 169.43C48.03 169.27 48.03 169.2 48.03 169.05C48.64 163.01 49.4 163.24 54.98 163.47C56.28 163.55 56.89 164.16 57.12 165.53C57.27 166.6 57.42 167.67 57.42 168.82C57.57 170.27 57.5 171.72 57.42 173.17C57.5 173.17 57.5 173.17 57.42 173.17Z" />
					<path id="Layer" class="shp40" d="M83.23 173.02C82.85 174.77 82.62 176.61 82.16 178.36C82.01 179.05 81.63 179.74 81.1 180.2C80.71 180.58 80.03 180.73 79.49 180.65C79.19 180.58 78.73 179.97 78.73 179.58C78.65 178.74 78.65 177.9 78.88 177.06C79.95 172.71 79.34 168.66 77.28 164.77C77.05 164.31 76.74 163.85 76.74 163.47C76.74 163.01 76.9 162.48 77.2 162.25C77.51 162.02 78.27 161.94 78.5 162.1C79.42 162.86 80.33 163.7 80.94 164.69C82.47 167.21 83.08 170.04 83.23 173.02Z" />
					<path id="Layer" class="shp41" d="M63.68 181.49C66.43 179.58 69.18 177.75 71.85 175.84C73 175 74.15 174.09 75.21 173.17C75.98 174.47 75.21 175.61 74.53 176.53C72.77 178.74 70.63 180.5 68.11 181.8C66.59 182.41 65.13 182.49 63.68 181.49Z" />
					<path id="Layer" class="shp42" d="M59.64 210.9C59.64 210.9 59.64 210.28 59.79 209.67C60.4 207.54 62.46 205.63 63.99 205.63C66.51 205.63 68.8 207.23 69.56 209.52C70.33 211.66 69.41 214.26 67.43 215.55C65.9 216.55 64.37 216.93 62.69 215.94C60.93 215.02 59.48 213.8 59.64 210.9Z" />
					<path id="Layer" class="shp43" d="M69.33 228C69.11 228.92 68.95 229.84 68.65 230.75C67.43 234.42 62.16 234.34 60.32 231.67C58.8 229.45 59.56 224.8 62 223.65C65.29 222.12 69.41 224.03 69.33 228Z" />
					<path id="Layer" class="shp44" d="M71.32 171.57C69.18 173.02 67.27 174.31 65.44 175.61C65.06 175.84 64.37 175.54 64.37 175.08C64.37 172.71 64.29 170.27 64.29 167.9C64.29 167.37 64.83 167.06 65.29 167.37C67.2 168.74 69.18 170.11 71.32 171.57Z" />
					<path id="Layer" class="shp45" d="M54.14 172.41C54.14 173.7 54.14 175.08 54.14 176.38C54.14 177.52 53.76 177.83 52.53 177.83C51.69 177.83 51.16 177.45 51.08 176.61C51.01 175.38 51.01 174.16 51.01 173.02C51.01 171.57 50.93 170.11 50.93 168.66C50.93 167.14 51.31 166.83 52.92 166.98C53.6 167.06 53.98 167.37 54.06 168.13C54.06 169.5 54.06 170.95 54.14 172.41C54.06 172.41 54.14 172.41 54.14 172.41Z" />
					<path id="Layer" class="shp46" d="M67.04 211.43C67.12 212.88 66.05 214.18 64.75 214.18C63.38 214.18 62.23 212.96 62.16 211.66C62.08 210.36 63.15 209.52 64.98 209.44C66.13 209.37 66.97 210.21 67.04 211.43Z" />
					<path id="Layer" class="shp47" d="M64.91 231.13C62.84 231.06 61.32 228.69 62.23 227.01C63.07 225.48 64.68 225.25 65.9 226.4C66.36 226.78 66.74 227.32 67.04 227.85C67.81 229.22 66.59 231.13 64.91 231.13Z" />
				</g>
			</g>
		</g>
	</g>
</svg>