<svg xmlns="http://www.w3.org/2000/svg" viewBox="0 0 120 300" width="120" height="300">
	<style>
		tspan { white-space:pre }
		.shp0 { fill: #ffffff } 
		.shp1 { fill: #000000 } 
		.shp2 { fill: #ff9900 } 
		.shp3 { fill: #cccccc } 
		.shp4 { fill: #fe9801 } 
		.shp5 { fill: #cbcccc } 
		.shp6 { fill: #fcfdfc } 
		.shp7 { fill: #fbfcfc } 
		.shp8 { fill: #fcfcfc } 
		.shp9 { fill: #fcfdfd } 
		.shp10 { fill: #f7f9f9 } 
		.shp11 { fill: #fdfdfd } 
		.shp12 { fill: #fafafa } 
		.shp13 { fill: #cbc9c9 } 
		.shp14 { fill: #b7baba } 
		.shp15 { fill: #f2f3f3 } 
		.shp16 { fill: #e9e9e9 } 
		.shp17 { fill: #fb9806 } 
		.shp18 { fill: #f6f9f9 } 
		.shp19 { fill: #f8f8f6 } 
		.shp20 { fill: #dd8c0d } 
		.shp21 { fill: #ec910a } 
		.shp22 { fill: #ec951b } 
		.shp23 { fill: #f9fbfb } 
		.shp24 { fill: #ebeded } 
		.shp25 { fill: #fffbf5 } 
		.shp26 { fill: #e2e6e5 } 
		.shp27 { fill: #f49606 } 
		.shp28 { fill: #f79909 } 
		.shp29 { fill: #df8c0e } 
		.shp30 { fill: #e5e2e0 } 
		.shp31 { fill: #ece9e1 } 
		.shp32 { fill: #edebe6 } 
		.shp33 { fill: #090909 } 
		.shp34 { fill: #1d1717 } 
		.shp35 { fill: #040302 } 
		.shp36 { fill: #f9f9f5 } 
		.shp37 { fill: #0c0700 } 
		.shp38 { fill: #180f00 } 
		.shp39 { fill: #fafbfb } 
		.shp40 { fill: #f9fcfc } 
		.shp41 { fill: #180e0e } 
		.shp42 { fill: #161313 } 
	</style>
	<g id="Layer">
		<g id="Layer">
			<g id="Layer">
				<g id="Layer">
					<path id="Layer" class="shp0" d="M97.98 127.26C98.95 127.33 99.85 127.33 100.82 127.4C104.26 127.7 105.98 129.2 106.95 132.49C107.03 132.86 107.1 133.16 107.18 133.54C107.33 134.28 107.78 134.81 108.6 134.96C109.27 135.11 110.02 135.18 110.69 135.48C113.08 136.6 114.43 138.55 114.58 141.09C114.8 144.3 114.88 147.52 114.73 150.73C114.65 153.57 113.46 155.82 110.54 156.71C108.97 157.24 108.07 158.13 107.55 159.85C106.65 162.7 105.16 165.09 101.79 165.54C101.12 165.61 100.9 166.21 100.82 166.88C100.82 167.85 100.97 168.83 100.75 169.72C100.07 172.57 100.67 174.88 102.62 177.28C104.71 179.89 105.53 183.26 106.35 186.47C108.52 195.29 108.67 204.19 108.07 213.16C107.7 218.77 107.1 224.31 106.58 230.21C107.03 230.44 107.63 230.81 108.22 231.11C109.72 231.86 110.69 233.13 111.21 234.55C111.81 236.12 112.64 237.02 114.28 237.46C117.5 238.29 119.44 240.68 119.74 243.82C120.11 247.71 120.04 251.67 119.81 255.63C119.66 258.62 117.2 260.04 114.88 261.32C114.28 261.69 113.53 261.84 112.86 261.91C112.04 262.06 111.66 262.51 111.29 263.11C109.64 265.88 107.4 267.9 103.96 268.19C102.99 268.27 102.54 269.17 102.92 269.99C103.14 270.51 103.44 271.04 103.81 271.48C105.16 273.28 105.68 275.37 105.98 277.47C106.35 279.78 105.46 281.95 104.11 283.82C101.72 287.26 98.5 289.43 94.39 290.63C86.69 292.87 78.91 293.47 70.99 292.94C62.54 292.42 54.09 291.3 45.79 289.73C42.13 289.06 38.54 288.16 35.32 286.21C34.2 285.54 33.23 284.72 32.33 283.75C30.61 281.88 30.09 279.56 30.46 277.09C30.76 275.07 31.14 273.05 32.18 271.26C32.71 270.44 32.86 269.54 32.78 268.49C32.41 263.56 33.6 259 36.15 254.81C36.89 253.54 37.04 252.34 36.67 250.85C35.77 247.48 34.95 244.12 34.65 240.68C33.08 225.05 32.71 209.43 33.83 193.8C34.13 189.09 35.17 184.6 36.97 180.27C37.79 178.32 38.91 176.45 40.11 174.66C40.86 173.61 41.08 172.64 40.93 171.37C40.48 167.63 40.71 163.97 41.6 160.38C42.2 157.91 42.95 155.52 44.3 153.42C45.19 152.08 45.34 150.58 45.34 149.01C45.34 135.78 45.27 122.47 45.34 109.24C45.34 102.06 45.49 94.88 45.57 87.7C45.57 83.22 46.76 79.18 49.98 75.96C50.73 75.22 50.88 74.39 50.8 73.35C50.73 72.52 50.35 72 49.53 71.85C47.96 71.63 46.54 70.95 45.27 69.98C41.08 66.92 40.11 61.16 43.1 56.9C45.79 53.01 48.63 49.12 51.4 45.16C55.96 38.58 60.52 32 65.16 25.49C68.6 20.63 72.19 15.85 75.62 10.99C78.17 7.33 81.68 6.5 85.72 7.25C89.68 8 92 10.77 93.35 14.58C94.32 17.34 93.2 19.74 92.37 22.2C92.15 22.73 91.85 23.33 91.48 23.78C89.98 25.64 89.53 27.51 90.65 29.91C91.48 31.7 91.63 33.87 91.55 35.89C91.4 40.15 91.7 44.49 91.63 48.75C91.55 51.14 91.63 53.53 91.63 55.93C91.63 57.27 91.85 58.47 92.67 59.59C94.39 62.06 95.06 64.82 93.94 67.74C93.64 68.56 93.72 69.31 93.94 70.21C94.39 71.7 94.77 73.2 94.17 74.77C94.02 75.22 94.32 75.96 94.69 76.34C97.76 80.15 98.5 84.49 98.06 89.2C97.98 89.8 97.91 90.39 97.91 90.99C98.5 98.39 97.91 105.8 97.76 113.2C97.68 117.39 97.68 121.57 97.68 125.76C97.68 126.43 97.83 126.81 97.98 127.26Z" />
					<path id="Layer" class="shp1" d="M75.85 290.1C67.48 289.8 59.18 289.06 50.88 287.63C48.78 287.26 46.61 286.96 44.52 286.44C42.13 285.77 39.74 285.02 37.42 283.97C34.43 282.62 33.6 280.76 34.13 277.62C34.35 276.19 34.65 274.7 35.32 273.5C36.15 272.08 36.45 270.81 36.3 269.17C35.92 265.5 36.52 261.99 38.39 258.77C39.14 257.5 39.74 256.23 40.48 255.04C41.16 254.06 41.38 253.24 40.63 252.12C39.36 250.18 39.06 247.86 38.76 245.61C38.17 241.5 37.64 237.32 37.34 233.13C36.74 223.48 36.37 213.76 36.74 204.12C36.89 199.48 37.34 194.85 37.94 190.21C38.24 187.74 39.14 185.35 39.89 182.96C40.71 180.42 41.98 178.17 43.85 176.23C44.82 175.26 44.89 174.36 44.67 173.01C43.62 166.43 44.52 160.15 48.11 154.4C48.93 153.13 49.38 151.85 49.01 150.36C48.93 149.98 48.93 149.61 48.93 149.31C49.01 134.88 49.08 120.38 49.08 105.95C49.08 100.56 49.16 95.18 49.23 89.8C49.23 89.05 49.16 88.38 49.23 87.63C49.38 83.59 50.65 80.15 54.09 77.76C54.99 77.16 55.44 76.56 54.84 75.44C54.17 74.09 54.39 72.67 54.99 71.33C55.29 70.8 55.51 70.28 55.74 69.68C55.96 69.01 55.21 68.26 54.47 68.41C53.87 68.56 53.34 68.79 52.75 68.94C51.4 69.23 50.13 69.16 48.86 68.56C45.04 66.77 43.92 63.25 46.02 59.66C46.76 58.39 47.66 57.35 48.48 56.15C57.61 43.14 66.8 30.13 75.92 17.2C76.9 15.85 77.87 14.43 78.99 13.23C80.78 11.14 83.63 10.62 86.17 11.89C88.78 13.16 90.35 16.07 89.76 18.62C89.46 19.89 88.93 21.08 88.41 22.28C87.96 23.25 87.36 24.22 86.69 24.97C85.27 26.62 85.05 28.04 86.39 29.98C87.81 31.92 87.89 34.47 87.81 36.86C87.81 39.63 87.66 42.32 87.66 45.08C87.66 49.5 87.74 53.91 87.81 58.32C87.81 59.51 87.96 60.56 88.93 61.53C90.73 63.33 90.88 65.57 89.98 67.81C89.53 68.94 89.53 69.76 89.98 70.88C90.65 72.6 90.65 74.39 89.83 76.11C89.46 76.86 89.53 77.46 90.28 77.98C93.94 80.75 94.54 84.64 94.24 88.9C94.17 89.72 94.02 90.54 94.02 91.37C93.94 103.4 93.87 115.52 93.79 127.55C93.79 128.3 93.79 128.97 93.79 129.72C93.79 130.62 94.32 130.99 95.14 130.99C96.34 130.99 97.53 130.99 98.73 130.99C99.55 131.07 100.37 131.07 101.2 131.37C102.24 131.67 103.06 132.41 103.29 133.61C103.36 133.98 103.44 134.28 103.51 134.66C103.96 135.85 103.29 137.57 104.41 138.32C105.31 138.84 106.73 138.62 107.85 138.69C109.05 138.84 109.79 139.59 110.24 140.64C110.54 141.54 110.69 142.51 110.77 143.41C110.84 145.57 110.69 147.74 110.84 149.84C110.99 152 110.09 153.2 108.07 153.8C107.92 153.8 107.85 153.95 107.78 153.95C106.8 154.25 105.46 154.25 104.86 154.92C104.26 155.59 104.49 156.94 104.11 157.91C103.66 159.11 102.99 160.3 102.32 161.35C101.79 162.1 100.9 162.17 100.07 162.17C99.03 162.25 97.98 162.4 96.93 162.55C96.93 163.59 96.78 164.64 96.93 165.69C97.31 168.45 96.93 171.14 96.41 173.84C96.19 174.88 96.11 175.63 97.01 176.38C99.85 178.92 101.35 182.36 102.32 185.95C103.66 191.03 104.49 196.19 104.56 201.5C104.64 211.22 104.04 220.87 102.62 230.44C102.54 230.88 102.47 231.41 102.47 231.86C102.24 233.5 102.32 233.95 104.19 234.1C106.73 234.25 107.7 235.22 108.3 237.69C108.37 238.06 108.37 238.44 108.45 238.74C108.75 240.23 108.75 240.23 110.24 240.53C110.92 240.68 111.66 240.75 112.34 240.9C114.8 241.43 116.07 242.85 116.15 245.39C116.3 248.38 116.3 251.37 116.22 254.36C116.22 256.23 114.36 258.1 112.41 258.47C112.19 258.55 111.96 258.55 111.66 258.55C109.57 258.25 108.15 258.85 108.15 261.32C106.8 263.11 105.68 265.05 102.92 264.98C101.64 264.9 100 264.31 99.25 265.43C98.73 266.25 99.1 267.67 99.1 268.87C99.1 269.47 99.18 270.06 99.1 270.66C99.03 271.78 99.25 272.76 100.22 273.5C101.79 274.85 102.09 276.79 102.17 278.74C102.24 279.56 102.02 280.46 101.64 281.13C100.15 283.45 98.58 285.77 95.81 286.74C93.87 287.41 92 288.08 89.98 288.53C85.42 289.73 80.71 290.33 75.85 290.1Z" />
					<path id="Layer" class="shp0" d="M90.2 150.13C85.49 145.27 80.19 142.81 74.13 141.76C74.05 140.79 73.98 139.97 73.98 139.14C73.23 120 73.61 100.94 73.46 81.8C73.46 81.35 73.38 80.82 73.53 80.38C73.68 80 74.05 79.48 74.35 79.48C78.02 79.48 81.76 79.03 85.34 80.15C88.34 81.05 89.98 82.99 90.2 86.06C90.35 88.08 90.43 90.1 90.43 92.11C90.5 104.9 90.65 117.68 90.65 130.47C90.65 136.45 90.58 142.43 90.5 148.41C90.5 148.79 90.35 149.09 90.2 150.13Z" />
					<path id="Layer" class="shp0" d="M70.54 141.46C63.06 142.36 62.69 142.51 53.57 147.59C53.04 146.77 53.27 145.8 53.27 144.9C53.19 127.26 53.19 109.53 53.12 91.89C53.12 90.24 53.04 88.52 53.04 86.88C52.97 83.74 54.69 81.72 57.23 80.3C58.43 79.63 59.85 79.25 61.34 79.25C63.96 79.33 66.58 79.25 69.19 79.33C71.06 79.33 71.14 79.4 71.14 81.42C71.06 99.89 70.99 118.43 70.84 136.9C70.84 138.4 70.62 139.82 70.54 141.46Z" />
					<path id="Layer" class="shp2" d="M86.77 154.02C98.35 165.84 92.9 185.87 77.05 190.43C67.92 193.05 58.35 189.84 52.82 182.36C52.52 181.99 52.37 181.54 52.15 181.09C50.13 175.48 50.05 169.95 52.07 164.34C56.86 151.03 69.57 145.65 82.43 151.56C83.92 152.23 85.42 152.9 86.77 154.02Z" />
					<path id="Layer" class="shp3" d="M74.5 237.91C73.31 237.84 72.11 237.84 70.91 237.76C69.12 237.76 67.33 237.69 65.53 237.76C63.89 237.84 62.24 238.21 60.45 238.44C60.3 237.76 60.07 237.09 60.07 236.42C60 234.62 59.85 232.83 59.85 231.03C59.85 219.45 59.85 207.93 59.85 196.34C59.85 195.59 59.85 194.92 59.85 194.17C59.92 192.6 60.07 192.45 61.49 192.9C64.56 193.95 67.7 194.62 70.91 194.55C72.56 194.47 74.2 194.25 75.85 194.1C77.42 200.68 77.19 207.33 76.75 213.99C76.3 220.64 76.07 227.3 75.48 233.88C75.62 235.37 75.77 236.87 74.5 237.91Z" />
					<path id="Layer" class="shp4" d="M79.36 28.64C74.28 35.96 69.27 43.36 64.19 50.69C61.49 54.58 58.73 58.54 56.11 62.51C55.06 64 53.72 64.75 52 64.97C51.1 65.05 50.35 64.9 49.75 64.23C49.38 63.78 48.93 63.25 49.38 62.65C49.98 61.68 50.65 60.64 51.32 59.66C58.95 48.52 66.5 37.46 74.13 26.32C76.15 23.4 78.17 20.49 80.19 17.49C82.5 18.39 81.98 20.26 81.68 21.98C81.31 24.37 79.74 26.32 79.36 28.64Z" />
					<path id="Layer" class="shp5" d="M94.77 282.33C91.03 284.05 87.06 284.64 83.03 285.17C77.42 285.91 71.81 285.39 66.2 284.94C59.77 284.42 53.34 283.67 47.06 282.25C44.67 281.73 42.28 280.91 39.89 280.01C38.32 279.41 38.32 279.11 38.54 277.54C38.61 277.09 38.69 276.57 38.84 276.12C39.14 275.07 39.74 274.77 40.71 275.07C41.83 275.45 42.95 275.9 44.07 276.19C48.33 277.32 52.67 278.29 57.08 278.59C61.94 278.96 66.88 279.26 71.74 279.34C74.35 279.41 76.97 278.96 79.59 278.81C80.78 278.74 81.98 278.74 83.18 278.74C83.63 278.89 82.58 279.63 83.33 279.48C85.79 279.26 88.19 278.81 90.65 279.41C92.37 279.86 94.17 280.23 94.77 282.33Z" />
					<path id="Layer" class="shp6" d="M86.77 154.02C85.05 153.42 83.4 152.9 81.76 152.23C77.94 150.66 73.98 149.98 69.87 150.28C68.15 150.36 66.58 150.73 65.01 151.48C60 153.72 56.33 157.16 53.94 162.17C51.4 167.48 51.25 173.01 52 178.62C52.07 179.44 52.15 180.27 52.22 181.09C44.37 170.25 49.01 151.56 65.53 147.44C73.16 145.57 79.89 147.52 85.79 152.6C86.17 152.98 86.39 153.5 86.77 154.02Z" />
					<path id="Layer" class="shp7" d="M44.22 250.47C47.66 246.51 51.47 244.34 55.74 243C61.12 241.28 66.65 240.53 72.33 241.2C75.33 241.58 78.24 241.88 81.08 242.85C84.97 244.19 88.41 246.21 91.48 249.88C75.62 245.39 60.22 244.72 44.22 250.47Z" />
					<path id="Layer" class="shp7" d="M47.51 252.64C56.63 247.26 85.49 248.53 91.4 253.84C83.92 256.08 56.78 255.26 47.51 252.64Z" />
					<path id="Layer" class="shp8" d="M96.86 209.2C94.92 208.83 93.2 208.45 91.48 208.08C91.63 207.33 92.15 207.41 92.52 207.41C94.54 207.33 96.56 207.33 98.58 207.41C99.92 207.41 100.22 207.71 100.15 209.2C100 212.79 99.92 216.38 99.55 219.89C98.8 228.79 97.38 237.61 95.81 246.44C95.66 247.41 95.44 248.31 95.29 249.43C93.87 248.83 93.12 247.56 92.22 246.59C91.92 246.29 91.92 245.69 91.92 245.24C91.92 244.79 92 244.27 92.15 243.82C94.17 235.37 95.14 226.7 96.26 218.1C96.63 215.26 97.01 212.49 96.86 209.2Z" />
					<path id="Layer" class="shp9" d="M90.2 204.27C87.59 204.27 84.97 204.27 82.35 204.27C81.68 204.27 81.23 204.04 81.16 203.3C81.01 201.87 81.23 201.13 82.13 200.9C83.33 200.68 84.45 200.6 85.64 200.45C88.11 200.15 90.65 199.93 93.05 199.48C94.84 199.18 95.59 198.73 95.59 196.34C95.51 192.23 94.77 188.27 93.49 184.45C93.05 183.03 93.2 181.91 94.09 180.79C94.39 180.34 94.99 180.27 95.21 180.64C96.04 182.06 96.93 183.56 97.46 185.05C99.48 190.73 100.15 196.64 100.22 202.62C100.22 203.74 99.92 204.19 98.8 204.19C95.89 204.27 93.05 204.27 90.2 204.27L90.2 204.27Z" />
					<path id="Layer" class="shp10" d="M78.24 265.8C76.3 262.29 73.08 260.57 69.27 260.12C63.74 259.45 58.13 259.07 52.52 258.55C50.35 258.33 48.56 259.15 46.99 260.64C45.42 262.14 44.15 263.86 43.25 265.8C42.58 267.15 41.98 268.64 41.38 269.99C40.63 268.12 40.41 265.8 41.23 263.78C42.28 261.17 43.62 258.62 44.82 256.01C45.19 255.26 45.79 255.11 46.61 255.26C54.54 256.98 62.69 257.2 70.76 257.65C71.59 257.73 72.41 257.88 73.23 257.73C74.95 257.58 76 258.4 76.67 259.75C77.49 261.47 78.24 263.19 79.06 264.9C79.21 265.73 78.91 265.95 78.24 265.8Z" />
					<path id="Layer" class="shp11" d="M74.5 237.91C74.58 236.27 74.58 234.62 74.65 232.9C74.73 230.88 74.73 228.94 75.18 226.92C75.55 224.83 75.33 222.66 75.4 220.57C75.48 218.7 75.25 216.75 75.92 214.96C76.15 214.21 76.07 213.31 76.07 212.49C76.07 209.28 76.15 206.06 76.07 202.92C76.07 201.5 75.77 200.08 75.62 198.73C75.4 197.16 75.18 195.67 76.15 194.25C76.52 194.17 76.82 194.02 77.19 193.95C78.32 193.8 78.54 193.95 78.54 194.92C78.54 195.37 78.54 195.89 78.54 196.34C78.47 209.43 78.39 222.59 78.24 235.67C78.24 236.42 78.24 237.09 78.17 237.84C78.09 238.66 77.42 238.59 76.82 238.44C76.22 237.91 75.33 238.36 74.73 237.91C74.65 237.91 74.5 237.91 74.5 237.91Z" />
					<path id="Layer" class="shp12" d="M84.22 275.75C83.55 272.53 83.03 269.47 82.2 266.55C81.38 263.71 80.19 261.02 79.06 258.03C80.34 258.03 81.46 258.03 82.58 257.95C85.34 257.8 88.04 257.58 90.8 257.35C91.77 257.28 92.22 257.73 92.45 258.77C92.52 259.3 92.37 259.82 91.85 259.82C90.28 259.97 88.78 260.27 87.44 261.09C85.87 262.06 85.64 262.51 86.24 264.31C87.29 267.37 87.66 270.59 87.96 273.8C88.04 274.48 87.81 275 87.06 275.15C86.24 275.37 85.27 275.52 84.22 275.75Z" />
					<path id="Layer" class="shp13" d="M84.67 75.66C76.82 75.66 68.97 75.74 61.04 75.74C60.82 75.74 60.6 75.74 60.3 75.74C59.03 75.66 58.2 74.92 58.13 73.87C58.05 72.67 58.95 71.63 60.3 71.48C61.49 71.33 62.69 71.25 63.89 71.25C69.49 71.25 75.1 71.25 80.71 71.33C81.08 71.33 81.38 71.4 81.76 71.48C81.98 74.99 79.51 74.47 77.72 74.69C78.54 75.14 79.74 74.47 80.86 74.32C82.35 74.17 84 73.57 84.67 75.66Z" />
					<path id="Layer" class="shp12" d="M81.01 52.26C81.08 47.33 80.71 42.47 79.81 37.68C79.36 34.99 80.86 33.5 82.35 31.78C82.43 31.7 83.1 31.92 83.1 32.15C83.4 33.42 83.77 34.69 83.85 35.96C84 42.62 84.07 49.27 84.22 56C84.22 56.75 84.22 57.42 84.22 58.17C84.15 59.44 82.88 60.19 81.68 59.51C81.38 59.37 81.08 58.77 81.08 58.32C81.01 56.3 81.01 54.28 81.01 52.26Z" />
					<path id="Layer" class="shp14" d="M81.83 67.29C79.14 67.44 76.37 67.59 73.68 67.66C69.27 67.74 64.93 67.74 60.52 67.81C59.1 67.81 58.58 67.22 58.88 65.87C59.25 64.23 59.92 63.63 61.49 63.63C69.19 63.63 76.9 63.63 84.67 63.7C83.48 66.09 80.93 65.8 78.91 66.32C77.57 66.69 76.15 66.77 75.03 66.84C77.05 67.07 79.51 65.27 81.83 67.29Z" />
					<path id="Layer" class="shp15" d="M46.46 228.34C45.19 225.28 44.89 222.36 45.19 219.37C45.79 211.97 46.69 204.64 48.93 197.54C49.23 196.64 49.53 195.74 49.98 194.85C50.13 194.55 50.73 194.17 51.1 194.25C51.4 194.32 51.77 194.92 51.77 195.29C51.77 195.97 51.47 196.72 51.32 197.39C49.23 205.24 48.11 213.31 47.51 221.39C47.21 223.63 46.76 225.88 46.46 228.34Z" />
					<path id="Layer" class="shp16" d="M41.6 205.91C41.31 200.6 41.23 195.37 42.28 190.21C42.88 187.15 43.7 184.15 45.27 181.46C45.57 180.94 45.94 180.49 46.32 180.04C46.46 179.89 46.84 179.82 46.99 179.97C48.04 180.71 48.41 182.66 47.89 183.78C47.21 185.2 46.46 186.55 46.09 188.04C44.75 193.13 43.55 198.21 42.28 203.3C42.13 204.12 41.83 205.01 41.6 205.91Z" />
					<path id="Layer" class="shp17" d="M103.29 260.57C102.47 260.64 101.64 260.72 100.82 260.72C97.46 260.64 97.98 261.17 96.63 257.65C96.26 256.68 96.19 255.86 96.78 255.04C96.93 254.89 97.01 254.66 97.16 254.44C99.03 251.3 99.03 251.3 102.99 251.52C105.38 254.44 104.04 257.5 103.29 260.57Z" />
					<path id="Layer" class="shp18" d="M94.77 282.33C92.75 280.68 90.43 280.08 87.81 280.16C85.64 280.23 83.4 280.16 80.63 280.16C81.91 279.48 82.58 279.19 83.18 278.81C85.94 278.29 88.78 277.84 91.55 277.24C92.75 277.02 93.87 276.72 94.99 276.34C95.66 276.12 96.19 275.67 96.93 276.19C97.68 276.72 98.21 277.39 98.13 278.21C98.06 279.11 97.83 280.08 97.46 280.91C96.93 281.95 95.89 282.25 94.77 282.33Z" />
					<path id="Layer" class="shp19" d="M79.36 28.64C79.29 28.11 78.99 27.51 79.14 26.99C79.51 25.49 80.04 24 80.63 22.58C81.38 20.78 81.38 19.14 80.19 17.49C80.34 17.05 80.48 16.52 80.71 16.22C81.91 14.73 83.55 14.35 84.75 15.25C86.32 16.45 86.69 18.32 85.57 19.89C83.48 22.88 81.38 25.72 79.36 28.64Z" />
					<path id="Layer" class="shp20" d="M109.05 249.2C109.05 248.23 109.05 247.33 109.05 246.36C108.97 244.34 109.42 243.97 111.66 244.64C112.04 244.72 112.49 245.24 112.49 245.61C112.56 248.23 112.49 250.85 112.41 253.47C112.41 253.76 111.81 254.29 111.51 254.36C109.5 254.66 109.05 254.29 109.12 252.49C109.12 251.45 109.12 250.32 109.12 249.28C109.12 249.2 109.05 249.2 109.05 249.2Z" />
					<path id="Layer" class="shp21" d="M101.49 149.91C99.25 150.81 97.08 150.06 94.92 149.76C94.62 149.69 94.17 149.16 94.09 148.79C94.02 147.14 94.02 145.5 94.09 143.78C94.09 143.48 94.62 142.96 94.99 142.96C96.04 142.81 97.08 142.81 98.13 142.73C98.8 143.11 99.1 143.78 99.1 144.53C98.95 146.77 100.07 148.41 101.49 149.91Z" />
					<path id="Layer" class="shp22" d="M105.08 248.01C103.59 248.75 102.09 248.31 100.52 248.23C100.3 248.23 99.85 247.48 99.92 247.18C100.37 244.49 100.9 241.8 101.42 239.11C101.49 238.89 102.17 238.81 102.54 238.66C104.86 241.35 103.59 245.02 105.08 248.01Z" />
					<path id="Layer" class="shp23" d="M81.83 67.29C79.44 67.14 77.12 66.99 74.35 66.84C75.7 66.39 76.67 66.09 77.64 65.8C78.69 65.5 79.66 65.12 80.71 64.82C81.76 64.6 82.8 64.45 83.85 64.23C84.15 64.15 84.45 63.85 84.67 63.63C85.64 63.1 86.17 63.55 86.54 64.45C86.99 65.42 86.84 66.17 86.17 66.62C85.72 66.92 85.12 67.22 84.6 67.29C83.7 67.37 82.73 67.29 81.83 67.29Z" />
					<path id="Layer" class="shp24" d="M66.65 267.3C66.88 266.92 67.25 266.1 67.7 265.28C68.45 264.08 69.64 264.01 70.62 265.05C71.81 266.33 71.96 267.82 71.14 269.24C70.47 270.44 69.27 270.96 68.22 270.59C67.1 270.29 66.5 269.24 66.65 267.3Z" />
					<path id="Layer" class="shp25" d="M101.49 149.91C98.35 149.69 98.28 150.36 98.35 146.55C98.35 145.27 98.21 144 98.21 142.73C102.09 141.98 101.87 142.73 101.87 145.72C101.79 147.07 101.64 148.49 101.49 149.91Z" />
					<path id="Layer" class="shp18" d="M84.67 75.66C84.07 74.92 83.18 74.99 82.35 74.99C80.48 74.99 78.69 74.99 76.9 74.84C80.41 73.8 80.41 73.8 81.76 71.4C82.8 71.33 83.85 71.18 84.9 71.25C86.02 71.25 86.84 72.15 86.69 73.35C86.62 74.54 86.24 75.66 84.67 75.66Z" />
					<path id="Layer" class="shp26" d="M105.08 248.01C103.36 247.56 103.36 247.56 103.29 246.44C103.06 243.82 102.84 241.2 102.62 238.59C103.06 238.51 103.59 238.36 104.04 238.51C104.41 238.59 105.01 238.96 105.08 239.18C105.38 242.1 105.91 245.09 105.08 248.01Z" />
					<path id="Layer" class="shp27" d="M98.5 158.13C97.46 158.28 96.34 159.03 95.51 158.21C94.62 157.31 94.17 156.04 94.09 154.7C94.02 153.57 94.39 153.05 95.44 153.13C96.41 153.13 97.31 153.27 98.28 153.35C99.55 154.84 99.55 156.49 98.5 158.13Z" />
					<path id="Layer" class="shp28" d="M98.5 139.44C98.28 139.52 98.06 139.59 97.83 139.59C93.64 139.82 93.49 139.74 94.39 135.18C95.66 135.26 96.93 135.33 98.21 135.33C99.48 136.6 99.4 138.02 98.5 139.44Z" />
					<path id="Layer" class="shp29" d="M104.71 146.4C104.71 145.42 104.64 144.53 104.78 143.55C104.86 143.26 105.31 142.81 105.68 142.73C106.28 142.58 106.88 142.88 106.95 143.55C107.03 145.42 106.95 147.37 106.95 149.24C106.95 149.91 106.28 150.36 105.76 150.13C105.38 149.98 104.93 149.54 104.93 149.24C104.78 148.34 104.86 147.37 104.86 146.4C104.78 146.4 104.78 146.4 104.71 146.4Z" />
					<path id="Layer" class="shp30" d="M103.29 260.57C103.21 259.07 103.14 257.58 103.06 256.08C102.99 254.59 103.06 253.09 103.06 251.52C103.66 251.52 104.34 251.22 104.71 251.52C105.08 251.75 105.31 252.49 105.31 253.02C105.16 255.26 104.86 257.43 104.56 259.67C104.49 260.27 104.04 260.57 103.29 260.57Z" />
					<path id="Layer" class="shp31" d="M98.5 158.13C98.43 156.49 98.28 154.92 98.21 153.27C99.03 153.2 99.85 153.13 100.67 153.13C100.9 153.13 101.27 153.57 101.27 153.8C101.27 154.62 101.2 155.44 101.12 156.27C100.82 158.13 100.82 158.13 98.5 158.13Z" />
					<path id="Layer" class="shp32" d="M98.5 139.44C98.35 138.1 98.28 136.68 98.13 135.33C98.58 135.26 99.03 135.11 99.55 135.11C100.37 135.03 100.97 135.33 101.05 136.23C101.12 136.83 101.2 137.42 101.27 138.02C101.35 139.37 101.2 139.44 99.63 139.52C99.18 139.59 98.88 139.52 98.5 139.44Z" />
					<path id="Layer" class="shp0" d="M78.24 265.8C78.54 265.5 78.77 265.28 79.06 264.98C80.56 266.85 80.26 269.24 81.01 271.19C80.86 271.41 80.78 271.48 80.71 271.56C80.63 271.48 80.48 271.41 80.41 271.33C79.66 269.54 78.91 267.67 78.24 265.8Z" />
					<path id="Layer" class="shp0" d="M74.65 237.91C75.48 237.61 76.22 237.69 76.75 238.44C76 238.59 75.25 238.59 74.65 237.91Z" />
					<path id="Layer" class="shp33" d="M57.83 101.24C57.38 100.49 56.93 100.04 56.86 99.52C55.89 94.96 56.33 90.54 58.13 86.28C58.58 85.16 59.25 84.19 60.45 83.74C61.12 83.52 61.87 83.44 62.39 84.11C62.84 84.64 62.84 85.31 62.47 85.76C60.37 88.67 60 92.11 59.55 95.55C59.4 96.75 59.1 97.87 58.8 99.07C58.58 99.59 58.2 100.26 57.83 101.24Z" />
					<path id="Layer" class="shp34" d="M61.34 90.99C61.42 90.69 61.49 90.1 61.64 89.57C61.87 88.97 62.39 88.52 62.99 88.75C63.51 88.9 64.04 89.35 64.26 89.8C64.48 90.32 64.48 90.99 64.33 91.52C64.19 92.64 63.29 93.61 62.69 93.61C62.09 93.53 61.42 92.41 61.34 90.99Z" />
					<path id="Layer" class="shp35" d="M62.32 176.6C61.42 175.85 61.04 174.96 61.04 173.76C61.04 170.17 61.04 166.66 61.04 163.07C61.04 162.47 61.19 161.87 61.42 161.35C61.72 160.38 62.39 159.63 63.44 159.63C66.73 159.56 70.09 159.48 73.38 159.63C74.35 159.7 75.25 160.6 76.15 161.13C78.02 165.39 77.12 169.8 76.9 174.14C76.82 175.11 76.22 176.08 75.33 176.38C70.99 178.17 66.65 179.07 62.32 176.6Z" />
					<path id="Layer" class="shp36" d="M62.32 176.6C65.08 176.6 67.77 176.75 70.54 176.68C72.04 176.6 73.61 176.3 75.03 175.93C75.48 175.78 76 175.18 76.07 174.66C76.3 173.84 76.22 173.01 76.22 172.19C76.22 168.53 76.15 164.79 76.15 161.13C77.49 161.42 78.17 162.4 78.54 163.59C79.74 167.18 80.04 170.77 79.06 174.51C78.47 176.75 76.97 178.17 74.73 178.92C71.96 179.89 69.12 180.12 66.28 179.59C64.56 179.29 62.62 179 62.32 176.6Z" />
					<path id="Layer" class="shp37" d="M87.29 172.19C86.91 173.61 86.62 175.11 86.09 176.53C85.2 179 83.85 181.24 82.2 183.26C81.61 184 80.93 184.68 80.19 185.2C79.59 185.65 78.91 185.72 78.24 185.28C77.72 184.9 77.87 184.3 78.54 183.48C79.59 182.21 80.71 180.94 81.61 179.59C83.18 177.35 84.22 174.81 84.6 172.04C84.67 171.44 84.75 170.85 85.05 170.32C85.2 170.02 85.72 169.8 86.17 169.72C86.39 169.72 86.77 170.02 86.91 170.32C87.06 170.85 87.14 171.44 87.29 172.19Z" />
					<path id="Layer" class="shp38" d="M86.47 164.94C86.32 165.31 86.24 165.76 86.02 166.21C85.57 167.18 83.77 167.33 83.33 166.36C82.95 165.54 82.8 164.56 82.73 163.67C82.73 162.85 83.55 162.1 84.3 162.02C85.05 161.95 85.87 162.62 86.09 163.44C86.32 163.97 86.39 164.42 86.47 164.94Z" />
					<path id="Layer" class="shp23" d="M73.91 206.58C73.98 209.35 71.59 211.82 68.82 211.97C66.35 212.12 63.96 209.5 63.89 206.88C63.81 204.49 65.68 201.5 69.19 201.2C71.36 201.05 73.83 203.89 73.91 206.58Z" />
					<path id="Layer" class="shp39" d="M69.42 228.57C66.58 228.57 64.93 227.15 64.19 224.08C63.74 222.29 65.01 219.67 66.95 218.85C68.3 218.25 69.72 218.32 71.06 218.92C72.41 219.45 73.08 220.42 73.31 221.84C73.53 223.26 74.13 224.53 73.38 225.95C72.56 227.67 71.36 228.72 69.42 228.57Z" />
					<path id="Layer" class="shp40" d="M64.41 167.56C64.63 166.51 63.81 164.94 64.78 163.52C66.2 163.44 67.62 163.37 68.97 163.29C69.79 163.29 70.62 163.29 71.44 163.29C72.93 163.37 73.01 163.44 73.08 165.01C73.08 167.18 73.08 169.28 73.08 171.44C73.08 172.27 72.78 172.79 71.89 172.79C69.87 172.79 67.85 172.79 65.83 172.79C64.63 172.79 64.48 172.57 64.48 171.29C64.41 170.1 64.41 169.05 64.41 167.56Z" />
					<path id="Layer" class="shp41" d="M68.75 204.94C70.54 205.09 71.36 205.91 71.21 207.33C71.06 208.68 69.79 209.73 68.45 209.58C67.1 209.35 66.2 208.08 66.43 206.66C66.65 205.46 67.48 204.87 68.75 204.94Z" />
					<path id="Layer" class="shp42" d="M71.44 223.11C71.51 224.6 70.02 226.1 68.52 226.17C67.48 226.17 66.13 224.98 66.13 223.93C66.13 222.66 67.92 220.79 69.05 220.79C70.24 220.87 71.36 221.99 71.44 223.11Z" />
				</g>
			</g>
		</g>
	</g>
</svg>