<svg xmlns="http://www.w3.org/2000/svg" viewBox="0 0 270 130" width="270" height="130">
	<style>
		tspan { white-space:pre }
		.shp0 { fill: #000000 } 
		.shp1 { fill: #ff9900 } 
		.shp2 { fill: #fcfdfd } 
		.shp3 { fill: #fefefe } 
		.shp4 { fill: #fdfefe } 
		.shp5 { fill: #fdfdfd } 
		.shp6 { fill: #fafcfc } 
		.shp7 { fill: #f3f6f6 } 
		.shp8 { fill: #b8baba } 
		.shp9 { fill: #8ca7a7 } 
		.shp10 { fill: #050404 } 
		.shp11 { fill: #302828 } 
	</style>
	<g id="Layer">
		<g id="Layer">
			<g id="Layer">
				<g id="Layer">
					<path id="Layer" class="shp0" d="M135.6 126.1C114.3 126.2 93.7 124.1 73.4 119.1C61.3 116.1 49.5 112.2 38.3 106.6C31.7 103.3 25.5 99.4 19.9 94.6C15.7 91 12 87.1 9.2 82.4C2 70.5 2 58.5 9.1 46.6C12 41.8 15.9 37.7 20.2 34.1C28.2 27.3 37.3 22.4 46.9 18.4C59.9 13 73.5 9.4 87.3 6.9C108.5 3 129.9 2.1 151.3 3.3C174.4 4.5 197 8.4 218.7 16.6C227.2 19.8 235.4 23.7 243 28.8C247.4 31.7 251.5 35 255.2 38.9C258.1 41.9 260.6 45.2 262.5 48.9C267.9 59.3 268 69.7 262.6 80.1C259.8 85.6 255.7 90.1 251.1 94.1C245.3 99.2 238.8 103.2 231.9 106.7C219.6 112.9 206.5 117.1 193.1 120.1C174.1 124.3 154.7 126.2 135.6 126.1Z" />
					<path id="Layer" class="shp1" d="M135.4 120.6C111.8 120.3 88.9 118 66.4 111.4C55.9 108.3 45.8 104.5 36.3 99.1C30.1 95.6 24.4 91.6 19.5 86.5C17.1 83.9 14.9 81.2 13.2 78.1C8.3 69.1 8.2 60.1 13.2 51.1C16 46 19.9 41.8 24.4 38.1C29.8 33.6 35.9 30 42.2 26.9C53.7 21.3 65.9 17.4 78.4 14.6C102.3 9.2 126.5 7.7 150.8 9C170.6 10.1 190.2 13.1 209.2 19.3C218.8 22.4 228.1 26.3 236.7 31.6C241.9 34.8 246.8 38.4 251 42.8C253.5 45.5 255.8 48.4 257.5 51.7C262 60.3 262 68.8 257.5 77.4C254.6 82.9 250.5 87.3 245.8 91.2C237.5 97.9 228.2 102.7 218.3 106.6C205.8 111.5 192.8 114.8 179.5 117C164.8 119.5 150 120.5 135.4 120.6Z" />
					<path id="Layer" class="shp0" d="M129.5 114.2C113.7 114.1 92.6 112 72 106.6C62.4 104.1 53.1 100.8 44.2 96.2C39.2 93.6 34.4 90.7 30.3 86.9C27.8 84.5 25.3 81.9 23.3 79.1C16.9 69.9 16.9 59.7 23.1 50.4C25.9 46.2 29.4 42.8 33.4 39.8C38.8 35.7 44.7 32.6 50.9 29.9C62.4 24.9 74.4 21.7 86.7 19.4C109.6 15 132.7 14.3 155.9 15.8C174.1 17 192 20.1 209.4 26C216.4 28.4 223.1 31.2 229.5 34.9C234.2 37.6 238.7 40.7 242.5 44.7C244.6 46.9 246.6 49.3 248.1 51.8C253.2 60.4 253.1 69.1 248 77.7C245.2 82.5 241.3 86.2 236.9 89.5C231.1 93.9 224.8 97.2 218.1 100C206.3 105 193.9 108.2 181.3 110.4C166.1 113 150.6 114.3 129.5 114.2Z" />
					<path id="Layer" class="shp2" d="M31.6 79.9C28.3 76.9 26.2 73.3 24.9 69C23.5 64.3 24.4 59.8 26.6 55.6C28.6 51.7 31.5 48.5 34.9 45.8C39.3 42.1 44.3 39.2 49.5 36.7C59.5 31.9 70 28.6 80.8 26.3C103.1 21.5 125.7 19.8 148.4 21C149.5 21.1 150.6 21.2 152.5 21.4C150.1 22.5 148.4 23.1 146.5 23.2C142.4 23.5 138.2 24 134.1 24C110.5 23.9 87.8 28.3 65.5 35.7C56.6 38.6 48.5 43 41.1 48.8C40 49.7 38.8 50.6 37.8 51.6C31.2 57.8 28.7 65.3 31.3 74.2C31.8 75.7 32.4 77.2 32.9 78.7C33.1 79.6 32.7 80.1 31.6 79.9Z" />
					<path id="Layer" class="shp3" d="M160.5 66C162.9 67.4 164.9 68.6 166.9 69.8C168.7 70.9 170.5 71.9 172.2 73.1C173 73.6 173.6 74.4 174.2 75.1C174.9 76.1 174.5 77.6 173.3 77.8C172.1 78.1 170.8 78.3 169.6 78.1C166.7 77.7 164.2 76.3 161.8 74.7C159.7 73.3 157.7 71.7 155.7 70.2C154.5 70.5 154.9 71.5 154.8 72.2C154.7 73.8 154.8 75.4 154.6 77C154.4 78.9 153 80.2 151.2 80.5C149.8 80.7 148.2 79.6 148.1 78.3C148 77.4 148 76.4 148 75.4C147.9 69 147.9 62.7 147.9 56.3C147.9 55 148 53.8 147.2 52.6C146.3 51 146.9 49.5 148 48.3C148.4 47.8 148.9 47.3 149.4 47C154.4 43.5 159.7 41.4 166 42.1C172.4 42.8 176.3 50 173.3 55.7C171.8 58.6 169.3 60.7 166.6 62.4C164.7 63.6 162.7 64.6 160.5 66Z" />
					<path id="Layer" class="shp3" d="M143.3 78.2C143.3 79.9 142.6 80.7 141.6 81.3C140.4 81.9 139 82.1 138 81.1C137 80.1 136 78.9 135.6 77.6C134.7 74.9 134 72.1 133.4 69.3C133.1 68 132.6 67.3 131.2 67.3C130.7 67.3 130.2 67.2 129.8 67.2C126.4 67.2 126 67.5 125.8 70.9C125.7 73 125.4 75 124.4 76.9C123.5 78.6 121.9 79.2 119.9 78.6C118.2 78.1 117.3 76.9 117.5 75C118.4 66.3 119.9 57.6 123.1 49.4C123.8 47.5 125 45.7 126.1 44C127.2 42.4 128.9 42 130.7 42.1C131.9 42.2 132.9 42.7 133.5 43.7C134.1 44.7 134.6 45.6 135 46.7C135.5 48 136 49.4 136.2 50.8C137.8 59.3 140.3 67.5 142.6 75.8C143 76.7 143.2 77.6 143.3 78.2Z" />
					<path id="Layer" class="shp4" d="M68.5 80.8C63.2 80.8 58.7 77.1 57.7 71.8C57.5 70.6 57.7 69.6 58.5 68.7C59.6 67.4 61.2 67.3 62.1 68.6C62.6 69.2 62.9 70 63.2 70.7C64.8 73.6 66.8 74.6 69.9 74C70.7 73.9 71.4 73.6 72.2 73.3C74.3 72.5 74.8 71.3 73.1 69.8C70.2 67.1 67.1 64.5 63.9 62.1C61.5 60.3 59.9 58 59.1 55.2C57.9 50.9 59.2 47.2 63 44.9C66.4 42.9 70 41.7 74 42.4C78.4 43.2 81.3 48.3 79.6 52.3C78.7 54.5 76 54.8 74.6 52.9C74.3 52.5 74.1 52.1 73.9 51.7C73.3 50.8 73.4 49.4 72 49.2C70.2 49 68.5 49.2 67.1 50.5C65.8 51.7 65.5 53.5 66.8 54.8C69 56.9 71.3 58.9 73.7 60.7C76.2 62.5 78.3 64.7 80 67.2C82.6 71.2 81.6 75.8 77.7 78.5C75.8 79.6 72.1 81 68.5 80.8Z" />
					<path id="Layer" class="shp5" d="M95 64.1C94.8 60 94.7 55.8 94.5 51.7C94.4 49.5 94.3 49.3 92.1 49.2C90.3 49.1 88.6 49.3 86.8 49.2C85.1 49.2 84.5 48.6 84.4 46.9C84.4 46.3 84.4 45.6 84.4 45C84.6 43.6 85.4 42.7 86.8 42.4C87.4 42.3 88.1 42.2 88.7 42.2C95.9 42.2 103.1 42.7 110.1 44.1C110.7 44.2 111.4 44.3 112 44.5C113.5 45 114.3 46.3 114.2 47.8C114.1 49.2 112.9 50.7 111.5 50.8C109.4 50.9 107.3 50.9 105.3 50.7C100.9 50.2 101 50.4 101.1 54.5C101.4 61.4 101.5 68.2 101.6 75.1C101.6 75.9 101.6 76.7 101.6 77.5C101.4 79.4 100.4 80.4 98.6 80.7C96.3 81.1 94.8 80.1 94.8 77.7C94.7 74 94.7 70.4 94.7 66.7C94.7 65.9 94.7 65.1 94.7 64.3C94.9 64.1 95 64.1 95 64.1Z" />
					<path id="Layer" class="shp5" d="M188.1 64C188 59.7 187.8 55.4 187.7 51.1C187.7 49.8 187 49.4 186 49.3C184.1 49.2 182.2 49.3 180.3 49.3C178.3 49.3 177.7 48.7 177.6 46.8C177.5 43.5 178.4 42.3 181.6 42.2C184.8 42.1 188 42.2 191.2 42.5C195.6 42.9 200.1 43.5 204.5 44.3C206.7 44.7 207.7 46.1 207.4 48C207.1 49.8 205.7 51 203.6 50.9C201.2 50.9 198.8 50.6 196.4 50.4C194.6 50.3 194.2 50.7 194.3 52.6C194.5 59.8 194.7 67 194.9 74.2C194.9 75.3 195 76.4 194.8 77.6C194.5 80.1 191.6 81.6 189.4 80.3C188.8 80 188.3 79.1 188.1 78.4C187.9 77.3 187.9 76.2 187.9 75.1C188 71.3 188 67.6 188.1 64C188 64 188 64 188.1 64Z" />
					<path id="Layer" class="shp6" d="M236 63.5C237.6 67.7 236.4 71.3 233.4 74.4C232.2 75.7 231 76.9 229.6 78C223.9 82.9 217.5 86.8 210.6 89.8C208.7 90.6 206.7 91 204.7 91.4C204.3 91.5 203.5 90.9 203.3 90.5C203.2 90 203.5 89.2 203.8 88.9C204.7 88.2 205.7 87.7 206.7 87.2C212.5 84.2 218 80.7 223.2 76.7C227.7 73.3 231.5 69.3 234.2 64.3C234.7 63.9 235 62.9 236 63.5Z" />
					<path id="Layer" class="shp7" d="M229.9 53C227.3 53 225.3 51 225.4 48.5C225.4 46.4 227.2 44.5 229.3 44.5C231.6 44.5 233.8 46.8 233.9 49.1C233.9 51.3 232.1 53.1 229.9 53Z" />
					<path id="Layer" class="shp8" d="M31.6 79.9C32 79.4 32.5 79 32.9 78.5C34.4 79.9 35.3 81.5 36.5 84.1C34.1 82.9 32.6 81.7 31.6 79.9Z" />
					<path id="Layer" class="shp9" d="M236 63.5C235.4 63.8 234.9 64.1 234.3 64.4C234.3 64.1 234.1 63.7 234.2 63.5C234.4 62.9 234.6 62 234.9 62C236 61.8 236.2 62.6 236 63.5Z" />
					<path id="Layer" class="shp10" d="M154.5 60.8C154.5 58.1 154.7 56 154.5 54C154.2 51.6 155.5 50.6 157.4 49.8C159.8 48.8 162.3 48.6 164.8 48.9C167.1 49.2 167.9 51.1 166.5 53.1C165.9 54 165.1 54.8 164.2 55.5C161.5 57.7 158.5 59.3 154.5 60.8Z" />
					<path id="Layer" class="shp11" d="M130.2 54.1C130.5 55.9 130.8 57.4 131 58.9C131.2 60 130.5 60.6 129.5 60.8C128 61.2 127.4 60.7 127.8 59.2C128.1 57.8 128.5 56.5 129 55.2C129.1 54.8 129.6 54.6 130.2 54.1Z" />
				</g>
			</g>
		</g>
	</g>
</svg>